<svg version="1" id="Angular_Logo" xmlns="http://www.w3.org/2000/svg" viewBox="0 0 501.4 532"><style>.st0{fill:#b3b3b3}.st1{fill:none}</style><path class="st0" d="M249.8 12.3L11 95.7l37.5 310.9L250.4 518l201.4-111.3 37.9-310.9-239.9-83.5zm179.2 379l-179.2 99.1-179.2-99.1-34-278.9 213.2-74.2L463 112.4l-34 278.9z"/><path class="st1" d="M-103.5 269.4l-43.3-102.8v102.9c8.8-.1 21.7-.1 43.3-.1z"/><path class="st0" d="M249.8 61.3L103.1 387.1H157l30.9-73.5h123.8l30.9 73.5h53.9L249.8 61.3zm-43.2 208.1l43.3-102.8 43.3 102.8h-43.1c-19 .1-18 .1-43.5 0z"/></svg>