<svg xmlns="http://www.w3.org/2000/svg" width="800" height="929" viewBox="0 0 800 929">
    <defs>
        <radialGradient id="prefix__a" cx="10.291%" cy="2.027%" r="116.133%" fx="10.291%" fy="2.027%">
            <stop offset="0%" stop-color="#8658EC"/>
            <stop offset="100%" stop-color="#6831E5"/>
        </radialGradient>
    </defs>
    <g fill="none" fill-rule="evenodd">
        <path stroke="#1EFEC0" stroke-width="2" d="M60.603 573.25c17.96 7.568 37.71 11.75 58.441 11.75 82.918 0 150.131-66.93 150.131-149.497 0-82.568-67.213-149.503-150.131-149.503-39.32 0-75.102 15.05-101.869 39.678" transform="rotate(-24 510.093 96.69)"/>
        <path stroke="#FFF" stroke-width="3" d="M192 349.859c-20.39-18.703-47.618-30.128-77.53-30.128-63.22 0-114.47 51.04-114.47 114" transform="rotate(-24 510.093 96.69)"/>
        <path stroke="#1EFFC2" d="M339.072 760.86c20.181 8.985 43.826-.09 52.811-20.272 8.986-20.182-.09-43.826-20.272-52.812-20.182-8.985-43.826.091-52.811 20.273-8.986 20.181.09 43.826 20.272 52.811z" transform="rotate(-24 510.093 96.69)"/>
        <path stroke="#A3A3B8" d="M236.28 45.177c10.09 4.492 21.913-.046 26.405-10.137 4.493-10.09-.045-21.913-10.136-26.405-10.09-4.493-21.913.045-26.405 10.136-4.493 10.09.045 21.913 10.136 26.406zM500.698 631.408c6.055 2.695 13.148-.028 15.844-6.082 2.695-6.055-.028-13.148-6.082-15.844-6.055-2.695-13.148.028-15.843 6.082-2.696 6.055.027 13.148 6.081 15.844z" transform="rotate(-24 510.093 96.69)"/>
        <path fill="url(#prefix__a)" fill-rule="nonzero" d="M93.418 218.782c8.284 0 15-6.716 15-15 0-8.285-6.716-15-15-15-8.284 0-15 6.715-15 15 0 8.284 6.716 15 15 15z" transform="rotate(-24 510.093 96.69) rotate(24 93.418 203.782)"/>
        <path fill="url(#prefix__a)" fill-rule="nonzero" d="M499.068 187.313c6.627 0 12-5.373 12-12 0-6.628-5.373-12-12-12-6.628 0-12 5.372-12 12 0 6.627 5.372 12 12 12z" transform="rotate(-24 510.093 96.69) rotate(24 499.068 175.313)"/>
    </g>
</svg>
