<?xml version="1.0" encoding="UTF-8"?>
<svg width="566px" height="260px" viewBox="0 0 566 260" version="1.1" xmlns="http://www.w3.org/2000/svg" xmlns:xlink="http://www.w3.org/1999/xlink">
    <!-- Generator: Sketch 53.1 (72631) - https://sketchapp.com -->
    <title>business-illo-services</title>
    <desc>Created with Sketch.</desc>
    <g id="business-illo-services" stroke="none" stroke-width="1" fill="none" fill-rule="evenodd">
        <g id="business-services" transform="translate(111.000000, 28.000000)">
            <g id="business-services-1">
                <g id="Group" opacity="0.04" fill="#000000" fill-rule="nonzero">
                    <rect id="Rectangle" x="61.7996" y="200.208758" width="1" height="1"></rect>
                    <rect id="Rectangle" x="80.7381853" y="200.208758" width="1" height="1"></rect>
                    <rect id="Rectangle" x="99.6674733" y="200.208758" width="189.320865" height="1"></rect>
                    <path d="M330.993462,181.233973 C330.816869,181.448219 330.640277,181.653151 330.463461,181.858082 L23.9409124,181.858082 L23.9409124,181.233973 L330.993462,181.233973 Z" id="Path"></path>
                    <path d="M338.635822,162.268493 C338.626739,162.473425 338.617227,162.678356 338.598633,162.883288 L17.023779,162.883288 C16.9679395,162.678356 16.9029142,162.473425 16.8471862,162.268493 L338.635822,162.268493 Z" id="Path"></path>
                    <path d="M334.777527,143.917808 L12.7563382,143.917808 C12.7099168,143.712877 12.6726625,143.507945 12.6354733,143.303014 L334.489255,143.303014 C334.591628,143.507945 334.684471,143.712877 334.777527,143.917808 Z" id="Path"></path>
                    <path d="M319.185941,124.952329 L9.00021146,124.952329 C8.96309665,124.747397 8.91653578,124.542466 8.87934659,124.328219 L318.321358,124.328219 C318.609406,124.533151 318.897669,124.738082 319.185941,124.952329 Z" id="Path"></path>
                    <rect id="Rectangle" x="5.0024387" y="105.36273" width="246.740871" height="1"></rect>
                    <rect id="Rectangle" x="270.049641" y="105.36273" width="1" height="1"></rect>
                    <path d="M199.232193,86.3972603 C199.343872,86.6021918 199.464737,86.8071233 199.594787,87.0120548 L1.84133903,87.0120548 C1.80414984,86.8071233 1.77630443,86.6021918 1.74836605,86.3972603 L199.232193,86.3972603 Z" id="Path"></path>
                    <path d="M191.878114,68.0465753 L0.297950486,68.0465753 C0.297950486,67.8416438 0.297950486,67.6367123 0.307247784,67.4317808 L191.70141,67.4317808 C191.757129,67.6367123 191.812968,67.8416438 191.878114,68.0465753 Z" id="Path"></path>
                    <path d="M186.271816,48.4569863 C186.336962,48.6619178 186.401885,48.8668493 186.467059,49.0810959 L2.40846486,49.0810959 C2.45495135,48.8761644 2.50143784,48.6619178 2.56644454,48.4569863 L186.271816,48.4569863 Z" id="Path"></path>
                    <path d="M178.657386,30.1063014 L10.710877,30.1063014 C10.8504759,29.9013699 10.9897959,29.6964384 11.1478499,29.4915068 L178.303958,29.4915068 C178.432174,29.6902537 178.550138,29.8954544 178.657386,30.1063014 L178.657386,30.1063014 Z" id="Path"></path>
                    <path d="M158.686698,10.5260274 C159.039995,10.7216438 159.393293,10.9358904 159.74659,11.1408219 L33.879779,11.1408219 C34.3168357,10.9265753 34.7723939,10.7216438 35.2186456,10.5260274 L158.686698,10.5260274 Z" id="Path"></path>
                    <path d="M5.62528324,39.3282192 L5.62528324,107.896438 C5.52301297,107.365479 5.41144541,106.834521 5.30917514,106.303562 C5.29058054,106.201096 5.27206032,106.089315 5.24414054,105.986849 L5.00241081,105.986849 L5.00241081,40.8465753 C5.19764476,40.3342466 5.411464,39.8219178 5.62528324,39.3282192 Z" id="Path"></path>
                    <path d="M23.9409124,16.8789041 C24.1455459,16.729863 24.3501361,16.590137 24.5546828,16.459726 L24.5546828,181.858082 L23.9409124,181.858082 L23.9409124,16.8789041 Z" id="Path"></path>
                    <path d="M43.4838499,7.3309589 L43.4838499,196.762192 C43.2793094,196.706301 43.0748246,196.641096 42.870312,196.57589 L42.870312,7.53589041 C43.0748246,7.46136986 43.2793373,7.39616438 43.4838499,7.3309589 Z" id="Path"></path>
                    <path d="M62.4225561,2.82246575 L62.4225561,200.823562 L61.7996372,200.823562 L61.7996372,2.92493151 C62.0041126,2.8969863 62.2180435,2.85972603 62.4225561,2.82246575 Z" id="Path"></path>
                    <path d="M81.3517232,0.773150685 L81.3517232,200.823562 L80.7381853,200.823562 L80.7381853,0.810410959 C80.9426979,0.791780822 81.1472106,0.782465753 81.3517232,0.773150685 Z" id="Path"></path>
                    <path d="M100.281123,0.0838356164 L100.281123,200.823562 L99.6675012,200.823562 L99.6675012,0.102465753 C99.8720975,0.0931506849 100.07661,0.0931506849 100.281123,0.0838356164 Z" id="Path"></path>
                    <path d="M119.219717,0.316712329 L119.219717,200.823562 L118.596752,200.823562 L118.596752,0.279452055 C118.801265,0.288767123 119.015084,0.298082192 119.219717,0.316712329 Z" id="Path"></path>
                    <path d="M138.148996,2.79452055 L138.148996,201.391781 C137.944456,201.382466 137.730618,201.382466 137.526152,201.373151 L137.526152,2.65479452 C137.739971,2.70136986 137.944483,2.74794521 138.148996,2.79452055 Z" id="Path"></path>
                    <path d="M157.078284,9.64109589 L157.078284,201.97863 C156.873744,201.969315 156.669138,201.969315 156.464662,201.96 L156.464662,9.32438356 C156.669138,9.42684932 156.873771,9.53863014 157.078284,9.64109589 Z" id="Path"></path>
                    <path d="M175.394025,25.0854795 C175.607863,25.3649315 175.812403,25.6443836 176.007563,25.9331507 L176.007563,202.528219 C175.803022,202.528219 175.598538,202.518904 175.394025,202.509589 L175.394025,25.0854795 Z" id="Path"></path>
                    <path d="M194.946157,77.1846575 L194.946157,202.966027 C194.741617,202.966027 194.537021,202.956712 194.323192,202.956712 L194.323192,75.4986301 C194.518519,76.0668493 194.732338,76.6257534 194.946157,77.1846575 Z" id="Path"></path>
                    <path d="M213.261898,99.5687671 C213.466439,99.6526027 213.670923,99.7271233 213.875436,99.8109589 L213.875436,203.180274 C213.670896,203.189589 213.466383,203.189589 213.261898,203.180274 L213.261898,99.5687671 Z" id="Path"></path>
                    <path d="M232.191075,103.443836 L232.804836,103.527671 L232.804836,203.096438 C232.600211,203.105753 232.395699,203.105753 232.191075,203.105753 L232.191075,103.443836 Z" id="Path"></path>
                    <path d="M251.743309,105.36274 L251.743309,202.60274 C251.538769,202.612055 251.334284,202.62137 251.120465,202.630685 L251.120465,105.36274 L251.743309,105.36274 Z" id="Path"></path>
                    <path d="M270.672709,105.36274 L270.672709,201.606027 C270.468168,201.624658 270.254331,201.633973 270.049641,201.643288 L270.049641,105.36274 L270.672709,105.36274 Z" id="Path"></path>
                    <polygon id="Path" points="288.988338 112.023014 289.601885 112.16274 289.601885 200.208767 288.988338 200.208767"></polygon>
                    <path d="M308.540582,118.646027 L308.540582,195.886575 C308.337728,195.968844 308.129567,196.03731 307.917515,196.091507 L307.917515,118.35726 C308.12225,118.441096 308.33607,118.543562 308.540582,118.646027 Z" id="Path"></path>
                    <path d="M328.08352,133.438356 L328.08352,184.382466 C327.878979,184.587397 327.674271,184.773699 327.469982,184.969315 L327.469982,132.711781 C327.674274,132.953973 327.878787,133.196164 328.08352,133.438356 Z" id="Path"></path>
                </g>
                <rect id="Rectangle" stroke="#E2E7E7" stroke-width="0.971060937" fill="#FFFFFF" fill-rule="nonzero" x="110.054609" y="54.6292066" width="33.3623937" height="31.2957332"></rect>
                <rect id="Rectangle" stroke="#E2E7E7" stroke-width="0.809215896" fill="#E2E7E7" fill-rule="nonzero" x="143.416994" y="54.6292066" width="33.3623937" height="31.2957332"></rect>
                <rect id="Rectangle" stroke="#E2E7E7" stroke-width="0.971060937" fill="#FFFFFF" fill-rule="nonzero" x="176.779387" y="54.6292066" width="33.3623937" height="31.2957332"></rect>
                <rect id="Rectangle" stroke="#E2E7E7" stroke-width="0.809215896" fill="#E2E7E7" fill-rule="nonzero" x="210.141781" y="54.6292066" width="33.3623937" height="31.2957332"></rect>
                <rect id="Rectangle" stroke="#E2E7E7" stroke-width="0.971060937" fill="#FFFFFF" fill-rule="nonzero" x="243.504165" y="54.6292066" width="33.3623937" height="31.2957332"></rect>
                <rect id="Rectangle" stroke="#E2E7E7" stroke-width="0.809215896" fill="#E2E7E7" fill-rule="nonzero" x="110.054609" y="85.9249397" width="33.3623937" height="31.2957332"></rect>
                <rect id="Rectangle" stroke="#E2E7E7" stroke-width="0.971060937" fill="#FFFFFF" fill-rule="nonzero" x="143.416994" y="85.9249397" width="33.3623937" height="31.2957332"></rect>
                <rect id="Rectangle" stroke="#E2E7E7" stroke-width="0.809215896" fill="#E2E7E7" fill-rule="nonzero" x="176.779387" y="85.9249397" width="33.3623937" height="31.2957332"></rect>
                <rect id="Rectangle" stroke="#E2E7E7" stroke-width="0.971060937" fill="#FFFFFF" fill-rule="nonzero" x="210.141781" y="85.9249397" width="33.3623937" height="31.2957332"></rect>
                <rect id="Rectangle" stroke="#E2E7E7" stroke-width="0.809215896" fill="#E2E7E7" fill-rule="nonzero" x="243.504165" y="85.9249397" width="33.3623937" height="31.2957332"></rect>
                <rect id="Rectangle" stroke="#E2E7E7" stroke-width="0.971060937" fill="#FFFFFF" fill-rule="nonzero" x="110.054609" y="117.220682" width="33.3623937" height="31.2957332"></rect>
                <rect id="Rectangle" stroke="#E2E7E7" stroke-width="0.809215896" fill="#E2E7E7" fill-rule="nonzero" x="143.416994" y="117.220682" width="33.3623937" height="31.2957332"></rect>
                <rect id="Rectangle" stroke="#E2E7E7" stroke-width="0.971060937" fill="#FFFFFF" fill-rule="nonzero" x="176.779387" y="117.220682" width="33.3623937" height="31.2957332"></rect>
                <rect id="Rectangle" stroke="#E2E7E7" stroke-width="0.809215896" fill="#E2E7E7" fill-rule="nonzero" x="210.141781" y="117.220682" width="33.3623937" height="31.2957332"></rect>
                <rect id="Rectangle" stroke="#E2E7E7" stroke-width="0.971060937" fill="#FFFFFF" fill-rule="nonzero" x="243.504165" y="117.220682" width="33.3623937" height="31.2957332"></rect>
                <rect id="Rectangle" stroke="#E2E7E7" stroke-width="0.809215896" fill="#E2E7E7" fill-rule="nonzero" x="110.054609" y="148.516415" width="33.3623937" height="31.2957332"></rect>
                <rect id="Rectangle" stroke="#E2E7E7" stroke-width="0.971060937" fill="#FFFFFF" fill-rule="nonzero" x="143.416994" y="148.516415" width="33.3623937" height="31.2957332"></rect>
                <rect id="Rectangle" stroke="#E2E7E7" stroke-width="0.809215896" fill="#E2E7E7" fill-rule="nonzero" x="176.779387" y="148.516415" width="33.3623937" height="31.2957332"></rect>
                <rect id="Rectangle" stroke="#E2E7E7" stroke-width="0.971060937" fill="#FFFFFF" fill-rule="nonzero" x="210.141781" y="148.516415" width="33.3623937" height="31.2957332"></rect>
                <rect id="Rectangle" stroke="#E2E7E7" stroke-width="0.809215896" fill="#E2E7E7" fill-rule="nonzero" x="243.504165" y="148.516415" width="33.3623937" height="31.2957332"></rect>
                <polygon id="Path" fill="#313D3F" fill-rule="nonzero" points="141.262205 146.653644 99.0608432 146.653644 110.220389 69.834137 130.102659 69.834137"></polygon>
                <rect id="Rectangle" fill="#EEBF1B" fill-rule="nonzero" x="92.1578417" y="143.589033" width="56.0072908" height="9.2218526"></rect>
                <polygon id="Path" fill="#EEBF1B" fill-rule="nonzero" points="134.207416 71.5779178 106.868714 71.5779178 101.276389 42.0081644 139.799741 42.0081644"></polygon>
                <ellipse id="Oval" fill="#313D3F" fill-rule="nonzero" cx="120.538279" cy="35.4713803" rx="6.52408086" ry="6.53655123"></ellipse>
                <path d="M158.876865,104.557918 L304.741232,104.557918 L304.741232,41.689589 L243.843935,41.689589" id="Path" stroke="#B4B4B4" stroke-width="1.5" stroke-dasharray="3.236872745569826"></path>
                <path d="M84.3952865,169.061041 L159.281297,169.061041 L159.281297,134.245973 L222.852497,134.245973" id="Path" stroke="#B4B4B4" stroke-width="1.5" stroke-dasharray="3.236872745569826"></path>
                <polyline id="Path" stroke="#313D3F" stroke-width="1.11720001" points="17.8666162 56.8815342 17.8666162 116.913425 114.038789 116.913425"></polyline>
                <rect id="Rectangle" fill="#D3D3D3" fill-rule="nonzero" transform="translate(88.039079, 105.944196) rotate(180.000000) translate(-88.039079, -105.944196) " x="78.3483057" y="100.002346" width="19.3815457" height="11.8836986"></rect>
                <rect id="Rectangle" fill="#D3D3D3" fill-rule="nonzero" transform="translate(62.334962, 98.711227) rotate(180.000000) translate(-62.334962, -98.711227) " x="52.6441888" y="85.5267019" width="19.3815457" height="26.3690493"></rect>
                <rect id="Rectangle" fill="#D3D3D3" fill-rule="nonzero" transform="translate(34.475192, 91.206621) rotate(180.000000) translate(-34.475192, -91.206621) " x="24.784419" y="70.3288323" width="19.3815457" height="41.755577"></rect>
                <polygon id="Path" fill="#313D3F" fill-rule="nonzero" points="264.491373 84.2398904 224.041622 84.2398904 234.325362 42.1665205 254.207632 42.1665205"></polygon>
                <polygon id="Path" fill="#5CC7DC" fill-rule="nonzero" points="264.192 25.6788493 264.192 43.3597808 224.855135 43.3597808 224.855135 25.6788493 232.100519 25.6788493 232.100519 30.052274 240.630789 30.052274 240.630789 25.6788493 248.416346 25.6788493 248.416346 30.052274 256.946616 30.052274 256.946616 25.6788493"></polygon>
                <rect id="Rectangle" fill="#5CC7DC" fill-rule="nonzero" x="217.395467" y="82.2223584" width="54.2562378" height="9.2218526"></rect>
                <path d="M30.9353959,160.56055 L17.7920577,169.998027 C17.7224565,170.047999 17.6308065,170.054773 17.5546394,170.015577 C17.4784722,169.97638 17.4305814,169.897796 17.4305788,169.812005 L17.4305788,150.937031 C17.4305814,150.851241 17.4784722,150.772657 17.5546394,150.73346 C17.6308065,150.694263 17.7224565,150.701038 17.7920577,150.751009 L30.9353959,160.188506 C30.9952499,160.231489 31.0307511,160.300746 31.0307511,160.374528 C31.0307511,160.44831 30.9952499,160.517566 30.9353959,160.56055 Z" id="Path" stroke="#36B998" stroke-width="1.30340001"></path>
                <path d="M183.846449,14.0353863 L173.273125,21.6275025 C173.217134,21.667704 173.143404,21.6731548 173.082129,21.6416227 C173.020854,21.6100907 172.982327,21.5468721 172.982325,21.4778559 L172.982325,6.29362356 C172.982327,6.22460739 173.020854,6.16138878 173.082129,6.12985671 C173.143404,6.09832463 173.217134,6.10377546 173.273125,6.14397699 L183.846449,13.7360932 C183.894604,13.7706675 183.923168,13.826383 183.923168,13.8857397 C183.923168,13.9450964 183.894604,14.0008119 183.846449,14.0353863 Z" id="Path" stroke="#36B998" stroke-width="1.67580001"></path>
                <path d="M59.6440216,32.6027397 C63.0843054,32.5985305 65.8709805,29.8031173 65.8709805,26.3562551 C65.8709805,22.9093928 63.0843054,20.1139796 59.6440216,20.1097704" id="Path" stroke="#5CC7DC" stroke-width="1.39650001"></path>
                <ellipse id="Oval" fill="#F16D6E" fill-rule="nonzero" cx="336.71474" cy="72.3184285" rx="6.98719784" ry="7.00055342"></ellipse>
                <ellipse id="Oval" stroke="#D3D3D3" stroke-width="1.30340001" cx="309.1823" cy="145.725183" rx="4.59311589" ry="4.60189534"></ellipse>
            </g>
        </g>
    </g>
</svg>