<svg xmlns="http://www.w3.org/2000/svg" xmlns:xlink="http://www.w3.org/1999/xlink" width="264" height="513" viewBox="0 0 264 513">
  <defs>
    <rect id="leading-section-graphic-a" width="264" height="537"/>
  </defs>
  <g fill="none" fill-rule="evenodd" transform="translate(0 -24)">
    <mask id="leading-section-graphic-b" fill="#fff">
      <use xlink:href="#leading-section-graphic-a"/>
    </mask>
    <g mask="url(#leading-section-graphic-b)">
      <g transform="translate(-86 24)">
        <path fill="#37B18E" d="M344.866505,229.716701 C328.260376,182.420707 276.454078,157.544519 229.156072,174.149942 C215.865488,178.814227 204.427919,186.325359 195.098952,195.668129 L195.077653,195.639731 L27.3195329,363.390713 C27.0852438,363.624992 26.822556,363.823775 26.5811672,364.058054 C-8.86038906,399.505202 -8.86038906,456.974591 26.5811672,492.414639 C62.0298231,527.861787 119.501658,527.861787 154.950314,492.414639 C155.184603,492.18036 155.390493,491.917683 155.624782,491.669206 L323.375802,323.932422 L323.347403,323.904025 C347.216496,299.993351 356.808152,263.729776 344.866505,229.716701"/>
        <path fill="#E9BC29" d="M344.850882,229.1575 C340.18661,215.86673 332.668399,204.436101 323.332755,195.107003 L323.361152,195.078604 L155.610633,27.3181398 C155.376354,27.0838474 155.177572,26.8211559 154.936194,26.5868635 C119.496244,-8.86228784 62.027013,-8.86228784 26.579963,26.5868635 C-8.85998766,62.0289151 -8.85998766,119.501553 26.579963,154.950704 C26.8213408,155.184997 27.0769174,155.37669 27.3182953,155.618083 L195.068815,323.378547 L195.090113,323.350148 C219.000721,347.219574 255.271295,356.804264 289.277177,344.869551 C336.573041,328.263189 361.456259,276.456167 344.850882,229.1575"/>
        <path fill="#559048" d="M198.310309,192.478852 L131,260.003329 L198.310309,327.52069 C222.24381,349.075294 256.853041,357.273018 289.327127,345.837478 C336.584086,329.192969 361.446836,277.266938 344.855117,229.859617 C328.263399,182.452297 276.502062,157.517555 229.245103,174.162064 C221.394953,176.923103 211.083355,183.028699 198.310309,192.478852 Z"/>
      </g>
    </g>
  </g>
</svg>
