<?xml version="1.0" encoding="UTF-8"?>
<svg width="566px" height="260px" viewBox="0 0 566 260" version="1.1" xmlns="http://www.w3.org/2000/svg" xmlns:xlink="http://www.w3.org/1999/xlink">
    <!-- Generator: Sketch 53.1 (72631) - https://sketchapp.com -->
    <title>project-illo-services</title>
    <desc>Created with Sketch.</desc>
    <g id="project-illo-services" stroke="none" stroke-width="1" fill="none" fill-rule="evenodd">
        <g id="project-services" transform="translate(83.000000, 32.000000)">
            <g id="project-services-1">
                <g id="pozadina" opacity="0.04" fill="#000000" fill-rule="nonzero">
                    <path d="M399.102919,190.439995 C399.084919,190.619995 399.057919,190.808995 399.030856,190.988995 L8.21486678,190.988995 C8.14301078,190.817995 8.06192979,190.628995 7.98086679,190.439995 L399.102919,190.439995 Z" id="Path"></path>
                    <path d="M399.435811,173.357995 C399.453811,173.546995 399.471811,173.735995 399.489865,173.915995 L3.8229749,173.915995 C3.7959749,173.735995 3.7599209,173.537995 3.7328939,173.357995 L399.435811,173.357995 Z" id="Path"></path>
                    <path d="M395.71892,156.275996 C395.781974,156.455996 395.844821,156.644996 395.90792,156.833996 L1.36577696,156.833996 L1.36577696,156.275996 L395.71892,156.275996 Z" id="Path"></path>
                    <path d="M387.096848,139.202996 C387.222965,139.382996 387.348848,139.571996 387.474992,139.760996 L0.74483098,139.760996 L0.74483098,139.202996 L387.096848,139.202996 Z" id="Path"></path>
                    <path d="M351.585378,122.677809 L2.12219994,122.677809 C2.14829994,122.486415 2.17431894,122.303841 2.20903194,122.12115 L349.489737,122.12115 C350.185491,122.312544 350.881191,122.495127 351.585378,122.677809 Z" id="Path"></path>
                    <path d="M316.549666,105.042444 C316.723537,105.225018 316.897417,105.416304 317.08,105.598887 L6.01797584,105.598887 C6.07009484,105.416304 6.13092584,105.23373 6.19185584,105.042444 L316.549666,105.042444 Z" id="Path"></path>
                    <path d="M308.784052,87.9636217 L308.784052,88.5201817 L12.5486277,88.5201817 C12.6355677,88.3288957 12.7225077,88.1462047 12.8094387,87.9636217 L308.784052,87.9636217 Z" id="Path"></path>
                    <path d="M309.01015,70.8848081 C308.992744,71.0673911 308.975329,71.2499741 308.95795,71.4413591 L22.0619244,71.4413591 C22.1836764,71.2499741 22.3054374,71.0673911 22.4270814,70.8848081 L309.01015,70.8848081 Z" id="Path"></path>
                    <path d="M309.218842,54.3625456 L35.5232061,54.3625456 L35.5232061,53.9886766 C35.5754061,53.9277466 35.6276601,53.8668166 35.6883741,53.8059766 L309.131767,53.8059766 C309.166615,53.9886766 309.192733,54.1712596 309.218842,54.3625456 Z" id="Path"></path>
                    <path d="M300.496798,37.283732 L53.1411646,37.283732 C53.3672626,37.092446 53.5933696,36.909755 53.8281706,36.727181 L299.957761,36.727181 C300.140344,36.909755 300.322927,37.101149 300.496798,37.283732 Z" id="Path"></path>
                    <path d="M271.808939,20.2049095 L78.9506439,20.2049095 C79.3073139,20.0136325 79.6637679,19.8223465 80.0203299,19.6484665 L270.295859,19.6484665 C270.800291,19.8310495 271.304516,20.0136325 271.808939,20.2049095 Z" id="Path"></path>
                    <path d="M197.406634,2.56084193 C198.971842,2.73484193 200.537116,2.92329592 202.102456,3.12620392 L130.013187,3.12620392 C131.378406,2.91740392 132.743723,2.72611793 134.117645,2.56084193 L197.406634,2.56084193 Z" id="Path"></path>
                    <path d="M0.896066976,133.747709 C1.01781897,131.964999 1.16558097,130.191 1.36556996,128.434407 L1.36556996,153.348368 C1.08734397,149.696015 0.896066976,146.191568 0.809126979,143.017493 L0.809126979,135.539015 C0.826532978,134.904227 0.861245977,134.312855 0.896066976,133.747709 Z" id="Path"></path>
                    <path d="M18.4444915,77.276293 L18.4444915,195.75832 L17.8878325,195.75832 L17.8878325,78.2328219 C18.0705235,77.9111979 18.2531065,77.5980429 18.4444915,77.276293 Z" id="Path"></path>
                    <path d="M35.5232061,54.3625456 L35.5232061,195.819142 C35.3406231,195.827845 35.1493371,195.827845 34.9667541,195.819142 L34.9667541,54.3625456 L35.5232061,54.3625456 Z" id="Path"></path>
                    <path d="M52.6020196,37.718522 L52.6020196,195.819142 L52.0454686,195.819142 L52.0454686,38.170727 C52.2280516,38.022866 52.4194366,37.866392 52.6020196,37.718522 Z" id="Path"></path>
                    <path d="M69.6808332,25.5355193 L69.6808332,195.784429 C69.4982502,195.784429 69.3069732,195.784429 69.1242822,195.793141 L69.1242822,25.8833783 C69.3069732,25.7615993 69.4982502,25.6485683 69.6808332,25.5355193 Z" id="Path"></path>
                    <path d="M86.7596557,16.3091516 L86.7596557,195.749617 L86.2030957,195.749617 L86.2030957,16.5700706 C86.3856787,16.4830316 86.5769647,16.3960916 86.7596557,16.3091516 Z" id="Path"></path>
                    <path d="M103.838469,9.50017475 L103.838469,195.706201 L103.281918,195.706201 L103.281918,9.68285674 C103.464492,9.61333175 103.647183,9.55240175 103.838469,9.50017475 Z" id="Path"></path>
                    <path d="M120.917175,4.80446087 L120.917175,195.662695 C120.734601,195.662695 120.543315,195.662695 120.360732,195.671398 L120.360732,4.91750987 C120.543297,4.88268887 120.725889,4.83929987 120.917175,4.80446087 Z" id="Path"></path>
                    <path d="M137.996096,2.11733994 L137.996096,195.636595 C137.813396,195.627883 137.622128,195.627883 137.439437,195.636595 L137.439437,2.16956694 C137.622128,2.15216094 137.813396,2.12604294 137.996096,2.11733994 Z" id="Path"></path>
                    <path d="M155.074811,0.908702976 L155.074811,195.619198 L154.518359,195.619198 L154.518359,0.926099975 C154.700942,0.917405976 154.892228,0.908702976 155.074811,0.908702976 Z" id="Path"></path>
                    <path d="M172.153732,0.795599979 L172.153732,195.619153 L171.597073,195.619153 L171.597073,0.778238979 C171.779656,0.786941979 171.962338,0.795599979 172.153732,0.795599979 Z" id="Path"></path>
                    <path d="M189.232438,1.74347095 L189.232438,195.619153 L188.675995,195.619153 L188.675995,1.69995595 C188.858578,1.70865895 189.041152,1.72606495 189.232438,1.74347095 Z" id="Path"></path>
                    <rect id="Rectangle" x="205.75471" y="3.12620392" width="1" height="192.492949"></rect>
                    <path d="M223.390074,6.64799382 L223.390074,195.619189 L222.833523,195.619189 L222.833523,6.53489983 C223.024908,6.56975683 223.207491,6.60457783 223.390074,6.64799382 Z" id="Path"></path>
                    <path d="M240.468888,10.5698607 L240.468888,195.619153 L239.912337,195.619153 L239.912337,10.4219997 C240.103623,10.4655147 240.286206,10.5177417 240.468888,10.5698607 Z" id="Path"></path>
                    <path d="M257.547701,15.4482656 L257.547701,195.619153 L256.99115,195.619153 L256.99115,15.2830976 C257.173733,15.3352166 257.365127,15.3960386 257.547701,15.4482656 Z" id="Path"></path>
                    <path d="M274.626416,21.2919024 L274.626416,195.619198 L274.069973,195.619198 L274.069973,21.0745074 C274.252547,21.1441404 274.443833,21.2136744 274.626416,21.2919024 Z" id="Path"></path>
                    <path d="M291.705337,29.9791252 L291.705337,195.619153 L291.148678,195.619153 L291.148678,29.6139682 C291.339964,29.7269092 291.522592,29.8574992 291.705337,29.9791252 Z" id="Path"></path>
                    <path d="M308.784052,52.0059856 L308.784052,195.619153 L308.2276,195.619153 L308.2276,49.8668207 C308.445004,50.5711337 308.627578,51.2841496 308.784052,52.0059856 Z" id="Path"></path>
                    <path d="M325.862991,112.494804 L325.862991,195.619153 L325.306332,195.619153 L325.306332,112.146945 C325.488888,112.260102 325.671471,112.381755 325.862991,112.494804 Z" id="Path"></path>
                    <path d="M342.950391,120.190677 L342.950391,195.619153 L342.385245,195.619153 L342.385245,119.9994 C342.56781,120.068997 342.759096,120.129855 342.950391,120.190677 Z" id="Path"></path>
                    <path d="M360.029303,124.756044 L360.029303,195.619153 L359.472644,195.619153 L359.472644,124.625697 C359.655227,124.669104 359.83781,124.712628 360.029303,124.756044 Z" id="Path"></path>
                    <path d="M377.108018,129.164937 L377.108018,195.619135 L376.542656,195.619135 L376.542656,128.999769 C376.734149,129.051897 376.916732,129.11271 377.108018,129.164937 Z" id="Path"></path>
                    <path d="M393.630857,150.965996 C393.819857,151.397996 394.008785,151.820996 394.188956,152.252996 L394.188956,195.614995 L393.630857,195.614995 L393.630857,150.965996 Z" id="Path"></path>
                </g>
                <rect id="Rectangle" stroke="#313D3F" stroke-width="1.07999997" fill="#FFFFFF" fill-rule="nonzero" x="328.115085" y="144.221936" width="45.9388338" height="39.6690559"></rect>
                <circle id="Oval" fill="#5CC7DC" fill-rule="nonzero" cx="332.397267" cy="148.076285" r="1.14058797"></circle>
                <circle id="Oval" fill="#5CC7DC" fill-rule="nonzero" cx="341.697444" cy="148.076285" r="1.14058797"></circle>
                <circle id="Oval" fill="#5CC7DC" fill-rule="nonzero" cx="350.997621" cy="148.076285" r="1.14058797"></circle>
                <circle id="Oval" fill="#5CC7DC" fill-rule="nonzero" cx="360.297797" cy="148.076285" r="1.14058797"></circle>
                <circle id="Oval" fill="#5CC7DC" fill-rule="nonzero" cx="369.597974" cy="148.076285" r="1.14058797"></circle>
                <circle id="Oval" fill="#5CC7DC" fill-rule="nonzero" cx="332.397267" cy="154.393385" r="1.14058797"></circle>
                <circle id="Oval" fill="#5CC7DC" fill-rule="nonzero" cx="332.397267" cy="160.535012" r="1.14058797"></circle>
                <circle id="Oval" fill="#5CC7DC" fill-rule="nonzero" cx="341.697444" cy="154.393385" r="1.14058797"></circle>
                <circle id="Oval" fill="#5CC7DC" fill-rule="nonzero" cx="341.697444" cy="160.535012" r="1.14058797"></circle>
                <circle id="Oval" fill="#5CC7DC" fill-rule="nonzero" cx="350.997621" cy="154.393385" r="1.14058797"></circle>
                <circle id="Oval" fill="#5CC7DC" fill-rule="nonzero" cx="350.997621" cy="160.535012" r="1.14058797"></circle>
                <circle id="Oval" fill="#5CC7DC" fill-rule="nonzero" cx="360.297797" cy="154.393385" r="1.14058797"></circle>
                <circle id="Oval" fill="#5CC7DC" fill-rule="nonzero" cx="360.297797" cy="160.535012" r="1.14058797"></circle>
                <circle id="Oval" fill="#5CC7DC" fill-rule="nonzero" cx="369.597974" cy="154.393385" r="1.14058797"></circle>
                <circle id="Oval" fill="#5CC7DC" fill-rule="nonzero" cx="369.597974" cy="160.535012" r="1.14058797"></circle>
                <circle id="Oval" fill="#5CC7DC" fill-rule="nonzero" cx="332.397267" cy="166.822862" r="1.14058797"></circle>
                <circle id="Oval" fill="#5CC7DC" fill-rule="nonzero" cx="332.397267" cy="172.964488" r="1.14058797"></circle>
                <circle id="Oval" fill="#5CC7DC" fill-rule="nonzero" cx="341.697444" cy="166.822862" r="1.14058797"></circle>
                <circle id="Oval" fill="#5CC7DC" fill-rule="nonzero" cx="341.697444" cy="172.964488" r="1.14058797"></circle>
                <circle id="Oval" fill="#5CC7DC" fill-rule="nonzero" cx="350.997621" cy="166.822862" r="1.14058797"></circle>
                <circle id="Oval" fill="#5CC7DC" fill-rule="nonzero" cx="350.997621" cy="172.964488" r="1.14058797"></circle>
                <circle id="Oval" fill="#5CC7DC" fill-rule="nonzero" cx="360.297797" cy="166.822862" r="1.14058797"></circle>
                <circle id="Oval" fill="#5CC7DC" fill-rule="nonzero" cx="360.297797" cy="172.964488" r="1.14058797"></circle>
                <circle id="Oval" fill="#5CC7DC" fill-rule="nonzero" cx="369.597974" cy="166.822862" r="1.14058797"></circle>
                <circle id="Oval" fill="#5CC7DC" fill-rule="nonzero" cx="369.597974" cy="172.964488" r="1.14058797"></circle>
                <circle id="Oval" fill="#5CC7DC" fill-rule="nonzero" cx="332.397267" cy="179.983489" r="1.14058797"></circle>
                <circle id="Oval" fill="#5CC7DC" fill-rule="nonzero" cx="341.697444" cy="179.983489" r="1.14058797"></circle>
                <circle id="Oval" fill="#5CC7DC" fill-rule="nonzero" cx="350.997621" cy="179.983489" r="1.14058797"></circle>
                <circle id="Oval" fill="#5CC7DC" fill-rule="nonzero" cx="360.297797" cy="179.983489" r="1.14058797"></circle>
                <circle id="Oval" fill="#5CC7DC" fill-rule="nonzero" cx="369.597974" cy="179.983489" r="1.14058797"></circle>
                <path d="M311.391889,51.9000016 L302.971417,57.9347355 C302.926827,57.9666925 302.86811,57.971027 302.819311,57.9459639 C302.770512,57.9209008 302.73983,57.8706501 302.739829,57.8157915 L302.739829,45.7463058 C302.73983,45.6914471 302.770512,45.6411964 302.819311,45.6161333 C302.86811,45.5910702 302.926827,45.5954048 302.971417,45.6273618 L311.391889,51.6621046 C311.430238,51.6895874 311.452984,51.7338733 311.452984,51.7810531 C311.452984,51.828233 311.430238,51.8725188 311.391889,51.9000016 L311.391889,51.9000016 Z" id="Path" stroke="#F06D6E" stroke-width="1.43999996"></path>
                <path d="M59.6504653,38.052368 L42.1726008,50.5783067 C42.0800485,50.6446357 41.9581728,50.653631 41.8568854,50.6016086 C41.755598,50.5495862 41.6919128,50.4452847 41.6919108,50.3314187 L41.6919108,25.2795323 C41.6919094,25.1656647 41.7555933,25.0613601 41.8568814,25.0093355 C41.9581695,24.9573109 42.0800472,24.9663053 42.1726008,25.0326353 L59.6504653,37.558583 C59.7300656,37.6156254 59.7772807,37.7075468 59.7772807,37.8054755 C59.7772807,37.9034042 59.7300656,37.9953256 59.6504653,38.052368 L59.6504653,38.052368 Z" id="Path" stroke="#B4B4B4" stroke-width="1.50925496" opacity="0.3"></path>
                <path d="M139.370753,61.9543874 L129.63782,68.9297382 C129.492063,69.0341943 129.300128,69.0483612 129.140614,68.9664376 C128.9811,68.8845139 128.880799,68.7202598 128.880786,68.5409382 L128.880786,54.5902186 C128.880799,54.410897 128.9811,54.2466428 129.140614,54.1647192 C129.300128,54.0827955 129.492063,54.0969625 129.63782,54.2014186 L139.370753,61.1767694 C139.496095,61.2666092 139.570439,61.4113648 139.570439,61.5655784 C139.570439,61.7197919 139.496095,61.8645475 139.370753,61.9543874 Z" id="Path" fill="#BDE8F0" fill-rule="nonzero"></path>
                <path d="M169.851421,182.090992 L307.119517,182.090992" id="Path" stroke="#313D3F" stroke-width="1.07999997"></path>
                <polyline id="Path" stroke="#313D3F" stroke-width="1.07999997" points="302.392492 174.785395 306.919492 182.090695 302.392492 189.395995"></polyline>
                <polyline id="Path" stroke="#313D3F" stroke-width="1.07999997" points="204.738894 149.932796 200.040895 157.767296 190.934695 157.046396"></polyline>
                <polyline id="Path" stroke="#313D3F" stroke-width="1.07999997" points="266.207093 41.0417989 262.309193 49.3037987 253.176893 49.4909987"></polyline>
                <path d="M199.725373,157.293896 C187.601343,137.284517 190.497996,111.615445 206.776302,94.8111574 C223.054608,78.0068699 248.618622,74.2956599 269.00331,85.7774627 C289.387999,97.2592654 299.464169,121.045032 293.530365,143.675924 C287.59656,166.306816 267.145843,182.088453 243.74996,182.091019" id="Path" stroke="#313D3F" stroke-width="1.07999997"></path>
                <path d="M212.606082,89.4662346 C202.313572,81.0882865 198.116907,67.313465 201.989722,54.6198803 C205.862537,41.9262955 217.03404,32.8403051 230.250426,31.6349259 C243.466812,30.4295467 256.097672,37.344681 262.202885,49.1282357" id="Path" stroke="#313D3F" stroke-width="1.23155097"></path>
                <rect id="Rectangle" fill="#36B998" fill-rule="nonzero" x="107.730867" y="143.017682" width="45.9449898" height="39.6720169"></rect>
                <polygon id="Path" fill="#313D3F" fill-rule="nonzero" points="122.868597 143.018096 107.730597 158.156096 107.730597 156.626096 121.338597 143.018096"></polygon>
                <polygon id="Path" fill="#313D3F" fill-rule="nonzero" points="138.006596 143.018096 107.730597 173.303095 107.730597 171.773095 136.476596 143.018096"></polygon>
                <polygon id="Path" fill="#313D3F" fill-rule="nonzero" points="153.144596 143.018096 113.472597 182.690095 111.942597 182.690095 151.614596 143.018096"></polygon>
                <polygon id="Path" fill="#313D3F" fill-rule="nonzero" points="153.675596 156.104096 153.675596 157.625096 128.610597 182.690095 127.080597 182.690095"></polygon>
                <polygon id="Path" fill="#313D3F" fill-rule="nonzero" points="153.675596 171.125095 153.675596 172.655095 143.640596 182.690095 142.110596 182.690095"></polygon>
                <text id="SPRINT" fill="#D3D3D3" font-family="Calibre-Regular, Calibre" font-size="11.1851097" font-weight="normal">
                    <tspan x="108.400881" y="115.416931">SPRINT</tspan>
                </text>
                <rect id="Rectangle" fill="#F16D6E" fill-rule="nonzero" x="39.6349249" y="173.263549" width="45.9388338" height="9.42614075"></rect>
                <rect id="Rectangle" fill="#EEBF1B" fill-rule="nonzero" x="39.6349249" y="158.787167" width="45.9388338" height="9.42614075"></rect>
                <rect id="Rectangle" fill="#F16D6E" fill-rule="nonzero" x="39.6349249" y="144.310784" width="45.9388338" height="9.42614075"></rect>
                <rect id="Rectangle" fill="#EEBF1B" fill-rule="nonzero" x="39.6349249" y="129.834402" width="45.9388338" height="9.42614075"></rect>
                <g id="Group" transform="translate(39.635042, 108.038013)" fill="#D3D3D3" font-family="Calibre-Regular, Calibre" font-size="11.1851097" font-weight="normal">
                    <text id="B">
                        <tspan x="0" y="7">B</tspan>
                    </text>
                    <text id="A">
                        <tspan x="5.90580884" y="7">A</tspan>
                    </text>
                    <text id="CK">
                        <tspan x="12.3481887" y="7">CK</tspan>
                    </text>
                    <text id="L">
                        <tspan x="25.2114293" y="7">L</tspan>
                    </text>
                    <text id="O">
                        <tspan x="30.4905772" y="7">O</tspan>
                    </text>
                    <text id="G">
                        <tspan x="37.581587" y="7">G</tspan>
                    </text>
                </g>
                <g id="Group" transform="translate(203.960179, 8.512650)" fill="#D3D3D3" font-family="Calibre-Regular, Calibre" font-size="11.1851097" font-weight="normal">
                    <text id="D">
                        <tspan x="0" y="7">D</tspan>
                    </text>
                    <text id="AI">
                        <tspan x="6.54345883" y="7">AI</tspan>
                    </text>
                    <text id="L">
                        <tspan x="15.7262666" y="7">L</tspan>
                    </text>
                    <text id="Y-SC">
                        <tspan x="20.4688435" y="7">Y SC</tspan>
                    </text>
                    <text id="R">
                        <tspan x="41.4180169" y="7">R</tspan>
                    </text>
                    <text id="UM">
                        <tspan x="47.5699217" y="7">UM</tspan>
                    </text>
                </g>
                <text id="DELIVERABLES" fill="#D3D3D3" font-family="Calibre-Regular, Calibre" font-size="11.1851097" font-weight="normal">
                    <tspan x="315.465253" y="109.180975">DELIVERABLES</tspan>
                </text>
                <circle id="Oval" fill="#36B998" fill-rule="nonzero" cx="349.925703" cy="74.992768" r="2.23934394"></circle>
            </g>
        </g>
    </g>
</svg>