<?xml version="1.0" encoding="UTF-8"?>
<svg width="1927px" height="576px" viewBox="0 0 1927 576" version="1.1" xmlns="http://www.w3.org/2000/svg" xmlns:xlink="http://www.w3.org/1999/xlink">
    <!-- Generator: Sketch 53.1 (72631) - https://sketchapp.com -->
    <title>img-header-homepage.cf090fe02d8bd88b0d8d6fe9d0abe110</title>
    <desc>Created with Sketch.</desc>
    <g id="Page-1" stroke="none" stroke-width="1" fill="none" fill-rule="evenodd">
        <g id="img-header-homepage.cf090fe02d8bd88b0d8d6fe9d0abe110">
            <g id="Group-50" transform="translate(877.000000, 84.000000)">
                <path d="M241.8962,342.6619 L237.2452,341.4049 L255.8512,346.4329 C279.1362,352.7239 287.5632,328.4139 276.0902,326.9439 L262.1352,323.1739 L280.7432,328.2009 C309.1732,334.2539 316.6932,307.9679 302.2392,304.0609 L251.0702,290.2359 C231.8102,285.0319 224.6982,295.4739 221.5272,307.2099 L206.4452,363.0309 L220.4002,366.8019 C246.3422,373.8099 256.5142,348.3049 241.8962,342.6619" id="Fill-14" fill="#4B7AAD" fill-rule="nonzero"></path>
                <g id="Fill-16" transform="translate(83.000000, 308.000000)">
                    <g id="path-3-link" fill="#000000" fill-rule="nonzero">
                        <path d="M134.4587,78.701 C133.6707,87.427 127.3207,92.571 118.7617,91.799 L13.1837,82.267 C4.6297,81.496 -0.7013,75.296 0.0867,66.571 L4.8527,13.782 C5.6397,5.057 11.9897,-0.088 20.5487,0.684 L126.1267,10.216 C134.6807,10.988 140.0117,17.187 139.2247,25.913 L134.4587,78.701 Z" id="path-3"></path>
                    </g>
                    <g id="path-3-link" fill="#FFFFFF">
                        <path d="M134.4587,78.701 C133.6707,87.427 127.3207,92.571 118.7617,91.799 L13.1837,82.267 C4.6297,81.496 -0.7013,75.296 0.0867,66.571 L4.8527,13.782 C5.6397,5.057 11.9897,-0.088 20.5487,0.684 L126.1267,10.216 C134.6807,10.988 140.0117,17.187 139.2247,25.913 L134.4587,78.701 Z" id="path-3"></path>
                    </g>
                </g>
                <path d="M188.1979,335.6785 C188.4589,332.7865 190.5419,331.0525 193.4299,331.3135 L203.0279,332.1795 C205.9199,332.4405 207.6539,334.5245 207.3929,337.4115 L206.5269,347.0095 C206.2659,349.9025 204.1829,351.6365 201.2949,351.3755 L191.6969,350.5095 C188.8039,350.2475 187.0699,348.1645 187.3309,345.2775 L188.1979,335.6785 Z" id="Fill-18" fill="#9FBDDE" fill-rule="nonzero"></path>
                <path d="M127.5768,364.073 C137.1198,368.819 141.2738,370.147 151.1388,371.038 C161.0038,371.928 166.0198,371.078 175.5668,368.405" id="Stroke-20" stroke="#9FBDDE" stroke-width="7" stroke-linecap="round"></path>
                <path d="M60.9216,326.6092 L65.7336,326.3702 L46.4836,327.3272 C22.3936,328.5242 19.3276,302.9792 30.8506,303.9822 L45.2876,303.2642 L26.0376,304.2212 C-3.0304,304.0902 -4.7904,276.8062 10.1646,276.0632 L63.1036,273.4322 C83.0286,272.4412 87.7586,284.1572 88.3616,296.2982 L91.2326,354.0492 L76.7946,354.7672 C49.9546,356.1012 45.4386,329.0152 60.9216,326.6092" id="Fill-22" fill="#4B7AAD" fill-rule="nonzero"></path>
                <path d="M706.6549,54.1951 L702.9999,55.4471 L717.6209,50.4391 C735.9199,44.1721 730.6109,24.2341 722.3269,28.4061 L711.3609,32.1621 L725.9819,27.1541 C747.5929,18.4181 740.7959,-2.4259 729.4359,1.4651 L689.2269,15.2371 C674.0919,20.4221 674.0509,30.5521 677.2099,39.7751 L692.2339,83.6401 L703.2009,79.8831 C723.5879,72.9011 718.9019,51.3851 706.6549,54.1951" id="Fill-24" fill="#4B7AAD" fill-rule="nonzero"></path>
                <g id="Fill-26" transform="translate(593.000000, 50.000000)">
                    <g id="path-5-link" fill="#000000" fill-rule="nonzero">
                        <path d="M117.1754,44.4295 C120.5674,50.5805 118.6554,56.8505 112.6204,60.1775 L38.1784,101.2185 C32.1474,104.5435 25.8214,102.8165 22.4304,96.6635 L1.9094,59.4435 C-1.4816,53.2905 0.4294,47.0225 6.4644,43.6955 L80.9064,2.6535 C86.9384,-0.6715 93.2634,1.0565 96.6544,7.2075 L117.1754,44.4295 Z" id="path-5"></path>
                    </g>
                    <g id="path-5-link" fill="#FFFFFF">
                        <path d="M117.1754,44.4295 C120.5674,50.5805 118.6554,56.8505 112.6204,60.1775 L38.1784,101.2185 C32.1474,104.5435 25.8214,102.8165 22.4304,96.6635 L1.9094,59.4435 C-1.4816,53.2905 0.4294,47.0225 6.4644,43.6955 L80.9064,2.6535 C86.9384,-0.6715 93.2634,1.0565 96.6544,7.2075 L117.1754,44.4295 Z" id="path-5"></path>
                    </g>
                </g>
                <path d="M667.8336,73.6502 C666.7096,71.6112 667.3156,69.5242 669.3526,68.4012 L676.1196,64.6712 C678.1586,63.5462 680.2466,64.1522 681.3686,66.1882 L685.1006,72.9562 C686.2246,74.9952 685.6176,77.0832 683.5816,78.2052 L676.8136,81.9362 C674.7746,83.0602 672.6876,82.4542 671.5646,80.4182 L667.8336,73.6502 Z" id="Fill-28" fill="#9FBDDE" fill-rule="nonzero"></path>
                <path d="M640.2877,119.7234 C648.7597,118.5954 652.1167,117.6144 659.0717,113.7794 C666.0277,109.9444 668.9797,107.1274 674.1257,101.0684" id="Stroke-30" stroke="#9FBDDE" stroke-width="7" stroke-linecap="round"></path>
                <path d="M577.1852,126.0818 L580.2762,123.7638 L567.9122,133.0368 C552.4392,144.6438 538.9382,129.0418 547.0462,124.5378 L556.3192,117.5818 L543.9562,126.8558 C524.5792,139.8128 511.1652,122.4698 520.7712,115.2658 L554.7722,89.7618 C567.5712,80.1618 575.9702,85.8258 581.8202,93.6248 L609.6422,130.7168 L600.3692,137.6728 C583.1302,150.6028 567.9742,134.6288 577.1852,126.0818" id="Fill-32" fill="#4B7AAD" fill-rule="nonzero"></path>
                <g id="Fill-34" transform="translate(269.000000, 147.000000)">
                    <g id="path-7-link" fill="#000000" fill-rule="nonzero">
                        <path d="M91.3972,115.8426 C87.0242,114.9496 82.8082,113.4216 78.8772,111.3086 L5.2102,71.7026 C1.0732,69.4316 -0.4408,64.2356 1.8322,60.0966 L34.6232,0.3676 L133.2422,54.5096 L106.1212,118.7676 C100.8682,117.7596 95.4582,116.6716 91.3972,115.8426" id="path-7"></path>
                    </g>
                    <g id="path-7-link" fill="#E6D6AC">
                        <path d="M91.3972,115.8426 C87.0242,114.9496 82.8082,113.4216 78.8772,111.3086 L5.2102,71.7026 C1.0732,69.4316 -0.4408,64.2356 1.8322,60.0966 L34.6232,0.3676 L133.2422,54.5096 L106.1212,118.7676 C100.8682,117.7596 95.4582,116.6716 91.3972,115.8426" id="path-7"></path>
                    </g>
                </g>
                <path d="M352.1169,132.6121 L328.9739,119.9071 C320.5389,115.2761 309.9459,118.3601 305.3149,126.7961 L293.0239,149.1831 C291.3209,152.2841 292.4549,156.1781 295.5559,157.8811 L328.3579,175.8881 L352.1169,132.6121 Z" id="Fill-36" fill="#E6D6AC" fill-rule="nonzero"></path>
                <path d="M371.4089,264.7215 L287.8239,218.8335 C285.7869,217.7155 285.0429,215.1575 286.1609,213.1195 L319.2189,152.9055 L413.9849,204.9305 L383.0149,261.3415 C380.7439,265.4805 375.5469,266.9925 371.4089,264.7215" id="Fill-38" fill="#F2E7C8" fill-rule="nonzero"></path>
                <polygon id="Fill-40" fill="#E6D6AC" fill-rule="nonzero" points="405.8209 219.8006 309.6189 166.9866 325.5819 137.9086 421.7849 190.7236"></polygon>
                <path d="M415.9078,209.4002 L317.5218,155.3872 C315.5358,154.2962 314.8088,151.8012 315.8998,149.8152 L325.5618,132.2142 C328.8858,126.1632 336.4848,123.9502 342.5378,127.2722 L427.7108,174.0322 C433.7628,177.3552 435.9758,184.9552 432.6528,191.0072 L423.8198,207.0962 C422.2708,209.9182 418.7288,210.9492 415.9078,209.4002" id="Fill-42" fill="#F2E7C8" fill-rule="nonzero"></path>
                <path d="M359.4597,220.0916 L338.5007,208.5846 C334.0577,206.1456 332.4327,200.5656 334.8717,196.1216 L336.6187,192.9406 L373.6697,213.2806 L371.9227,216.4626 C369.4827,220.9056 363.9027,222.5306 359.4597,220.0916" id="Fill-44" fill="#E6D6AC" fill-rule="nonzero"></path>
                <g id="Fill-46" transform="translate(442.000000, 395.000000)">
                    <g id="path-9-link" fill="#000000" fill-rule="nonzero">
                        <path d="M0.4166,65.0691 L79.5146,0.0191 L97.8966,22.3721 L100.8176,25.9231 C107.4226,33.9551 119.2876,35.1111 127.3186,28.5061 L49.6886,92.3481 C40.8466,99.6201 27.7836,98.3461 20.5116,89.5051 L0.4166,65.0691 Z" id="path-9"></path>
                    </g>
                    <g id="path-9-link" fill="#E6D6AC">
                        <path d="M0.4166,65.0691 L79.5146,0.0191 L97.8966,22.3721 L100.8176,25.9231 C107.4226,33.9551 119.2876,35.1111 127.3186,28.5061 L49.6886,92.3481 C40.8466,99.6201 27.7836,98.3461 20.5116,89.5051 L0.4166,65.0691 Z" id="path-9"></path>
                    </g>
                </g>
                <g id="Fill-48" transform="translate(416.000000, 284.000000)">
                    <g id="path-11-link" fill="#000000" fill-rule="nonzero">
                        <path d="M158.3727,92.4324 C170.0007,106.5724 167.9657,127.4604 153.8257,139.0894 L90.9597,190.7894 L75.6887,203.3484 C82.8987,197.4184 83.9367,186.7674 78.0077,179.5574 L5.8107,91.7674 C-1.6173,82.7364 -0.3163,69.3944 8.7147,61.9664 L83.0457,0.8374 L158.3727,92.4324 Z" id="path-11"></path>
                    </g>
                    <g id="path-11-link" fill="#FFFFFF">
                        <path d="M158.3727,92.4324 C170.0007,106.5724 167.9657,127.4604 153.8257,139.0894 L90.9597,190.7894 L75.6887,203.3484 C82.8987,197.4184 83.9367,186.7674 78.0077,179.5574 L5.8107,91.7674 C-1.6173,82.7364 -0.3163,69.3944 8.7147,61.9664 L83.0457,0.8374 L158.3727,92.4324 Z" id="path-11"></path>
                    </g>
                </g>
            </g>
            <g id="Page-1" fill="#E0EAF7" fill-rule="nonzero">
                <path d="M1242.5078,531.3877 C1241.2748,531.3877 1240.0778,530.7347 1239.4408,529.5767 C1238.5068,527.8847 1239.1218,525.7557 1240.8148,524.8227 C1243.6548,523.2547 1246.5758,521.6167 1249.4948,519.9537 C1251.1728,518.9957 1253.3108,519.5817 1254.2688,521.2627 C1255.2258,522.9427 1254.6398,525.0787 1252.9598,526.0357 C1250.0138,527.7147 1247.0648,529.3687 1244.1948,530.9507 C1243.6588,531.2467 1243.0798,531.3877 1242.5078,531.3877" id="Fill-1"></path>
                <path d="M3.5019,321.1709 C2.0879,321.1709 0.7559,320.3079 0.2269,318.9059 C-0.4561,317.0979 0.4559,315.0789 2.2649,314.3959 C2.4009,314.3439 5.6999,313.1009 11.8049,311.0299 C13.6339,310.4089 15.6229,311.3909 16.2429,313.2209 C16.8639,315.0509 15.8839,317.0379 14.0529,317.6589 C8.0759,319.6869 4.7709,320.9319 4.7369,320.9439 C4.3299,321.0979 3.9119,321.1709 3.5019,321.1709" id="Fill-6"></path>
                <path d="M20.2285,210.376 C19.2495,210.376 18.2765,209.968 17.5845,209.172 C11.8175,202.534 7.3055,197.311 4.4265,193.971 C3.1655,192.507 3.3295,190.297 4.7925,189.034 C6.2585,187.773 8.4685,187.939 9.7295,189.4 C12.6045,192.736 17.1105,197.952 22.8685,204.58 C24.1365,206.04 23.9815,208.25 22.5225,209.519 C21.8595,210.094 21.0415,210.376 20.2285,210.376 L20.2285,210.376 Z M50.6075,245.079 C49.6385,245.079 48.6735,244.679 47.9815,243.895 C43.3315,238.622 38.8955,233.575 34.7385,228.831 C33.4635,227.378 33.6095,225.166 35.0635,223.893 C36.5165,222.621 38.7285,222.763 40.0015,224.218 C44.1555,228.956 48.5845,233.997 53.2315,239.264 C54.5095,240.714 54.3715,242.925 52.9215,244.204 C52.2565,244.791 51.4305,245.079 50.6075,245.079 L50.6075,245.079 Z M81.2475,279.517 C80.2885,279.517 79.3335,279.125 78.6415,278.355 C74.1045,273.303 69.6335,268.302 65.2715,263.401 C63.9865,261.958 64.1145,259.745 65.5585,258.46 C67.0015,257.175 69.2145,257.302 70.4995,258.747 C74.8555,263.64 79.3195,268.633 83.8505,273.678 C85.1415,275.116 85.0225,277.329 83.5845,278.621 C82.9165,279.221 82.0805,279.517 81.2475,279.517 L81.2475,279.517 Z M112.2275,313.628 C111.2825,313.628 110.3405,313.248 109.6515,312.498 C105.1465,307.603 100.6235,302.654 96.1165,297.698 C94.8165,296.269 94.9205,294.055 96.3515,292.754 C97.7825,291.453 99.9945,291.559 101.2955,292.989 C105.7925,297.936 110.3065,302.872 114.8015,307.758 C116.1115,309.181 116.0185,311.395 114.5965,312.703 C113.9235,313.322 113.0745,313.628 112.2275,313.628 L112.2275,313.628 Z M143.7375,347.25 C142.8175,347.25 141.8985,346.889 141.2105,346.172 C136.8345,341.607 132.1865,336.704 127.3945,331.6 C126.0715,330.19 126.1415,327.976 127.5505,326.652 C128.9605,325.328 131.1755,325.398 132.4985,326.809 C137.2735,331.896 141.9055,336.781 146.2635,341.328 C147.6015,342.724 147.5545,344.939 146.1595,346.276 C145.4805,346.927 144.6085,347.25 143.7375,347.25 L143.7375,347.25 Z M176.3105,379.867 C175.4505,379.867 174.5875,379.552 173.9125,378.915 C169.5625,374.818 164.7045,370.089 159.4735,364.857 C158.1065,363.491 158.1065,361.274 159.4735,359.908 C160.8405,358.541 163.0555,358.541 164.4225,359.908 C169.6045,365.09 174.4125,369.771 178.7105,373.819 C180.1185,375.145 180.1845,377.359 178.8595,378.767 C178.1705,379.498 177.2425,379.867 176.3105,379.867 L176.3105,379.867 Z M211.8515,409.126 C211.1165,409.126 210.3755,408.896 209.7445,408.418 C204.4735,404.434 199.1275,400.309 193.8575,396.158 C192.3385,394.962 192.0775,392.762 193.2725,391.243 C194.4685,389.724 196.6685,389.464 198.1875,390.658 C203.4225,394.78 208.7315,398.877 213.9645,402.834 C215.5065,404 215.8125,406.194 214.6465,407.736 C213.9575,408.647 212.9115,409.126 211.8515,409.126 L211.8515,409.126 Z M249.1715,435.993 C248.4915,435.993 247.8025,435.795 247.1985,435.382 C241.7135,431.63 236.1815,427.759 230.7555,423.877 C229.1835,422.752 228.8205,420.565 229.9455,418.994 C231.0705,417.421 233.2545,417.059 234.8285,418.184 C240.2145,422.037 245.7065,425.88 251.1515,429.605 C252.7465,430.696 253.1555,432.874 252.0635,434.47 C251.3855,435.46 250.2885,435.993 249.1715,435.993 L249.1715,435.993 Z M287.7655,460.997 C287.1425,460.997 286.5115,460.831 285.9415,460.482 C280.3005,457.03 274.5805,453.439 268.9395,449.811 C267.3135,448.765 266.8435,446.6 267.8895,444.974 C268.9355,443.348 271.1005,442.877 272.7265,443.924 C278.3235,447.524 283.9995,451.087 289.5955,454.512 C291.2445,455.521 291.7625,457.676 290.7535,459.324 C290.0935,460.402 288.9435,460.997 287.7655,460.997 L287.7655,460.997 Z M327.6155,483.948 C327.0535,483.948 326.4835,483.813 325.9555,483.526 C320.1265,480.379 314.2225,477.097 308.4045,473.772 C306.7255,472.813 306.1425,470.675 307.1015,468.997 C308.0615,467.317 310.1995,466.737 311.8765,467.694 C317.6475,470.992 323.5025,474.246 329.2815,477.368 C330.9825,478.286 331.6165,480.41 330.6975,482.11 C330.0645,483.282 328.8595,483.948 327.6155,483.948 L327.6155,483.948 Z M368.6785,504.646 C368.1815,504.646 367.6765,504.539 367.1965,504.314 C361.2045,501.508 355.1215,498.565 349.1175,495.566 C347.3875,494.703 346.6855,492.602 347.5485,490.872 C348.4135,489.144 350.5165,488.443 352.2445,489.305 C358.1965,492.276 364.2255,495.193 370.1655,497.975 C371.9155,498.795 372.6695,500.878 371.8505,502.629 C371.2545,503.899 369.9945,504.646 368.6785,504.646 L368.6785,504.646 Z M410.8915,522.889 C410.4625,522.889 410.0265,522.81 409.6025,522.642 C403.4375,520.197 397.1875,517.623 391.0285,514.988 C389.2505,514.229 388.4255,512.172 389.1865,510.395 C389.9465,508.619 392.0045,507.794 393.7805,508.553 C399.8825,511.162 406.0745,513.713 412.1825,516.134 C413.9795,516.847 414.8585,518.88 414.1465,520.678 C413.6015,522.051 412.2845,522.889 410.8915,522.889 L410.8915,522.889 Z M884.9575,527.375 C883.6025,527.375 882.3135,526.585 881.7425,525.263 C880.9755,523.488 881.7915,521.429 883.5665,520.661 C895.0815,515.684 901.3305,512.281 901.3925,512.248 C903.0865,511.319 905.2145,511.944 906.1425,513.639 C907.0705,515.334 906.4485,517.46 904.7525,518.389 C904.4915,518.532 898.1945,521.964 886.3435,527.087 C885.8915,527.282 885.4195,527.375 884.9575,527.375 L884.9575,527.375 Z M454.1545,538.479 C453.7955,538.479 453.4315,538.423 453.0735,538.307 C446.7555,536.256 440.3555,534.079 434.0485,531.835 C432.2275,531.187 431.2775,529.185 431.9245,527.363 C432.5735,525.544 434.5745,524.593 436.3965,525.239 C442.6405,527.462 448.9785,529.618 455.2335,531.648 C457.0725,532.245 458.0795,534.22 457.4825,536.058 C457.0015,537.537 455.6295,538.479 454.1545,538.479 L454.1545,538.479 Z M841.8305,543.417 C840.3485,543.417 838.9725,542.469 838.4975,540.982 C837.9085,539.141 838.9235,537.171 840.7645,536.582 C847.1275,534.547 853.4565,532.388 859.5725,530.165 C861.3845,529.505 863.3955,530.44 864.0565,532.259 C864.7175,534.075 863.7805,536.083 861.9625,536.743 C855.7615,538.998 849.3465,541.187 842.8975,543.25 C842.5425,543.363 842.1835,543.417 841.8305,543.417 L841.8305,543.417 Z M498.3375,551.23 C498.0535,551.23 497.7645,551.195 497.4775,551.123 C491.0275,549.492 484.4965,547.739 478.0655,545.912 C476.2055,545.384 475.1265,543.448 475.6545,541.589 C476.1835,539.728 478.1245,538.65 479.9775,539.178 C486.3445,540.986 492.8095,542.723 499.1925,544.336 C501.0665,544.811 502.2025,546.714 501.7285,548.587 C501.3275,550.174 499.9025,551.23 498.3375,551.23 L498.3375,551.23 Z M797.4685,555.611 C795.8765,555.611 794.4375,554.519 794.0625,552.902 C793.6245,551.02 794.7965,549.139 796.6795,548.701 C803.1485,547.199 809.6385,545.574 815.9685,543.871 C817.8395,543.369 819.7555,544.475 820.2575,546.342 C820.7595,548.209 819.6535,550.129 817.7875,550.631 C811.3785,552.355 804.8105,553.999 798.2635,555.52 C797.9975,555.581 797.7305,555.611 797.4685,555.611 L797.4685,555.611 Z M543.2795,560.98 C543.0725,560.98 542.8625,560.962 542.6515,560.924 C536.1005,559.736 529.4635,558.431 522.9265,557.042 C521.0365,556.64 519.8295,554.781 520.2305,552.891 C520.6325,551 522.4935,549.801 524.3815,550.194 C530.8505,551.569 537.4165,552.861 543.8995,554.035 C545.8005,554.38 547.0635,556.201 546.7195,558.104 C546.4135,559.795 544.9395,560.98 543.2795,560.98 L543.2795,560.98 Z M752.2935,564.284 C750.5935,564.284 749.1025,563.044 748.8375,561.313 C748.5455,559.401 749.8585,557.615 751.7685,557.323 C758.3185,556.322 764.9155,555.202 771.3765,553.996 C773.2765,553.63 775.1055,554.894 775.4595,556.794 C775.8145,558.694 774.5625,560.522 772.6625,560.877 C766.1255,562.098 759.4525,563.23 752.8275,564.243 C752.6475,564.271 752.4695,564.284 752.2935,564.284 L752.2935,564.284 Z M588.7895,567.588 C588.6625,567.588 588.5345,567.581 588.4055,567.567 C581.7835,566.844 575.0715,566.005 568.4545,565.074 C566.5405,564.805 565.2065,563.035 565.4755,561.121 C565.7445,559.207 567.5165,557.866 569.4285,558.143 C575.9745,559.063 582.6155,559.893 589.1655,560.608 C591.0865,560.818 592.4745,562.547 592.2645,564.468 C592.0685,566.261 590.5515,567.588 588.7895,567.588 L588.7895,567.588 Z M706.5975,569.527 C704.7875,569.527 703.2535,568.133 703.1125,566.297 C702.9625,564.37 704.4045,562.687 706.3325,562.538 C712.9205,562.028 719.5825,561.405 726.1345,560.686 C728.0505,560.482 729.7845,561.861 729.9965,563.783 C730.2075,565.704 728.8205,567.434 726.8985,567.645 C720.2735,568.372 713.5355,569.002 706.8715,569.517 C706.7795,569.524 706.6885,569.527 706.5975,569.527 L706.5975,569.527 Z M634.6535,570.95 C634.6095,570.95 634.5655,570.949 634.5215,570.947 C627.8645,570.7 621.1085,570.343 614.4405,569.886 C612.5115,569.753 611.0555,568.082 611.1875,566.154 C611.3195,564.225 613.0105,562.778 614.9185,562.901 C621.5145,563.355 628.1975,563.708 634.7815,563.952 C636.7125,564.024 638.2205,565.648 638.1495,567.58 C638.0795,569.468 636.5265,570.95 634.6535,570.95 L634.6535,570.95 Z M660.6455,571.386 C658.7185,571.386 657.1525,569.827 657.1455,567.898 C657.1385,565.966 658.6995,564.393 660.6325,564.386 C667.2315,564.361 673.9205,564.23 680.5165,563.994 C682.4885,563.945 684.0715,565.436 684.1395,567.367 C684.2075,569.3 682.6985,570.921 680.7665,570.99 C674.0965,571.228 667.3315,571.36 660.6585,571.386 L660.6455,571.386 Z" id="Fill-8"></path>
                <path d="M1808.0625,229.4375 C1806.1435,229.4375 1804.5805,227.8895 1804.5635,225.9665 C1804.5465,224.0345 1806.1005,222.4545 1808.0345,222.4375 C1814.7025,222.3815 1821.4245,222.3835 1828.0945,222.4275 C1830.0285,222.4405 1831.5835,224.0185 1831.5715,225.9515 C1831.5585,227.8755 1829.9945,229.4275 1828.0715,229.4275 L1828.0475,229.4275 C1821.4135,229.3835 1814.7255,229.3815 1808.0925,229.4375 L1808.0625,229.4375 Z M1874.0945,230.3555 C1874.0565,230.3555 1874.0185,230.3545 1873.9805,230.3535 C1867.2395,230.1375 1860.5195,229.9555 1854.0085,229.8115 C1852.0765,229.7695 1850.5435,228.1675 1850.5865,226.2355 C1850.6285,224.3025 1852.2425,222.7435 1854.1635,222.8135 C1860.6975,222.9575 1867.4405,223.1405 1874.2055,223.3575 C1876.1365,223.4185 1877.6535,225.0355 1877.5905,226.9675 C1877.5305,228.8615 1875.9755,230.3555 1874.0945,230.3555 L1874.0945,230.3555 Z M1762.0865,231.0395 C1760.2675,231.0395 1758.7315,229.6305 1758.5995,227.7885 C1758.4615,225.8595 1759.9145,224.1855 1761.8415,224.0475 C1767.9545,223.6125 1774.7155,223.2585 1781.9395,222.9955 C1783.8535,222.9345 1785.4935,224.4335 1785.5645,226.3665 C1785.6345,228.2975 1784.1255,229.9205 1782.1935,229.9915 C1775.0505,230.2505 1768.3715,230.6005 1762.3395,231.0305 C1762.2545,231.0365 1762.1705,231.0395 1762.0865,231.0395 L1762.0865,231.0395 Z M1920.1015,232.3075 C1920.0385,232.3075 1919.9735,232.3055 1919.9095,232.3025 C1915.6785,232.0735 1908.7815,231.7185 1899.9435,231.3335 C1898.0115,231.2495 1896.5145,229.6155 1896.5985,227.6845 C1896.6825,225.7525 1898.3415,224.2645 1900.2485,224.3395 C1909.1175,224.7265 1916.0415,225.0835 1920.2885,225.3125 C1922.2185,225.4165 1923.6985,227.0675 1923.5935,228.9975 C1923.4925,230.8625 1921.9485,232.3075 1920.1015,232.3075 L1920.1015,232.3075 Z M1716.5895,237.6415 C1714.9795,237.6415 1713.5305,236.5235 1713.1725,234.8865 C1712.7605,232.9985 1713.9585,231.1325 1715.8465,230.7205 C1722.5155,229.2665 1729.1945,228.0005 1735.6985,226.9555 C1737.6105,226.6405 1739.4025,227.9485 1739.7085,229.8565 C1740.0145,231.7645 1738.7155,233.5605 1736.8075,233.8675 C1730.4315,234.8905 1723.8805,236.1325 1717.3385,237.5605 C1717.0865,237.6155 1716.8365,237.6415 1716.5895,237.6415 L1716.5895,237.6415 Z M1672.2675,249.9255 C1670.8015,249.9255 1669.4355,248.9985 1668.9475,247.5315 C1668.3355,245.6975 1669.3275,243.7145 1671.1615,243.1045 C1677.6115,240.9565 1684.0885,238.9505 1690.4145,237.1415 C1692.2755,236.6105 1694.2095,237.6875 1694.7415,239.5445 C1695.2725,241.4035 1694.1965,243.3405 1692.3375,243.8725 C1686.1095,245.6525 1679.7285,247.6285 1673.3745,249.7455 C1673.0065,249.8675 1672.6335,249.9255 1672.2675,249.9255 L1672.2675,249.9255 Z M1629.2895,266.3735 C1627.9325,266.3735 1626.6425,265.5805 1626.0725,264.2555 C1625.3075,262.4795 1626.1275,260.4205 1627.9035,259.6575 C1634.1395,256.9735 1640.4075,254.4025 1646.5345,252.0145 C1648.3365,251.3135 1650.3655,252.2035 1651.0665,254.0035 C1651.7685,255.8055 1650.8775,257.8335 1649.0775,258.5365 C1643.0255,260.8955 1636.8325,263.4355 1630.6705,266.0865 C1630.2195,266.2815 1629.7505,266.3735 1629.2895,266.3735 L1629.2895,266.3735 Z M1587.6865,286.0735 C1586.4175,286.0735 1585.1945,285.3815 1584.5735,284.1765 C1583.6865,282.4585 1584.3615,280.3475 1586.0795,279.4615 C1592.0845,276.3645 1598.1455,273.3475 1604.0915,270.4955 C1605.8365,269.6635 1607.9245,270.3955 1608.7615,272.1375 C1609.5975,273.8805 1608.8625,275.9715 1607.1195,276.8075 C1601.2335,279.6295 1595.2335,282.6165 1589.2885,285.6825 C1588.7745,285.9475 1588.2265,286.0735 1587.6865,286.0735 L1587.6865,286.0735 Z M1547.4345,308.4235 C1546.2415,308.4235 1545.0785,307.8125 1544.4235,306.7115 C1543.4355,305.0505 1543.9815,302.9025 1545.6425,301.9155 C1551.4195,298.4785 1557.2795,295.0935 1563.0575,291.8545 C1564.7455,290.9125 1566.8765,291.5085 1567.8225,293.1955 C1568.7675,294.8815 1568.1665,297.0145 1566.4815,297.9595 C1560.7535,301.1705 1554.9475,304.5255 1549.2205,307.9305 C1548.6605,308.2645 1548.0425,308.4235 1547.4345,308.4235 L1547.4345,308.4235 Z M1508.5345,333.0655 C1507.4095,333.0655 1506.3045,332.5245 1505.6285,331.5215 C1504.5485,329.9175 1504.9725,327.7435 1506.5755,326.6635 C1512.1055,322.9365 1517.7635,319.2255 1523.3935,315.6315 C1525.0215,314.5945 1527.1855,315.0705 1528.2265,316.6995 C1529.2665,318.3285 1528.7895,320.4925 1527.1605,321.5325 C1521.5795,325.0945 1515.9695,328.7745 1510.4875,332.4675 C1509.8865,332.8725 1509.2075,333.0655 1508.5345,333.0655 L1508.5345,333.0655 Z M1471.1345,360.0675 C1470.1105,360.0675 1469.0955,359.6205 1468.4045,358.7585 C1467.1935,357.2515 1467.4335,355.0495 1468.9405,353.8385 C1469.1775,353.6485 1474.8595,349.0925 1485.1215,341.6495 C1486.6845,340.5135 1488.8755,340.8635 1490.0085,342.4275 C1491.1435,343.9925 1490.7955,346.1805 1489.2305,347.3155 C1479.1255,354.6465 1473.3815,359.2495 1473.3255,359.2955 C1472.6785,359.8155 1471.9045,360.0675 1471.1345,360.0675 L1471.1345,360.0675 Z" id="Fill-10"></path>
                <path d="M1845.0068,6.96809249 L1844.9618,6.96809249 C1838.4208,6.88736221 1831.6998,6.83386625 1824.9858,6.80857725 C1823.0538,6.80079602 1821.4918,5.27081144 1821.4998,3.39067147 C1821.5078,1.51539476 1823.0728,0 1824.9998,0 L1825.0138,0 C1831.7468,0.0252890012 1838.4878,0.0797576192 1845.0498,0.159515238 C1846.9828,0.182858932 1848.5298,1.72646066 1848.5058,3.60660063 C1848.4818,5.4721508 1846.9188,6.96809249 1845.0068,6.96809249 L1845.0068,6.96809249 Z M1778.9928,7.05563134 C1777.0848,7.05563134 1775.5238,5.56552557 1775.4938,3.70386602 C1775.4648,1.8227534 1777.0078,0.276233706 1778.9408,0.247054089 C1785.5078,0.149788699 1792.2458,0.0787849653 1798.9668,0.0350155401 L1798.9898,0.0350155401 C1800.9128,0.0350155401 1802.4778,1.54457438 1802.4898,3.41693313 C1802.5028,5.2970731 1800.9458,6.83094829 1799.0138,6.84359279 C1792.3128,6.88638956 1785.5948,6.9573933 1779.0478,7.05563134 L1778.9928,7.05563134 Z M1891.0048,8.10026162 C1890.9558,8.10026162 1890.9068,8.09928897 1890.8588,8.09734366 C1884.6568,7.84931691 1877.9468,7.6324151 1870.9148,7.45150147 C1868.9828,7.40189612 1867.4568,5.83786866 1867.5078,3.95870134 C1867.5598,2.07953402 1869.1678,0.559275988 1871.0988,0.644869531 C1878.1658,0.826755809 1884.9098,1.04463028 1891.1458,1.29460233 C1893.0768,1.37144199 1894.5778,2.95784049 1894.4988,4.83603515 C1894.4218,6.66656978 1892.8708,8.10026162 1891.0048,8.10026162 L1891.0048,8.10026162 Z M1732.9928,8.30938221 C1731.1318,8.30938221 1729.5828,6.8834716 1729.4998,5.05682759 C1729.4128,3.17863292 1730.9088,1.58834381 1732.8398,1.50469557 C1738.9308,1.23916106 1745.6768,1.00183351 1752.8898,0.798548846 C1754.8298,0.769369229 1756.4338,2.2234868 1756.4898,4.10265412 C1756.5458,5.98182144 1755.0258,7.54973952 1753.0928,7.60323548 C1745.9158,7.80652014 1739.2068,8.04190239 1733.1528,8.30549159 C1733.0998,8.30840955 1733.0458,8.30938221 1732.9928,8.30938221 L1732.9928,8.30938221 Z M1923.5048,10.0766943 C1923.3938,10.0766943 1923.2808,10.0718311 1923.1688,10.0621045 C1921.1318,9.87243701 1918.9718,9.6934687 1916.6978,9.52130896 C1914.7718,9.37638353 1913.3298,7.73940702 1913.4798,5.86413032 C1913.6278,3.98982627 1915.3218,2.57558751 1917.2388,2.73315744 C1919.5558,2.90726249 1921.7568,3.09109407 1923.8328,3.28367954 C1925.7578,3.46264786 1927.1688,5.12394071 1926.9858,6.9953268 C1926.8128,8.75777565 1925.2878,10.0766943 1923.5048,10.0766943 L1923.5048,10.0766943 Z M1687.1838,12.2923999 C1685.4738,12.2923999 1683.9778,11.0726919 1683.7238,9.37930149 C1683.4448,7.51764194 1684.7698,5.79020862 1686.6828,5.51883819 C1692.8578,4.64344968 1699.0688,3.89256088 1705.1438,3.2865975 C1705.6508,3.23504685 1706.1728,3.18446884 1706.7088,3.13583615 C1708.6378,2.96853968 1710.3418,4.33220044 1710.5238,6.20358653 C1710.7058,8.07497262 1709.2938,9.73626547 1707.3688,9.91328848 C1706.8548,9.96094852 1706.3518,10.0095812 1705.8608,10.0591866 C1699.8808,10.656396 1693.7698,11.395613 1687.6928,12.2564117 C1687.5218,12.2807281 1687.3508,12.2923999 1687.1838,12.2923999 L1687.1838,12.2923999 Z M1641.9838,20.888715 C1640.4058,20.888715 1638.9748,19.8440847 1638.5858,18.2878385 C1638.1288,16.4611945 1639.2798,14.6199607 1641.1588,14.1754578 C1647.7568,12.6143483 1654.3798,11.1757932 1660.8458,9.90356194 C1662.7428,9.53492611 1664.5878,10.7215639 1664.9708,12.564743 C1665.3538,14.4069495 1664.1288,16.2034412 1662.2348,16.5769403 C1655.8578,17.8316638 1649.3228,19.2497932 1642.8138,20.790477 C1642.5358,20.8566174 1642.2578,20.888715 1641.9838,20.888715 L1641.9838,20.888715 Z M1597.7388,33.2346109 C1596.2688,33.2346109 1594.9008,32.3251795 1594.4148,30.8934329 C1593.8118,29.1076404 1594.8108,27.1827583 1596.6468,26.5952754 C1603.0638,24.542003 1609.5298,22.585996 1615.8658,20.7788051 C1617.7168,20.2477361 1619.6658,21.2836125 1620.2088,23.0878855 C1620.7528,24.8921584 1619.6908,26.7829976 1617.8348,27.3121213 C1611.5718,29.0979139 1605.1788,31.0325224 1598.8338,33.0634238 C1598.4708,33.1791696 1598.1028,33.2346109 1597.7388,33.2346109 L1597.7388,33.2346109 Z M1554.5948,48.6638196 C1553.2118,48.6638196 1551.9018,47.8613801 1551.3498,46.5375982 C1550.6238,44.795575 1551.4868,42.8103884 1553.2788,42.1032691 C1559.5198,39.6444 1565.8138,37.261398 1571.9858,35.0204034 C1573.7998,34.363862 1575.8138,35.2587036 1576.4888,37.0192072 C1577.1648,38.7806834 1576.2448,40.7425263 1574.4338,41.3990676 C1568.3208,43.6176912 1562.0888,45.9773495 1555.9078,48.4138475 C1555.4778,48.5830893 1555.0318,48.6638196 1554.5948,48.6638196 L1554.5948,48.6638196 Z M1512.4668,66.704604 C1511.1568,66.704604 1509.9018,65.9867854 1509.3028,64.7583235 C1508.4738,63.0600698 1509.2178,61.0301412 1510.9648,60.2238111 C1517.0398,57.4196499 1523.1838,54.67093 1529.2258,52.054491 C1530.9918,51.2909577 1533.0618,52.0622723 1533.8468,53.779979 C1534.6328,55.4986585 1533.8388,57.5101067 1532.0728,58.2746127 C1526.0818,60.8686806 1519.9898,63.5940568 1513.9648,66.3748743 C1513.4808,66.5985847 1512.9698,66.704604 1512.4668,66.704604 L1512.4668,66.704604 Z M1471.3988,86.9435862 C1470.1528,86.9435862 1468.9448,86.2938534 1468.3138,85.1519577 C1467.3978,83.4965008 1468.0338,81.4315566 1469.7358,80.5406056 C1475.6618,77.4378397 1481.6488,74.3837065 1487.5298,71.4599088 C1489.2518,70.6068914 1491.3598,71.268296 1492.2388,72.9412607 C1493.1188,74.6161707 1492.4378,76.6665251 1490.7158,77.5214879 C1484.8778,80.4238871 1478.9368,83.456622 1473.0548,86.5360442 C1472.5268,86.8122779 1471.9588,86.9435862 1471.3988,86.9435862 L1471.3988,86.9435862 Z M1431.3648,109.075353 C1430.1748,109.075353 1429.0148,108.483007 1428.3588,107.416978 C1427.3658,105.804318 1427.9058,103.714085 1429.5658,102.748239 C1435.2968,99.4130091 1441.1298,96.091396 1446.9018,92.8767749 C1448.5778,91.9410819 1450.7168,92.5071664 1451.6778,94.1392797 C1452.6388,95.7713929 1452.0578,97.8509269 1450.3798,98.7846747 C1444.6478,101.97887 1438.8538,105.277139 1433.1588,108.590971 C1432.5968,108.917783 1431.9778,109.075353 1431.3648,109.075353 L1431.3648,109.075353 Z M1392.3478,132.875221 C1391.2078,132.875221 1390.0908,132.335398 1389.4188,131.338428 C1388.3588,129.766619 1388.8088,127.65596 1390.4248,126.624947 C1395.9888,123.072815 1401.6728,119.51582 1407.3158,116.050254 C1408.9488,115.046475 1411.1108,115.52113 1412.1438,117.112392 C1413.1748,118.702681 1412.6868,120.804586 1411.0518,121.808365 C1405.4438,125.25156 1399.7958,128.787157 1394.2648,132.316918 C1393.6728,132.69528 1393.0068,132.875221 1392.3478,132.875221 L1392.3478,132.875221 Z M1354.3388,158.195347 C1353.2468,158.195347 1352.1708,157.699294 1351.4868,156.769436 C1350.3638,155.238479 1350.7288,153.11323 1352.3018,152.019968 C1357.7158,148.259688 1363.2498,144.483845 1368.7508,140.79846 C1370.3438,139.732431 1372.5228,140.12052 1373.6178,141.669957 C1374.7148,143.218422 1374.3138,145.337835 1372.7218,146.403864 C1367.2538,150.068824 1361.7518,153.822295 1356.3698,157.561177 C1355.7538,157.989144 1355.0428,158.195347 1354.3388,158.195347 L1354.3388,158.195347 Z M1317.3778,184.964728 C1316.3338,184.964728 1315.3008,184.512443 1314.6108,183.648727 C1313.4248,182.164457 1313.7008,180.025591 1315.2278,178.872024 C1320.4218,174.946392 1325.8008,170.957539 1331.2138,167.015373 C1332.7618,165.890012 1334.9548,166.196398 1336.1128,167.700121 C1337.2718,169.204816 1336.9568,171.338819 1335.4088,172.465152 C1330.0288,176.383975 1324.6838,180.347539 1319.5228,184.248854 C1318.8838,184.731291 1318.1278,184.964728 1317.3778,184.964728 L1317.3778,184.964728 Z M1281.6338,213.4061 C1280.6698,213.4061 1279.7098,213.020929 1279.0188,212.265177 C1277.7338,210.860665 1277.8618,208.709154 1279.3058,207.459294 C1279.3608,207.411634 1284.8798,202.640767 1294.7798,194.737954 C1296.2768,193.546453 1298.4808,193.757519 1299.7068,195.209691 C1300.9328,196.663809 1300.7158,198.80851 1299.2218,200.001957 C1289.4428,207.806532 1284.0138,212.498614 1283.9598,212.544329 C1283.2928,213.122085 1282.4618,213.4061 1281.6338,213.4061 L1281.6338,213.4061 Z" id="Fill-12"></path>
            </g>
            <path d="M1383.65669,482.265449 L1383.50076,480.334766 C1383.40263,478.803059 1384.20517,478.1436 1385.74696,477.950073 C1388.16559,477.842762 1392.59562,477.242003 1396.33408,474.167584 C1399.85976,471.268348 1401.27681,466.787877 1398.33539,463.210838 C1391.9224,455.412894 1374.45453,471.837922 1365.05333,460.408825 C1360.79299,455.227621 1361.18738,447.652553 1366.41444,441.921954 L1363.73441,438.66318 C1362.76953,437.489177 1362.87134,436.418817 1363.99306,435.496124 L1364.42047,435.144841 C1365.5422,434.222148 1366.51717,434.317536 1367.34998,435.33103 L1370.16208,438.749395 C1374.18395,435.800631 1378.12695,435.154013 1380.30711,434.972409 C1381.69665,434.813735 1382.45333,435.623614 1382.76243,436.981054 L1383.16599,438.886974 C1383.41455,440.384744 1382.64778,441.194622 1381.10598,441.388149 C1379.06707,441.631205 1375.61018,442.326434 1372.56603,444.831279 C1368.56067,448.124906 1367.7939,452.962163 1370.2538,455.954035 C1376.40172,463.430964 1393.60819,446.684001 1403.49091,458.701935 C1407.88333,464.041812 1407.78978,471.549925 1402.04909,477.52358 L1404.64106,480.676877 C1405.56376,481.797683 1405.55642,482.878132 1404.4347,483.800825 L1404.00637,484.152108 C1402.88556,485.074801 1401.86106,485.022521 1401.0255,484.007192 L1398.25834,480.642024 C1393.31194,483.992517 1388.40406,484.44836 1385.94416,484.502475 C1384.46473,484.554754 1383.66402,483.691679 1383.65669,482.265449" id="Fill-74" fill="#9FBDDE" fill-rule="nonzero"></path>
        </g>
    </g>
</svg>