<svg xmlns="http://www.w3.org/2000/svg" width="109.046" height="86.692" viewBox="0 0 109.046 86.692"><defs><style>.a{fill:#fb244c;}</style></defs><g transform="translate(-0.001 -52.478)"><g transform="translate(75.651 65.019)"><g transform="translate(0 0)"><path class="a" d="M387.478,139.361l-25.217-26.716a4.089,4.089,0,1,0-5.947,5.613l22.569,23.908-22.569,23.911a4.09,4.09,0,0,0,5.947,5.616l25.217-26.718A4.091,4.091,0,0,0,387.478,139.361Z" transform="translate(-355.199 -111.361)"/></g></g><g transform="translate(0.001 65.018)"><g transform="translate(0 0)"><path class="a" d="M32.281,166.075,9.714,142.165l22.567-23.91a4.089,4.089,0,1,0-5.948-5.613L1.116,139.359a4.091,4.091,0,0,0,0,5.615l25.218,26.718a4.09,4.09,0,0,0,5.947-5.616Z" transform="translate(-0.001 -111.36)"/></g></g><g transform="translate(44.436 52.478)"><g transform="translate(0 0)"><path class="a" d="M225.339,52.524a4.094,4.094,0,0,0-4.66,3.425l-12,78.513a4.09,4.09,0,0,0,3.425,4.66,4.212,4.212,0,0,0,.623.046,4.09,4.09,0,0,0,4.037-3.472l12-78.513A4.09,4.09,0,0,0,225.339,52.524Z" transform="translate(-208.636 -52.478)"/></g></g></g></svg>