<?xml version="1.0"?>
<svg xmlns="http://www.w3.org/2000/svg" viewBox="0 0 64 64" width="512" height="512"><g id="outline"><path d="M36.414,41l.293-.293a1,1,0,0,0,0-1.414l-2-2c-3.831-3.832-9.952-4.492-13.658-1.658L3.707,18.293A1,1,0,0,0,2,19V37a1,1,0,0,0,.293.707L10.6,46.012a3,3,0,0,0,.109,4.109l7.586,7.586a1,1,0,0,0,1.414,0L20,57.414l2.293,2.293a1,1,0,0,0,1.414,0l3-3a1,1,0,0,0,0-1.414L24.414,53,26,51.414l2.293,2.293a1,1,0,0,0,1.414,0l3-3a1,1,0,0,0,0-1.414L30.414,47,32,45.414l2.293,2.293a1,1,0,0,0,1.414,0l3-3a1,1,0,0,0,0-1.414ZM19.586,37,12,44.586l-4-4V25.414ZM4,21.414l2,2V38.586l-2-2Zm9.8,28.968A29.742,29.742,0,0,0,21.981,45.4l.6.6L16,52.586ZM17.414,54l7.293-7.293a1,1,0,0,0,0-1.414l-2-2a1,1,0,0,0-1.414,0,27.764,27.764,0,0,1-9.037,5.549l-.135-.135a1,1,0,0,1,0-1.414s9.994-9.952,10.218-10.116l.713,2.139,1.9-.632-.8-2.411a7.854,7.854,0,0,1,2.106-.36l.8,2.4,1.9-.632-.53-1.59a9.548,9.548,0,0,1,4.875,2.613L34.586,40,19,55.586Zm7.172,2L23,57.586,21.414,56,23,54.414Zm6-6L29,51.586,27.414,50,29,48.414ZM35,45.586,33.414,44,35,42.414,36.586,44Z"/><rect x="25.586" y="42" width="2.828" height="2" transform="translate(-22.497 31.686) rotate(-45)"/><path d="M47,4A15,15,0,1,0,62,19,15.017,15.017,0,0,0,47,4ZM58.555,24.168a1,1,0,0,0-.751-.148l-4.475.895-2.156-2.156,1.614-4.035L55.8,17.217l2.49,2.49A1,1,0,0,0,59,20h.949a12.889,12.889,0,0,1-1.116,4.353Zm-17.884.747L36.2,24.02a1,1,0,0,0-.751.148l-.278.185A12.889,12.889,0,0,1,34.051,20H35a1,1,0,0,0,.707-.293l2.49-2.49,3.016,1.507,1.614,4.035Zm.958-15.986L46,10.677v2.842l-4.125,3.3L39.13,15.447l.85-4.251a1,1,0,0,0-.273-.9L38.553,9.139A13.012,13.012,0,0,1,41,7.479V8A1,1,0,0,0,41.629,8.929ZM53,8V7.479a13.012,13.012,0,0,1,2.447,1.66l-1.154,1.154a1,1,0,0,0-.273.9l.85,4.251-2.745,1.372L48,13.519V10.677l4.371-1.748A1,1,0,0,0,53,8ZM37.914,11.329l-.835,4.178L34.586,18h-.535a12.928,12.928,0,0,1,3.087-7.447ZM44.677,22,43.2,18.317,47,15.28l3.8,3.037L49.323,22Zm14.737-4-2.493-2.493-.835-4.178.776-.776A12.928,12.928,0,0,1,59.949,18ZM51,6.636v.687l-4,1.6-4-1.6V6.636a12.9,12.9,0,0,1,8,0ZM36.132,26.113l.078-.051,4.062.812,1.554,3.885-.108.108A13.066,13.066,0,0,1,36.132,26.113ZM43.8,31.585a.994.994,0,0,0,.131-.956l-1.756-4.388L44.414,24h5.172l2.241,2.241-1.756,4.388a.994.994,0,0,0,.131.956,12.56,12.56,0,0,1-6.4,0Zm8.484-.718-.108-.108,1.554-3.885,4.062-.812.078.051A13.066,13.066,0,0,1,52.282,30.867Z"/><rect x="19.136" y="25.5" width="12.728" height="2" transform="translate(-11.27 25.793) rotate(-45)"/><rect x="24.964" y="27.5" width="7.071" height="2" transform="translate(-11.805 28.5) rotate(-45)"/><rect x="38.568" y="37.25" width="6.364" height="2" transform="translate(-14.819 40.725) rotate(-45)"/><rect x="42.964" y="37.5" width="7.071" height="2" transform="translate(-13.604 44.157) rotate(-45)"/></g></svg>
