<svg id="Handshake" xmlns="http://www.w3.org/2000/svg" width="137.419" height="110.843" viewBox="0 0 137.419 110.843">
  <path id="Path_2285" data-name="Path 2285" d="M136.982,122.094a2.017,2.017,0,0,0-2.834-.327l-3.956,3.138L98.214,82.919l18.281-11.733a2.017,2.017,0,0,0-2.179-3.395L94.2,80.706a2.037,2.037,0,0,0-.515,2.919l3.662,4.808-2.6,1.993L84.4,87.011a2.059,2.059,0,0,0-.633-.1H60.1a2.017,2.017,0,0,0-1.957,1.528l-1.332,5.327-3.361-1.415a2.018,2.018,0,0,0-1.017-.144l-9.35,1.1L39.91,91.454l3.022-5.234a2.037,2.037,0,0,0-.738-2.755L3.026,60.851a2.017,2.017,0,0,0-2.017,3.493L31.7,82.067,5.212,127.953,3.026,126.69a2.017,2.017,0,0,0-2.017,3.493l10.658,6.154a2.037,2.037,0,0,0,2.755-.738l1.542-2.671,4.351,2.321A8.471,8.471,0,0,0,30.454,147.2a8.272,8.272,0,0,0,1.666,4.978,8.536,8.536,0,0,0,9.354,2.964,8.459,8.459,0,0,0,7.123,8.239,8.563,8.563,0,0,0,1.36.109,8.385,8.385,0,0,0,2.565-.4,8.471,8.471,0,0,0,7.128,8.229,8.564,8.564,0,0,0,1.36.109,8.406,8.406,0,0,0,4.948-1.61l4.706-3.4a8.438,8.438,0,0,0,2.432-2.73l8.278,4.512a8.471,8.471,0,0,0,12.472-8.382,8.462,8.462,0,0,0,9.951-9.275,8.471,8.471,0,0,0,9.961-9.271,8.355,8.355,0,0,0,1.526.141,8.5,8.5,0,0,0,2.4-.349,8.472,8.472,0,0,0,5.734-10.519,8.573,8.573,0,0,0-.6-1.494l3.538-2.511,1.869,2.454a2.037,2.037,0,0,0,2.858.358l5.568-4.415A2.017,2.017,0,0,0,136.982,122.094ZM11.937,131.836,8.706,129.97,35.2,84.084,38.43,85.95Zm18.5,10.9a4.437,4.437,0,1,1-5.2-7.19L39.5,125.225a4.437,4.437,0,0,1,5.2,7.189Zm11.053,7.936a4.458,4.458,0,0,1-6.144-.924A4.588,4.588,0,0,1,36.4,143.4l10.664-7.716a7.265,7.265,0,0,1,1.182-.716,4.41,4.41,0,0,1,5.237,1.392,4.478,4.478,0,0,1-.917,6.3Zm11.053,7.935a4.437,4.437,0,0,1-5.2-7.188l7.6-5.5.3-.214a4.416,4.416,0,0,1,6.12.892,4.478,4.478,0,0,1-.918,6.3Zm17.548,1.576a4.4,4.4,0,0,1-1.79,2.955l-4.706,3.4a4.437,4.437,0,0,1-5.2-7.19l4.407-3.189.3-.216a4.463,4.463,0,0,1,6.12.892A4.4,4.4,0,0,1,70.088,160.185Zm49.1-25.133a4.479,4.479,0,0,1-6.02,1.772l-23.318-12.71a2.017,2.017,0,0,0-1.931,3.542l19.541,10.651a4.437,4.437,0,1,1-4.247,7.792L83.389,135.293a2.017,2.017,0,0,0-1.93,3.542l16.052,8.749a4.437,4.437,0,0,1-4.25,7.79l-16.805-9.16a2.017,2.017,0,0,0-1.931,3.542l13.027,7.1a4.437,4.437,0,1,1-4.247,7.792l-9.138-4.981a8.5,8.5,0,0,0-8.051-8.6c.038-.179.072-.36.1-.542a8.5,8.5,0,0,0-7.964-9.7c.038-.179.072-.36.1-.543a8.5,8.5,0,0,0-7.964-9.7c.038-.179.072-.36.1-.542a8.471,8.471,0,0,0-13.348-8.085L23.06,132.141l-5.079-2.709L37.893,94.947l3.749,2.177a2.02,2.02,0,0,0,1.247.259l9.489-1.111,3.447,1.451-1.981,7.925a2.03,2.03,0,0,0-.06.489v17.211a10.622,10.622,0,1,0,21.245,0V106.715l.367-.586,42.023,22.9A4.479,4.479,0,0,1,119.191,135.053Zm.962-9.062a8.625,8.625,0,0,0-.8-.5L77.538,102.7l1.551-2.482a2.017,2.017,0,0,0-3.421-2.138L71.3,105.067A2.02,2.02,0,0,0,71,106.136v17.211a6.589,6.589,0,1,1-13.177,0V106.385l3.86-15.442H83.444L94.486,94.59a2.033,2.033,0,0,0,1.858-.313l3.442-2.635,24.128,31.679Z" transform="translate(0 -60.58)" fill="#fb244c"/>
</svg>
