<svg width="88" height="42" viewBox="0 0 88 42" fill="none" xmlns="http://www.w3.org/2000/svg">
<path d="M76.5124 21.0747C77.9 21.0747 79.0249 19.9498 79.0249 18.5622C79.0249 17.1747 77.9 16.0498 76.5124 16.0498C75.1249 16.0498 74 17.1747 74 18.5622C74 19.9498 75.1249 21.0747 76.5124 21.0747Z" fill="#FF2E6A"/>
<path d="M76.5124 11.0249C77.9 11.0249 79.0249 9.90001 79.0249 8.51243C79.0249 7.12485 77.9 6 76.5124 6C75.1249 6 74 7.12485 74 8.51243C74 9.90001 75.1249 11.0249 76.5124 11.0249Z" fill="#FF2E6A"/>
<path d="M15.5318 20.4451V41H10.5478V20.4451H15.5318ZM24.532 41.4643C22.943 41.4643 21.5602 41.1961 20.3839 40.6595C19.2282 40.1229 18.2686 39.4419 17.505 38.6164L20.3839 36.3875C20.8586 36.9447 21.4364 37.3988 22.1175 37.7496C22.8191 38.0798 23.5518 38.2449 24.3153 38.2449C24.9138 38.2449 25.3885 38.1314 25.7393 37.9044C26.0902 37.6774 26.2656 37.3575 26.2656 36.9447C26.2656 36.4907 25.9354 36.1708 25.275 35.9851C24.6352 35.7994 23.8304 35.6033 22.8604 35.3969C22.2619 35.2731 21.6531 35.108 21.034 34.9016C20.4149 34.6746 19.8576 34.396 19.3624 34.0658C18.8877 33.715 18.4956 33.2816 18.186 32.7656C17.8765 32.2291 17.7217 31.5893 17.7217 30.8464C17.7217 29.4637 18.2995 28.3183 19.4552 27.4102C20.6109 26.4815 22.0555 26.0172 23.7891 26.0172C25.3369 26.0172 26.668 26.2855 27.7824 26.8221C28.9175 27.338 29.8565 28.0293 30.5995 28.8961C30.5995 28.9168 30.455 29.0406 30.1661 29.2676C29.8771 29.474 29.5573 29.7113 29.2064 29.9796C28.8556 30.2272 28.5357 30.4646 28.2468 30.6916C27.9579 30.898 27.8134 31.0011 27.8134 31.0011C27.3181 30.4439 26.7402 30.0105 26.0798 29.701C25.4401 29.3708 24.7591 29.2057 24.0367 29.2057C23.4589 29.2057 22.9945 29.3192 22.6437 29.5462C22.3135 29.7526 22.1484 30.0518 22.1484 30.4439C22.1484 30.898 22.3754 31.2075 22.8294 31.3726C23.3041 31.5377 24.0987 31.7338 25.2131 31.9608C25.8322 32.0846 26.472 32.2497 27.1324 32.4561C27.7928 32.6418 28.3809 32.9101 28.8969 33.2609C29.4334 33.6118 29.8668 34.0555 30.197 34.5921C30.5479 35.108 30.7233 35.7478 30.7233 36.5113C30.7233 37.9353 30.1351 39.122 28.9588 40.0713C27.7824 41 26.3069 41.4643 24.532 41.4643ZM37.1049 20.2284V41H32.3995V20.2284H37.1049ZM44.1406 41.4024C42.6134 41.4024 41.3958 41.0206 40.4878 40.2571C39.5797 39.4728 39.1257 38.441 39.1257 37.1614C39.1257 36.3359 39.2805 35.6652 39.5901 35.1493C39.8996 34.6127 40.3124 34.1793 40.8283 33.8491C41.3442 33.5189 41.9427 33.2506 42.6238 33.0443C43.3254 32.8379 44.0581 32.6625 44.8217 32.518C46.0805 32.2497 47.0608 32.0433 47.7625 31.8989C48.4848 31.7544 48.8666 31.4861 48.9079 31.094V31.0011C48.9079 30.5471 48.7221 30.1756 48.3507 29.8867C47.9792 29.5978 47.3807 29.4533 46.5552 29.4533C45.7297 29.4533 45.1003 29.6494 44.6669 30.0415C44.2335 30.413 43.9962 30.8876 43.9549 31.4655V31.7131H39.4662C39.4869 30.0209 40.1266 28.6588 41.3855 27.6269C42.665 26.595 44.4089 26.0791 46.6171 26.0791C48.8047 26.0791 50.4866 26.5641 51.663 27.534C52.86 28.4834 53.4584 30.0002 53.4584 32.0846V41H48.8769V38.9878C48.4435 39.7308 47.8244 40.319 47.0195 40.7524C46.2147 41.1857 45.255 41.4024 44.1406 41.4024ZM45.6575 38.3068C46.4211 38.3068 47.1331 38.0901 47.7935 37.6567C48.4539 37.2027 48.8253 36.4391 48.9079 35.366V33.911C48.557 34.0968 48.134 34.2515 47.6387 34.3754C47.1434 34.4992 46.6481 34.623 46.1528 34.7468C45.513 34.9326 44.9661 35.1699 44.5121 35.4588C44.0581 35.7271 43.8311 36.1708 43.8311 36.79C43.8311 37.244 43.9858 37.6155 44.2954 37.9044C44.6256 38.1727 45.0796 38.3068 45.6575 38.3068ZM60.471 26.3887V28.7104C60.8631 27.8642 61.4203 27.2038 62.1426 26.7292C62.8649 26.2545 63.7523 26.0172 64.8049 26.0172C66.4146 26.0172 67.6632 26.5538 68.5506 27.6269C69.4586 28.6794 69.9126 30.2066 69.9126 32.2084V41H65.2073V32.518C65.2073 31.6306 65.0319 30.9599 64.681 30.5058C64.3302 30.0312 63.7627 29.7939 62.9784 29.7939C62.2149 29.7939 61.6061 30.1034 61.152 30.7225C60.7186 31.321 60.5019 32.1878 60.5019 33.3229V41H55.7966V26.3887H60.471ZM78.1238 41.3715C76.2664 41.3715 74.7186 40.6904 73.4803 39.3284C72.2627 37.9457 71.6539 36.078 71.6539 33.7253C71.6539 31.4552 72.2627 29.6081 73.4803 28.1841C74.7186 26.7395 76.2664 26.0172 78.1238 26.0172C79.0525 26.0172 79.878 26.2132 80.6003 26.6054C81.3432 26.9768 81.9623 27.4928 82.4576 28.1532V20.2284H87.132V41H82.5196V39.2045C82.0036 39.8649 81.3639 40.3912 80.6003 40.7833C79.8573 41.1754 79.0318 41.3715 78.1238 41.3715ZM79.6097 37.8425C80.6003 37.8425 81.3535 37.4916 81.8695 36.79C82.3854 36.0676 82.6434 35.077 82.6434 33.8182V33.4776C82.6434 32.2188 82.3854 31.2488 81.8695 30.5678C81.3742 29.8867 80.6209 29.5462 79.6097 29.5462C78.7016 29.5462 77.969 29.8867 77.4118 30.5678C76.8546 31.2282 76.576 32.2394 76.576 33.6015V33.911C76.576 35.2731 76.8442 36.274 77.3808 36.9138C77.938 37.5329 78.681 37.8425 79.6097 37.8425Z" fill="#1E266D"/>
<path d="M7.15088 21.3715C5.29351 21.3715 3.7457 20.6904 2.50745 19.3284C1.28984 17.9457 0.681037 16.078 0.681037 13.7253C0.681037 11.4552 1.28984 9.60811 2.50745 8.18413C3.7457 6.7395 5.29351 6.01719 7.15088 6.01719C8.07957 6.01719 8.90507 6.21325 9.62738 6.60536C10.3703 6.97684 10.9895 7.49277 11.4848 8.15317V0.228382H16.1591V21H11.5467V19.2045C11.0307 19.8649 10.391 20.3912 9.62738 20.7833C8.88443 21.1754 8.05893 21.3715 7.15088 21.3715ZM8.63678 17.8425C9.62738 17.8425 10.3807 17.4916 10.8966 16.79C11.4125 16.0676 11.6705 15.077 11.6705 13.8182V13.4776C11.6705 12.2188 11.4125 11.2488 10.8966 10.5678C10.4013 9.88672 9.64802 9.5462 8.63678 9.5462C7.72873 9.5462 6.9961 9.88672 6.43889 10.5678C5.88168 11.2282 5.60307 12.2394 5.60307 13.6015V13.911C5.60307 15.2731 5.87136 16.274 6.40794 16.9138C6.96515 17.5329 7.7081 17.8425 8.63678 17.8425ZM25.8013 21.3096C23.4073 21.3096 21.519 20.6285 20.1363 19.2665C18.7742 17.9044 18.0932 16.078 18.0932 13.7872C18.0932 11.4964 18.7949 9.63907 20.1982 8.21508C21.6016 6.7911 23.4383 6.07911 25.7084 6.07911C28.0404 6.07911 29.8565 6.77046 31.1567 8.15317C32.4569 9.53588 33.1069 11.4242 33.1069 13.8182V14.9635H22.6128C22.716 15.9541 23.0668 16.7074 23.6653 17.2233C24.2638 17.7186 25.0377 17.9663 25.987 17.9663C26.9363 17.9663 27.6587 17.7599 28.1539 17.3472C28.6699 16.9344 29.031 16.4288 29.2374 15.8303L33.045 16.9757C32.5497 18.2965 31.7242 19.349 30.5685 20.1332C29.4335 20.9175 27.8444 21.3096 25.8013 21.3096ZM25.6465 9.32951C24.821 9.32951 24.1296 9.58748 23.5724 10.1034C23.0359 10.5987 22.716 11.3107 22.6128 12.2394H28.4945C28.4326 11.2694 28.1643 10.5471 27.6896 10.0725C27.2149 9.57716 26.5339 9.32951 25.6465 9.32951ZM37.844 6.38867L41.0015 15.8922L43.9114 6.38867H48.1833L42.797 21.0619H38.525L32.9529 6.38867H37.844ZM49.5727 10.5368L49.1394 9.48429C50.0268 9.03026 50.6459 8.4421 50.9967 7.71978C51.3682 6.97684 51.5643 6.06879 51.5849 4.99564H49.8204V0.445075H54.6186V4.43843C54.6186 5.92432 54.2575 7.22449 53.5351 8.33891C52.8128 9.45333 51.492 10.186 49.5727 10.5368ZM62.6012 21.4643C61.0121 21.4643 59.6294 21.1961 58.4531 20.6595C57.2974 20.1229 56.3377 19.4419 55.5741 18.6164L58.4531 16.3875C58.9277 16.9447 59.5056 17.3988 60.1866 17.7496C60.8883 18.0798 61.6209 18.2449 62.3845 18.2449C62.983 18.2449 63.4577 18.1314 63.8085 17.9044C64.1593 17.6774 64.3347 17.3575 64.3347 16.9447C64.3347 16.4907 64.0045 16.1708 63.3441 15.9851C62.7044 15.7994 61.8995 15.6033 60.9296 15.3969C60.3311 15.2731 59.7223 15.108 59.1031 14.9016C58.484 14.6746 57.9268 14.396 57.4315 14.0658C56.9568 13.715 56.5647 13.2816 56.2552 12.7656C55.9456 12.2291 55.7908 11.5893 55.7908 10.8464C55.7908 9.46365 56.3687 8.31827 57.5244 7.41022C58.6801 6.48154 60.1247 6.01719 61.8582 6.01719C63.4061 6.01719 64.7372 6.28548 65.8516 6.82205C66.9867 7.33799 67.9257 8.02935 68.6686 8.89612C68.6686 8.91676 68.5242 9.04058 68.2352 9.2676C67.9463 9.47397 67.6264 9.7113 67.2756 9.97959C66.9247 10.2272 66.6049 10.4646 66.3159 10.6916C66.027 10.898 65.8826 11.0011 65.8826 11.0011C65.3873 10.4439 64.8094 10.0105 64.149 9.70098C63.5092 9.37078 62.8282 9.20568 62.1059 9.20568C61.528 9.20568 61.0637 9.31919 60.7129 9.5462C60.3827 9.75258 60.2176 10.0518 60.2176 10.4439C60.2176 10.898 60.4446 11.2075 60.8986 11.3726C61.3733 11.5377 62.1678 11.7338 63.2822 11.9608C63.9014 12.0846 64.5411 12.2497 65.2015 12.4561C65.8619 12.6418 66.4501 12.9101 66.966 13.2609C67.5026 13.6118 67.936 14.0555 68.2662 14.5921C68.617 15.108 68.7924 15.7478 68.7924 16.5113C68.7924 17.9353 68.2043 19.122 67.0279 20.0713C65.8516 21 64.376 21.4643 62.6012 21.4643Z" fill="#1E266D"/>
</svg>
