<?xml version="1.0" encoding="UTF-8"?>
<svg width="566px" height="260px" viewBox="0 0 566 260" version="1.1" xmlns="http://www.w3.org/2000/svg" xmlns:xlink="http://www.w3.org/1999/xlink">
    <!-- Generator: Sketch 53.1 (72631) - https://sketchapp.com -->
    <title>support-illo-services</title>
    <desc>Created with Sketch.</desc>
    <g id="support-illo-services" stroke="none" stroke-width="1" fill="none" fill-rule="evenodd">
        <g id="support-services" transform="translate(92.000000, 36.000000)">
            <g id="support-services-1.1">
                <g id="Group" opacity="0.04" transform="translate(0.000000, 1.000000)" fill="#000000" fill-rule="nonzero">
                    <path d="M402.68719,182.42226 C402.65384,182.59713 402.61219,182.78035 402.57047,182.95532 L7.6948,182.95532 C7.6198,182.78868 7.5448,182.60547 7.4699,182.42226 L402.68719,182.42226 Z" id="Path"></path>
                    <path d="M402.95357,166.59724 L3.48864,166.59724 C3.45529,166.42237 3.42194,166.23915 3.39693,166.06418 L402.87041,166.06418 C402.90375,166.23915 402.92877,166.414 402.95357,166.59724 Z" id="Path"></path>
                    <path d="M397.1233,150.23916 L1.13148,150.23916 L1.13148,149.7061 L396.81524,149.7061 C396.92362,149.881 397.02346,150.06429 397.1233,150.23916 Z" id="Path"></path>
                    <path d="M381.84813,133.34812 C382.0897,133.52299 382.33127,133.69787 382.57264,133.88112 L0.54015,133.88112 L0.54015,133.34812 L381.84813,133.34812 Z" id="Path"></path>
                    <path d="M336.57184,117.5231 L1.85619,117.5231 C1.88119,117.33979 1.90612,117.16491 1.93936,116.98993 L334.56463,116.98993 C335.231,117.17325 335.89735,117.34812 336.57184,117.5231 Z" id="Path"></path>
                    <path d="M303.01464,100.632 C303.18118,100.80688 303.34772,100.99009 303.52264,101.165 L5.58755,101.165 C5.63747,100.99012 5.69573,100.81525 5.75409,100.632 L303.01464,100.632 Z" id="Path"></path>
                    <path d="M295.57674,84.27387 L295.57674,84.80694 L11.8426,84.80694 C11.92587,84.62372 12.00914,84.44875 12.09241,84.27387 L295.57674,84.27387 Z" id="Path"></path>
                    <path d="M295.7933,67.91579 C295.77663,68.09067 295.75995,68.26554 295.7433,68.44886 L20.95443,68.44886 C21.07105,68.26554 21.18767,68.09067 21.30418,67.91579 L295.7933,67.91579 Z" id="Path"></path>
                    <path d="M295.99319,52.09077 L33.84764,52.09077 L33.84764,51.73269 C33.89764,51.67433 33.94764,51.61597 34.00584,51.55769 L295.90984,51.55769 C295.94317,51.73269 295.96818,51.90756 295.99319,52.09077 Z" id="Path"></path>
                    <path d="M287.63922,35.73269 L50.72211,35.73269 C50.93867,35.54948 51.15524,35.3745 51.38011,35.19963 L287.12291,35.19963 C287.29781,35.3745 287.47268,35.55782 287.63922,35.73269 Z" id="Path"></path>
                    <path d="M260.162,19.37461 L75.4424,19.37461 C75.78401,19.1914 76.1254,19.00819 76.46694,18.84161 L258.71277,18.84161 C259.19592,19.01652 259.67886,19.1914 260.162,19.37461 Z" id="Path"></path>
                    <path d="M188.89951,2.47513 C190.398657,2.64179667 191.897877,2.82229667 193.39717,3.01663 L124.3501,3.01663 C125.6577,2.81663 126.96541,2.63343 128.28135,2.47513 L188.89951,2.47513 Z" id="Path"></path>
                    <path d="M0.68178,128.12584 C0.7984,126.41837 0.93993,124.71923 1.13148,123.03676 L1.13148,146.89934 C0.865,143.40112 0.68178,140.04453 0.59848,137.00444 L0.59848,129.84156 C0.61519,129.23356 0.64843,128.66715 0.68178,128.12584 Z" id="Path"></path>
                    <path d="M17.48966,74.03755 L17.48966,187.51955 L16.95649,187.51955 L16.95649,74.95372 C17.13147,74.64565 17.30635,74.34572 17.48966,74.03755 Z" id="Path"></path>
                    <path d="M33.84764,52.09077 L33.84764,187.57783 C33.67277,187.58617 33.48955,187.58617 33.31464,187.57783 L33.31464,52.09077 L33.84764,52.09077 Z" id="Path"></path>
                    <path d="M50.20572,36.14914 L50.20572,187.57783 L49.67266,187.57783 L49.67266,36.58226 C49.84753,36.44063 50.03085,36.29077 50.20572,36.14914 Z" id="Path"></path>
                    <path d="M66.5638,24.48027 L66.5638,187.54459 C66.38893,187.54459 66.20572,187.54459 66.03074,187.55292 L66.03074,24.81344 C66.20572,24.69683 66.38893,24.58855 66.5638,24.48027 Z" id="Path"></path>
                    <path d="M82.92188,15.64326 L82.92188,187.51126 L82.38882,187.51126 L82.38882,15.89316 C82.5637,15.80979 82.74691,15.72652 82.92188,15.64326 Z" id="Path"></path>
                    <path d="M99.28,9.12162 L99.28,187.46962 L98.74693,187.46962 L98.74693,9.2966 C98.92178,9.23 99.09675,9.17164 99.28,9.12162 Z" id="Path"></path>
                    <path d="M115.638,4.62406 L115.638,187.428 C115.46312,187.428 115.27991,187.428 115.105,187.43634 L115.105,4.73234 C115.27986,4.699 115.45473,4.65741 115.638,4.62406 Z" id="Path"></path>
                    <path d="M131.99613,2.05034 L131.99613,187.403 C131.82113,187.39466 131.63794,187.39466 131.46296,187.403 L131.46296,2.10036 C131.63794,2.08369 131.82115,2.05868 131.99613,2.05034 Z" id="Path"></path>
                    <path d="M148.35411,0.89271 L148.35411,187.38628 L147.82111,187.38628 L147.82111,0.90938 C147.996,0.901 148.17923,0.89271 148.35411,0.89271 Z" id="Path"></path>
                    <path d="M164.71229,0.78443 L164.71229,187.38628 L164.17912,187.38628 L164.17912,0.76775 C164.354,0.77609 164.529,0.78443 164.71229,0.78443 Z" id="Path"></path>
                    <path d="M181.07027,1.69225 L181.07027,187.38625 L180.53727,187.38625 L180.53727,1.65057 C180.71218,1.65891 180.88706,1.67558 181.07027,1.69225 Z" id="Path"></path>
                    <rect id="Rectangle" x="196.89529" y="3.01663" width="1" height="184.36965"></rect>
                    <path d="M213.78643,6.3898 L213.78643,187.38628 L213.25337,187.38628 L213.25337,6.28152 C213.43668,6.31487 213.61156,6.34821 213.78643,6.3898 Z" id="Path"></path>
                    <path d="M230.14452,10.14616 L230.14452,187.38628 L229.61145,187.38628 L229.61145,10.00454 C229.79466,10.04622 229.96954,10.09624 230.14452,10.14616 Z" id="Path"></path>
                    <path d="M246.5026,14.8187 L246.5026,187.38628 L245.96953,187.38628 L245.96953,14.6605 C246.14441,14.71042 246.32772,14.76867 246.5026,14.8187 Z" id="Path"></path>
                    <path d="M262.86058,20.41573 L262.86058,187.38628 L262.32758,187.38628 L262.32758,20.20751 C262.50249,20.2742 262.6857,20.3408 262.86058,20.41573 Z" id="Path"></path>
                    <path d="M279.21876,28.73635 L279.21876,187.38628 L278.68559,187.38628 L278.68559,28.3866 C278.86881,28.49478 279.04368,28.61983 279.21876,28.73635 Z" id="Path"></path>
                    <path d="M295.57674,49.83366 L295.57674,187.38628 L295.04374,187.38628 L295.04374,47.78477 C295.252,48.45936 295.42688,49.14229 295.57674,49.83366 Z" id="Path"></path>
                    <path d="M311.93492,107.76982 L311.93492,187.38628 L311.40176,187.38628 L311.40176,107.43664 C311.57663,107.545 311.75151,107.66154 311.93492,107.76982 Z" id="Path"></path>
                    <path d="M328.30124,115.14093 L328.30124,187.38628 L327.75994,187.38628 L327.75994,114.95772 C327.93481,115.02441 328.118,115.08267 328.30124,115.14093 Z" id="Path"></path>
                    <path d="M344.65942,119.51363 L344.65942,187.38628 L344.12626,187.38628 L344.12626,119.38878 C344.30113,119.43036 344.476,119.47205 344.65942,119.51363 Z" id="Path"></path>
                    <path d="M361.0174,123.73647 L361.0174,187.38628 L360.4759,187.38628 L360.4759,123.57828 C360.65931,123.62819 360.83419,123.68645 361.0174,123.73647 Z" id="Path"></path>
                    <path d="M377.37538,130.49124 L377.37538,187.38624 L376.84238,187.38624 L376.84238,130.19975 C377.025182,130.287213 377.20311,130.384519 377.37538,130.49124 Z" id="Path"></path>
                    <path d="M394.26653,145.75818 L394.26653,187.38628 L393.73353,187.38628 L393.73353,145.03356 C393.91678,145.27514 394.09165,145.51661 394.26653,145.75818 Z" id="Path"></path>
                </g>
                <path d="M338.76123,188.14691 L235.40847,188.14691 C234.767315,188.14691 234.152421,187.892212 233.699057,187.438846 C233.245693,186.98548 232.990997,186.370585 232.991,185.72943 L232.991,181.96892 L338.76123,181.96892 L338.76123,188.14691 Z" id="Path" stroke="#313D3F" stroke-width="1.2" fill="#FFFFFF" fill-rule="nonzero" stroke-linejoin="round"></path>
                <path d="M346.26284,188.14691 L265.6965,188.14691 L281.30579,134.555 C281.606341,133.523125 282.552036,132.813573 283.62679,132.81356 L360.23129,132.81356 C360.738463,132.813557 361.216051,133.052294 361.520431,133.457975 C361.82481,133.863656 361.920469,134.388952 361.77864,134.87589 L346.26284,188.14691 Z" id="Path" stroke="#313D3F" stroke-width="1.2" fill="#FFFFFF" fill-rule="nonzero" stroke-linejoin="round"></path>
                <path d="M172.80962,100.36594 C172.80962,100.36594 171.14382,116.6074 146.43462,108.83371 C138.38329,103.97515 139.1759,100.4409 139.1759,100.4409 C139.1759,100.4409 149.21091,95.785 149.905,79.96 C150.18263,72.88039 150.18263,69.27118 150.18263,69.27118 C150.18263,69.27118 159.06685,87.31725 171.28263,86.76198 C171.42146,89.81592 172.80962,100.36594 172.80962,100.36594 Z" id="Path" fill="#FFFFFF" fill-rule="nonzero"></path>
                <polyline id="Path" fill="#FFFFFF" fill-rule="nonzero" points="216.745 134.168 229.03 148.952 223.854 170.821 193.424 144.579"></polyline>
                <path d="M171.07791,84.50626 C171.75667,94.37714 171.6047,93.69337 172.28346,103.56426" id="Path" stroke="#313D3F" stroke-width="1.2" stroke-linejoin="round"></path>
                <path d="M185.88743,65.87574 C185.6755,69.84531 184.33075,76.20035 182.55584,79.75733 C180.78093,83.31431 176.28884,85.57448 172.37025,86.24317 C161.84169,88.03982 150.65867,75.78925 148.12949,67.2639 C146.9846,63.40469 148.26032,56.84924 148.86294,52.80841 C149.395,49.24074 152.24089,45.37906 153.80051,42.11287 C156.078432,37.0899016 160.059029,33.034138 165.03851,30.66266 C168.58327,29.0792096 172.55105,28.7080174 176.328,29.60651 C177.8517,29.98536 179.8413,30.48071 180.54521,31.89283 C181.43529,33.67841 183.76941,34.31524 184.08278,36.30794 C185.679614,46.0778285 186.284241,55.9841708 185.88743,65.87574 Z" id="Path" fill="#FFFFFF" fill-rule="nonzero"></path>
                <path d="M183.52755,35.47505 C184.81425,43.16943 186.0007,50.7875 185.93405,58.58889 C185.87805,65.13989 185.97958,72.23198 183.22894,78.33249 C181.495154,82.475048 177.777032,85.4542282 173.35613,86.24317 C169.40184,86.91795 165.60478,85.25456 162.18461,83.15832 C158.927916,81.1295836 156.011641,78.5998048 153.54331,75.66226 L150.94052,70.14433" id="Path" stroke="#313D3F" stroke-linejoin="round"></path>
                <path d="M179.15485,23.46747 C169.92359,23.67569 158.17457,21.95019 149.72585,23.25925 C145.15754,23.96707 139.27003,25.9041 136.06768,29.23807 C134.058966,31.4851762 132.610441,34.1756787 131.84048,37.08971 C129.48784,44.92387 129.46077,54.58191 132.90764,62 C136.35451,69.41809 142.67783,74.20745 150.18259,77.46131" id="Path" stroke="#313D3F" stroke-width="1.2" fill="#FFFFFF" fill-rule="nonzero" stroke-linejoin="round"></path>
                <path d="M206.76376,120.91305 C217.08976,134.16064 227.0984,146.51044 237.40549,159.78471" id="Path" stroke="#313D3F" stroke-width="1.2" fill="#FFFFFF" fill-rule="nonzero" stroke-linejoin="round"></path>
                <path d="M149.09588,59.264 C148.353147,58.6040062 147.497668,58.0831094 146.57037,57.72623 C144.89213,57.10597 143.19107,57.29323 142.88977,59.67538 C142.38462,63.6697 145.97655,71.20573 151.03405,70.30012" id="Path" stroke="#313D3F" stroke-width="1.2" stroke-linejoin="round"></path>
                <path d="M145.83868,61.57656 C145.794275,63.5373625 147.001739,65.3093515 148.84288,65.98531" id="Path" stroke="#313D3F" stroke-width="1.2" stroke-linejoin="round"></path>
                <path d="M151.04463,70.31785 C151.04463,70.31785 152.91863,89.00594 166.66142,89.63061 C168.350922,89.711653 170.044214,89.6069152 171.71085,89.31828 C171.65879,88.43333 171.69503,88.16391 171.45057,86.09081 C171.45057,86.09081 167.08721,86.8061 160.9132,82.04907 C156.915298,78.7939703 153.567249,74.813991 151.04463,70.31785 L151.04463,70.31785 Z" id="Path" fill="#313D3F" fill-rule="nonzero"></path>
                <path d="M172.07524,98.87922 C193.00174,98.46278 200.04701,107.40251 206.36278,114.46131 C211.08252,119.73631 213.96525,123.52598 223.15954,132.50736 C214.60629,140.52322 206.50284,148.09366 197.79648,152.07487 L188.94138,143.19621" id="Path" stroke="#313D3F" fill="#313D3F" fill-rule="nonzero" stroke-linejoin="round"></path>
                <path d="M198.10323,148.88766 C204.90647,154.34181 215.88111,164.55089 223.81888,170.87266" id="Path" stroke="#313D3F" stroke-width="1.2" fill="#FFFFFF" fill-rule="nonzero" stroke-linejoin="round"></path>
                <path d="M248.077,97.59518 C248.52649,106.29605 255.57306,166.86433 241.89969,173.5969 C236.7635,175.26269 228.15692,174.42979 223.85362,170.82058 C223.85362,170.82058 234.0913,126.26067 241.58736,96.55406" id="Path" stroke="#313D3F" stroke-width="1.2" fill="#FFFFFF" fill-rule="nonzero" stroke-linejoin="round"></path>
                <path d="M150.46025,70.10406 C150.3279,82.29287 149.27472,97.10932 136.67718,101.48206" id="Path" stroke="#313D3F" stroke-width="1.2" stroke-linejoin="round"></path>
                <path d="M241.55261,96.97051 C241.51791,92.5631 241.01453,83.60351 240.5809,77.95272 C243.86043,77.84861 246.255,82.84598 247.19201,86.07345" id="Path" stroke="#313D3F" stroke-width="1.2" fill="#FFFFFF" fill-rule="nonzero" stroke-linejoin="round"></path>
                <path d="M246.72351,86.22962 C257.26317,85.99181 261.57681,86.00405 272.54327,84.33826 C266.67827,93.22248 257.9701,95.31783 247.69527,97.52577" id="Path" stroke="#313D3F" stroke-width="1.2" fill="#FFFFFF" fill-rule="nonzero" stroke-linejoin="round"></path>
                <polyline id="Path" stroke="#313D3F" stroke-width="1.2" stroke-linejoin="round" points="179.363 53.521 180.751 64.071 176.309 64.071"></polyline>
                <path d="M172.21406,103.009 C171.98443,108.51994 165.57906,110.37387 161.07532,110.72921 C152.1036,111.43705 144.05868,108.24529 139.17587,100.4409" id="Path" stroke="#313D3F"></path>
                <path d="M162.01109,39.01485 C162.01109,39.01485 157.56898,52.68822 149.11856,59.26463 C148.183782,58.6029912 147.190605,58.0279927 146.15137,57.54678" id="Path" stroke="#313D3F" stroke-width="1.2" fill="#FFFFFF" fill-rule="nonzero" stroke-linejoin="round"></path>
                <path d="M162.08049,33.18459 C167.07787,23.18984 178.99731,22.99129 192.75366,20.66759 C193.980574,24.5009517 193.580745,28.6698426 191.6476,32.20013 C189.710786,35.2917678 186.761597,37.6159145 183.30285,38.77632 C177.972358,39.9464031 172.535024,40.5613262 167.07785,40.61125 C167.07785,40.61125 161.80285,40.68066 157.29132,40.33362" id="Path" stroke="#313D3F" stroke-width="1.2" fill="#FFFFFF" fill-rule="nonzero" stroke-linejoin="round"></path>
                <path d="M115.0913,137.08831 C114.25841,147.63831 107.8243,187.66667 107.8243,187.66667 L200.7342,187.66667 C195.90087,179.18642 191.44003,138.7541 191.44003,138.7541 L172.28343,98.49748 C172.28343,98.49748 174.67243,106.3938 167.42488,109.46394 C163.122961,111.44476 158.270692,111.885874 153.6821,110.71328 C140.35577,107.10407 138.96761,100.4409 138.96761,100.4409 L127.3071,122.09619" id="Path" stroke="#313D3F" fill="#313D3F" fill-rule="nonzero" stroke-linejoin="round"></path>
                <path d="M386.67446,188.14691 L23.85044,188.14691" id="Path" stroke="#313D3F" fill="#FFFFFF" fill-rule="nonzero" stroke-linejoin="round"></path>
                <rect id="Rectangle" stroke="#B4B4B4" stroke-width="1.67695" opacity="0.3" transform="translate(383.704390, 34.513661) rotate(-141.409390) translate(-383.704390, -34.513661) " x="377.665915" y="28.4751858" width="12.07695" height="12.07695"></rect>
                <rect id="Rectangle" stroke="#313D3F" stroke-width="1.2" fill="#FFFFFF" fill-rule="nonzero" stroke-linejoin="round" x="154.32433" y="163.66667" width="28.33333" height="24.33333"></rect>
                <path d="M96.04523,147.41726 C90.42618,161.77706 84.87654,175.71997 80.68309,188.30254 L94.41609,188.36719 C113.12802,188.4566 159.24689,188.67312 163.48376,187.78744 C147.01411,179.3929 144.04249,177.57384 110.06569,171.57124 C114.164026,164.96825 117.917098,158.157119 121.30978,151.1653 L96.04523,147.41726 Z" id="Path" stroke="#313D3F" stroke-width="1.2" fill="#FFFFFF" fill-rule="nonzero" stroke-linejoin="round"></path>
                <path d="M139.69642,100.23268 C130.25258,102.93092 120.22749,106.16706 111.48209,112.93434 C102.78018,119.66796 88.43864,144.72319 86.49522,148.3324 C86.49522,148.3324 109.39985,152.91333 124.80842,156.52254 C125.37303,153.21622 128.14,146.38898 130.08342,139.03173" id="Path" stroke="#313D3F" fill="#313D3F" fill-rule="nonzero" stroke-linejoin="round"></path>
                <path d="M129.94461,139.24 C128.00118,146.59724 125.23422,153.42448 124.66961,156.7308 C109.26104,153.12159 98.5431,151.1032 98.5431,151.1032 L95.83619,150.61734 L85.84145,148.63922" id="Path" stroke="#FFFFFF"></path>
                <path d="M154.65767,183.9375 L162.49743,175.88181 C163.770846,174.573326 165.523545,173.84187 167.34933,173.85696 L181.1178,173.97074 C183.077532,173.986937 184.657671,175.580191 184.65767,177.53999 L184.65767,182.48099 C184.657664,185.696124 182.051284,188.302504 178.83615,188.30251 L151.991,188.30251" id="Path" stroke="#313D3F" stroke-width="1.2" fill="#FFFFFF" fill-rule="nonzero" stroke-linejoin="round"></path>
                <path d="M168.23747,157.20454 C167.138029,156.385901 166.689307,154.953341 167.12526,153.65377 C167.577076,152.397118 168.244933,151.22905 169.09872,150.20223 C169.954669,149.169192 170.482352,147.903915 170.61403,146.56882 C170.698854,145.188817 169.720951,143.970375 168.3553,143.7545" id="Path" stroke="#FFFFFF" stroke-width="1.2" stroke-linejoin="round"></path>
                <path d="M174.9576,138.5993 C176.060619,140.259696 176.549112,142.253186 176.3387,144.23543 C176.00964,145.92511 174.84776,147.30828 173.99815,148.80543 C173.14854,150.30258 172.62331,152.25314 173.57551,153.68724" id="Path" stroke="#FFFFFF" stroke-width="1.2" stroke-linejoin="round"></path>
                <path d="M262.197,70.06481 C252.258055,70.0647736 243.297785,64.0776644 239.49435,54.8952625 C235.690915,45.7128607 237.793337,35.1434833 244.82126,28.1156153 C251.849182,21.0877472 262.418576,18.9854072 271.600948,22.7889131 C280.783321,26.592419 286.77036,35.5527353 286.77032,45.49168 C286.754999,59.0567681 275.762088,70.0495943 262.197,70.06481 L262.197,70.06481 Z M262.197,30.29039 C253.801632,30.2904397 246.995873,37.0962525 246.99589,45.49162 C246.995907,53.8869875 253.801692,60.6927734 262.19706,60.69279 C270.592428,60.6928066 277.39824,53.8870475 277.39829,45.49168 C277.388861,37.1001482 270.588532,30.2998193 262.197,30.29039 Z" id="Shape" stroke="#313D3F" fill="#FFFFFF" fill-rule="nonzero" stroke-linejoin="round"></path>
                <path d="M266.16031,32.31647 L258.2338,32.31647 C257.501589,32.31647 256.878621,31.7828445 256.76617,31.05932 L255.26455,21.398 C255.197937,20.9693964 255.32201,20.5330901 255.604183,20.2036716 C255.886356,19.8742531 256.298431,19.684643 256.73218,19.68464 L267.66193,19.68464 C268.09568,19.6846396 268.507757,19.8742487 268.789931,20.2036681 C269.072105,20.5330875 269.196177,20.9693958 269.12956,21.398 L267.62794,31.05936 C267.515472,31.7828686 266.892508,32.316473 266.16031,32.31647 Z" id="Path" fill="#F06D6E" fill-rule="nonzero"></path>
                <path d="M258.2338,58.66681 L266.16031,58.66681 C266.892518,58.6668093 267.515485,59.2004295 267.62794,59.92395 L269.12956,69.58532 C269.196177,70.0139232 269.072105,70.4502307 268.789931,70.7796486 C268.507756,71.1090665 268.095679,71.2986734 267.66193,71.29867 L256.73218,71.29867 C256.298432,71.29867 255.886357,71.1090622 255.604183,70.7796451 C255.32201,70.4502281 255.197936,70.0139226 255.26455,69.58532 L256.76617,59.92395 C256.878625,59.2004295 257.501592,58.6668093 258.2338,58.66681 Z" id="Path" fill="#F06D6E" fill-rule="nonzero"></path>
                <path d="M275.37223,49.45489 L275.37223,41.52838 C275.372229,40.7961723 275.905849,40.1732051 276.62937,40.06075 L286.29073,38.55913 C286.719334,38.4925131 287.155642,38.6165849 287.485062,38.898759 C287.814481,39.1809331 288.00409,39.5930097 288.00409,40.02676 L288.00409,50.95651 C288.004094,51.3902615 287.814486,51.8023402 287.485065,52.0845151 C287.155645,52.3666899 286.719335,52.4907605 286.29073,52.42414 L276.62937,50.92252 C275.905849,50.8100649 275.372229,50.1870977 275.37223,49.45489 L275.37223,49.45489 Z" id="Path" fill="#F06D6E" fill-rule="nonzero"></path>
                <path d="M249.02189,41.52838 L249.02189,49.45489 C249.02189,50.1871009 248.488265,50.8100694 247.76474,50.92252 L238.10338,52.42414 C237.674776,52.4907569 237.238468,52.3666851 236.909048,52.084511 C236.579629,51.8023369 236.39002,51.3902603 236.39002,50.95651 L236.39002,40.02676 C236.390023,39.5930108 236.579633,39.1809364 236.909052,38.8987631 C237.23847,38.6165897 237.674776,38.4925166 238.10338,38.55913 L247.76474,40.06075 C248.488262,40.1732046 249.021886,40.7961706 249.02189,41.52838 Z" id="Path" fill="#F06D6E" fill-rule="nonzero"></path>
                <path d="M233.79239,17.82303 L227.10875,11.13939" id="Path" stroke="#313D3F" fill="#FFFFFF" fill-rule="nonzero" stroke-linecap="round" stroke-linejoin="round"></path>
                <path d="M289.48935,15.59515 L296.17298,8.91151" id="Path" stroke="#313D3F" fill="#FFFFFF" fill-rule="nonzero" stroke-linecap="round" stroke-linejoin="round"></path>
                <path d="M225.80838,43.07231 L221.23868,43.07231" id="Path" stroke="#313D3F" fill="#FFFFFF" fill-rule="nonzero" stroke-linecap="round" stroke-linejoin="round"></path>
                <path d="M303.15543,43.07231 L298.58574,43.07231" id="Path" stroke="#313D3F" fill="#FFFFFF" fill-rule="nonzero" stroke-linecap="round" stroke-linejoin="round"></path>
                <path d="M262.38349,0 L262.38349,4.45576" id="Path" stroke="#313D3F" fill="#FFFFFF" fill-rule="nonzero" stroke-linecap="round" stroke-linejoin="round"></path>
                <path d="M106.39828,13.21688 L106.39828,56.54413 C106.398529,57.4277964 106.047605,58.2753417 105.422758,58.9001883 C104.797912,59.5250348 103.950366,59.8759594 103.0667,59.87571 L98.36921,59.87571 L100.14321,66.43893 C100.186579,66.6027772 100.126633,66.776588 99.991481,66.8788653 C99.8563289,66.9811427 99.6727693,66.9916063 99.52687,66.90535 L87.86633,59.87571 L45.45533,59.87571 C44.5716627,59.8759594 43.7241163,59.5250351 43.0992682,58.9001889 C42.4744201,58.2753426 42.1234932,57.4277973 42.12374,56.54413 L42.12374,13.21688 C42.1234985,12.3332143 42.4744271,11.4856721 43.0992741,10.860827 C43.724121,10.2359819 44.5716643,9.88505588 45.45533,9.8853 L103.0667,9.8853 C103.950364,9.88505853 104.797905,10.2359857 105.422749,10.8608305 C106.047594,11.4856753 106.398521,12.333216 106.39828,13.21688 L106.39828,13.21688 Z" id="Path" stroke="#313D3F" stroke-width="1.2" fill="#FFFFFF" fill-rule="nonzero" stroke-linejoin="round"></path>
                <rect id="Rectangle" stroke="#313D3F" fill="#FFFFFF" fill-rule="nonzero" stroke-linecap="round" stroke-linejoin="round" x="5.39043" y="22.60363" width="13.67332" height="6.20574" rx="3.10287"></rect>
                <rect id="Rectangle" fill="#EEBF1B" fill-rule="nonzero" x="24.55585" y="22.60363" width="54.28949" height="6.20574" rx="3.10287"></rect>
                <path d="M84.82189,42.9 L84.82189,42.9 C84.82189,44.6154903 83.4312103,46.00617 81.71572,46.00617 L61.70141,46.00617 C60.0298271,46.0381124 58.613568,44.7817744 58.44595,43.11831 C58.382962,42.2601141 58.6797839,41.4143885 59.2652889,40.7837923 C59.8507939,40.1531961 60.672216,39.7945589 61.53272,39.79382 L81.71572,39.79382 C82.5395292,39.79382 83.3295972,40.1210776 83.9121174,40.7035997 C84.4946376,41.2861217 84.8218927,42.0761908 84.82189,42.9 Z" id="Path" fill="#EEBF1B" fill-rule="nonzero"></path>
                <rect id="Rectangle" stroke="#313D3F" fill="#FFFFFF" fill-rule="nonzero" stroke-linecap="round" stroke-linejoin="round" transform="translate(26.983005, 42.899720) rotate(-180.000000) translate(-26.983005, -42.899720) " x="5.39044" y="39.79685" width="43.18513" height="6.20574" rx="3.10287"></rect>
                <rect id="Rectangle" fill="#EEBF1B" fill-rule="nonzero" x="5.39043" y="74.18331" width="13.67332" height="6.20574" rx="3.10287"></rect>
                <rect id="Rectangle" stroke="#313D3F" fill="#FFFFFF" fill-rule="nonzero" stroke-linecap="round" stroke-linejoin="round" x="25.59922" y="74.18331" width="25.08089" height="6.20574" rx="3.10287"></rect>
                <rect id="Rectangle" fill="#EEBF1B" fill-rule="nonzero" x="59.25101" y="74.18331" width="25.33386" height="6.20574" rx="3.10287"></rect>
                <rect id="Rectangle" fill="#EEBF1B" fill-rule="nonzero" x="24.99936" y="56.99008" width="31.78501" height="6.20574" rx="3.10287"></rect>
                <rect id="Rectangle" stroke="#313D3F" fill="#FFFFFF" fill-rule="nonzero" stroke-linecap="round" stroke-linejoin="round" x="64.35352" y="56.99008" width="13.10067" height="6.20574" rx="3.10287"></rect>
                <rect id="Rectangle" stroke="#313D3F" fill="#FFFFFF" fill-rule="nonzero" stroke-linecap="round" stroke-linejoin="round" x="5.39043" y="56.99008" width="13.89579" height="6.20574" rx="3.10287"></rect>
                <path d="M18.5404394,144.560739 L18.5404394,144.560739 C20.1112256,144.560739 21.3845994,145.834113 21.3845994,147.404899 L21.3845994,157.359469 C21.3845994,158.930256 20.1112256,160.203629 18.5404394,160.203629 L18.5404394,160.203629 C16.9696587,160.203629 15.6962894,158.93026 15.6962894,157.359479 L15.6962894,147.404899 C15.6962894,145.834113 16.9696632,144.560739 18.5404494,144.560739 L18.5404394,144.560739 Z" id="Path" stroke="#5CC7DC" stroke-width="1.8" transform="translate(18.540444, 152.382184) rotate(125.560360) translate(-18.540444, -152.382184) "></path>
                <path d="M349.69847,79.56166 L336.59247,88.95443 C336.396194,89.095097 336.13773,89.1141741 335.922928,89.0038487 C335.708127,88.8935232 335.57307,88.6723275 335.57307,88.43085 L335.57307,69.6453 C335.57307,69.4038225 335.708127,69.1826268 335.922928,69.0723013 C336.13773,68.9619759 336.396194,68.981053 336.59247,69.12172 L349.69847,78.51449 C349.867268,78.6354668 349.967388,78.830402 349.967388,79.038075 C349.967388,79.245748 349.867268,79.4406832 349.69847,79.56166 Z" id="Path" fill="#5CC7DC" fill-rule="nonzero"></path>
                <circle id="Oval" fill="#39B780" fill-rule="nonzero" cx="392.65767" cy="143.45932" r="3.45932"></circle>
                <path d="M61.7821,106.05469 C65.3387061,108.177858 66.5007376,112.782224 64.37757,116.33883 C62.2544024,119.895436 57.6500361,121.057468 54.09343,118.9343" id="Path" stroke="#39B780" stroke-width="1.8"></path>
            </g>
        </g>
    </g>
</svg>