<?xml version="1.0" encoding="UTF-8"?>
<svg width="566px" height="260px" viewBox="0 0 566 260" version="1.1" xmlns="http://www.w3.org/2000/svg" xmlns:xlink="http://www.w3.org/1999/xlink">
    <!-- Generator: Sketch 53.1 (72631) - https://sketchapp.com -->
    <title>mobile -illo-services </title>
    <desc>Created with Sketch.</desc>
    <g id="mobile--illo-services-" stroke="none" stroke-width="1" fill="none" fill-rule="evenodd">
        <g id="mobile-services" transform="translate(134.000000, 32.000000)">
            <g id="mobile-services-1" stroke-width="1" fill-rule="evenodd">
                <ellipse id="Oval" fill="#BDE8F0" fill-rule="nonzero" cx="26.6485016" cy="8.49159635" rx="1.52878289" ry="1.53125"></ellipse>
                <ellipse id="Oval" fill="#BDE8F0" fill-rule="nonzero" cx="26.6485016" cy="16.7367887" rx="1.52878289" ry="1.53125"></ellipse>
                <ellipse id="Oval" fill="#BDE8F0" fill-rule="nonzero" cx="39.1139621" cy="8.49159635" rx="1.52878289" ry="1.53125"></ellipse>
                <ellipse id="Oval" fill="#BDE8F0" fill-rule="nonzero" cx="39.1139621" cy="16.7367887" rx="1.52878289" ry="1.53125"></ellipse>
                <ellipse id="Oval" fill="#BDE8F0" fill-rule="nonzero" cx="51.5794226" cy="8.49159635" rx="1.52878289" ry="1.53125"></ellipse>
                <ellipse id="Oval" fill="#BDE8F0" fill-rule="nonzero" cx="51.5794226" cy="16.7367887" rx="1.52878289" ry="1.53125"></ellipse>
                <ellipse id="Oval" fill="#BDE8F0" fill-rule="nonzero" cx="64.0448832" cy="8.49159635" rx="1.52878289" ry="1.53125"></ellipse>
                <ellipse id="Oval" fill="#BDE8F0" fill-rule="nonzero" cx="64.0448832" cy="16.7367887" rx="1.52878289" ry="1.53125"></ellipse>
                <ellipse id="Oval" fill="#BDE8F0" fill-rule="nonzero" cx="76.5103437" cy="8.49159635" rx="1.52878289" ry="1.53125"></ellipse>
                <ellipse id="Oval" fill="#BDE8F0" fill-rule="nonzero" cx="76.5103437" cy="16.7367887" rx="1.52878289" ry="1.53125"></ellipse>
                <ellipse id="Oval" fill="#BDE8F0" fill-rule="nonzero" cx="88.9758042" cy="8.49159635" rx="1.52878289" ry="1.53125"></ellipse>
                <ellipse id="Oval" fill="#BDE8F0" fill-rule="nonzero" cx="88.9758042" cy="16.7367887" rx="1.52878289" ry="1.53125"></ellipse>
                <ellipse id="Oval" fill="#BDE8F0" fill-rule="nonzero" cx="101.441265" cy="8.49159635" rx="1.52878289" ry="1.53125"></ellipse>
                <ellipse id="Oval" fill="#BDE8F0" fill-rule="nonzero" cx="101.441265" cy="16.7367887" rx="1.52878289" ry="1.53125"></ellipse>
                <ellipse id="Oval" fill="#BDE8F0" fill-rule="nonzero" cx="113.906725" cy="8.49159635" rx="1.52878289" ry="1.53125"></ellipse>
                <ellipse id="Oval" fill="#BDE8F0" fill-rule="nonzero" cx="113.906725" cy="16.7367887" rx="1.52878289" ry="1.53125"></ellipse>
                <ellipse id="Oval" fill="#BDE8F0" fill-rule="nonzero" cx="126.372186" cy="8.49159635" rx="1.52878289" ry="1.53125"></ellipse>
                <ellipse id="Oval" fill="#BDE8F0" fill-rule="nonzero" cx="126.372186" cy="16.7367887" rx="1.52878289" ry="1.53125"></ellipse>
                <ellipse id="Oval" fill="#BDE8F0" fill-rule="nonzero" cx="138.837646" cy="8.49159635" rx="1.52878289" ry="1.53125"></ellipse>
                <ellipse id="Oval" fill="#BDE8F0" fill-rule="nonzero" cx="138.837646" cy="16.7367887" rx="1.52878289" ry="1.53125"></ellipse>
                <ellipse id="Oval" fill="#BDE8F0" fill-rule="nonzero" cx="151.303107" cy="8.49159635" rx="1.52878289" ry="1.53125"></ellipse>
                <ellipse id="Oval" fill="#BDE8F0" fill-rule="nonzero" cx="151.303107" cy="16.7367887" rx="1.52878289" ry="1.53125"></ellipse>
                <ellipse id="Oval" fill="#BDE8F0" fill-rule="nonzero" cx="163.768567" cy="8.49159635" rx="1.52878289" ry="1.53125"></ellipse>
                <ellipse id="Oval" fill="#BDE8F0" fill-rule="nonzero" cx="163.768567" cy="16.7367887" rx="1.52878289" ry="1.53125"></ellipse>
                <ellipse id="Oval" fill="#BDE8F0" fill-rule="nonzero" cx="176.234028" cy="8.49159635" rx="1.52878289" ry="1.53125"></ellipse>
                <ellipse id="Oval" fill="#BDE8F0" fill-rule="nonzero" cx="176.234028" cy="16.7367887" rx="1.52878289" ry="1.53125"></ellipse>
                <ellipse id="Oval" fill="#BDE8F0" fill-rule="nonzero" cx="188.699488" cy="8.49159635" rx="1.52878289" ry="1.53125"></ellipse>
                <ellipse id="Oval" fill="#BDE8F0" fill-rule="nonzero" cx="188.699488" cy="16.7367887" rx="1.52878289" ry="1.53125"></ellipse>
                <ellipse id="Oval" fill="#BDE8F0" fill-rule="nonzero" cx="201.164949" cy="8.49159635" rx="1.52878289" ry="1.53125"></ellipse>
                <ellipse id="Oval" fill="#BDE8F0" fill-rule="nonzero" cx="201.164949" cy="16.7367887" rx="1.52878289" ry="1.53125"></ellipse>
                <ellipse id="Oval" fill="#BDE8F0" fill-rule="nonzero" cx="213.630409" cy="8.49159635" rx="1.52878289" ry="1.53125"></ellipse>
                <ellipse id="Oval" fill="#BDE8F0" fill-rule="nonzero" cx="213.630409" cy="16.7367887" rx="1.52878289" ry="1.53125"></ellipse>
                <ellipse id="Oval" fill="#BDE8F0" fill-rule="nonzero" cx="26.6485016" cy="25.1782919" rx="1.52878289" ry="1.53125"></ellipse>
                <ellipse id="Oval" fill="#BDE8F0" fill-rule="nonzero" cx="26.6485016" cy="33.4234842" rx="1.52878289" ry="1.53125"></ellipse>
                <ellipse id="Oval" fill="#BDE8F0" fill-rule="nonzero" cx="39.1139621" cy="25.1782919" rx="1.52878289" ry="1.53125"></ellipse>
                <ellipse id="Oval" fill="#BDE8F0" fill-rule="nonzero" cx="39.1139621" cy="33.4234842" rx="1.52878289" ry="1.53125"></ellipse>
                <ellipse id="Oval" fill="#BDE8F0" fill-rule="nonzero" cx="51.5794226" cy="25.1782919" rx="1.52878289" ry="1.53125"></ellipse>
                <ellipse id="Oval" fill="#BDE8F0" fill-rule="nonzero" cx="51.5794226" cy="33.4234842" rx="1.52878289" ry="1.53125"></ellipse>
                <ellipse id="Oval" fill="#BDE8F0" fill-rule="nonzero" cx="64.0448832" cy="25.1782919" rx="1.52878289" ry="1.53125"></ellipse>
                <ellipse id="Oval" fill="#BDE8F0" fill-rule="nonzero" cx="64.0448832" cy="33.4234842" rx="1.52878289" ry="1.53125"></ellipse>
                <ellipse id="Oval" fill="#BDE8F0" fill-rule="nonzero" cx="76.5103437" cy="25.1782919" rx="1.52878289" ry="1.53125"></ellipse>
                <ellipse id="Oval" fill="#BDE8F0" fill-rule="nonzero" cx="76.5103437" cy="33.4234842" rx="1.52878289" ry="1.53125"></ellipse>
                <ellipse id="Oval" fill="#BDE8F0" fill-rule="nonzero" cx="88.9758042" cy="25.1782919" rx="1.52878289" ry="1.53125"></ellipse>
                <ellipse id="Oval" fill="#BDE8F0" fill-rule="nonzero" cx="88.9758042" cy="33.4234842" rx="1.52878289" ry="1.53125"></ellipse>
                <ellipse id="Oval" fill="#BDE8F0" fill-rule="nonzero" cx="101.441265" cy="25.1782919" rx="1.52878289" ry="1.53125"></ellipse>
                <ellipse id="Oval" fill="#BDE8F0" fill-rule="nonzero" cx="101.441265" cy="33.4234842" rx="1.52878289" ry="1.53125"></ellipse>
                <ellipse id="Oval" fill="#BDE8F0" fill-rule="nonzero" cx="113.906725" cy="25.1782919" rx="1.52878289" ry="1.53125"></ellipse>
                <ellipse id="Oval" fill="#BDE8F0" fill-rule="nonzero" cx="113.906725" cy="33.4234842" rx="1.52878289" ry="1.53125"></ellipse>
                <ellipse id="Oval" fill="#BDE8F0" fill-rule="nonzero" cx="126.372186" cy="25.1782919" rx="1.52878289" ry="1.53125"></ellipse>
                <ellipse id="Oval" fill="#BDE8F0" fill-rule="nonzero" cx="126.372186" cy="33.4234842" rx="1.52878289" ry="1.53125"></ellipse>
                <ellipse id="Oval" fill="#BDE8F0" fill-rule="nonzero" cx="138.837646" cy="25.1782919" rx="1.52878289" ry="1.53125"></ellipse>
                <ellipse id="Oval" fill="#BDE8F0" fill-rule="nonzero" cx="138.837646" cy="33.4234842" rx="1.52878289" ry="1.53125"></ellipse>
                <ellipse id="Oval" fill="#BDE8F0" fill-rule="nonzero" cx="151.303107" cy="25.1782919" rx="1.52878289" ry="1.53125"></ellipse>
                <ellipse id="Oval" fill="#BDE8F0" fill-rule="nonzero" cx="151.303107" cy="33.4234842" rx="1.52878289" ry="1.53125"></ellipse>
                <ellipse id="Oval" fill="#BDE8F0" fill-rule="nonzero" cx="163.768567" cy="25.1782919" rx="1.52878289" ry="1.53125"></ellipse>
                <ellipse id="Oval" fill="#BDE8F0" fill-rule="nonzero" cx="163.768567" cy="33.4234842" rx="1.52878289" ry="1.53125"></ellipse>
                <ellipse id="Oval" fill="#BDE8F0" fill-rule="nonzero" cx="176.234028" cy="25.1782919" rx="1.52878289" ry="1.53125"></ellipse>
                <ellipse id="Oval" fill="#BDE8F0" fill-rule="nonzero" cx="176.234028" cy="33.4234842" rx="1.52878289" ry="1.53125"></ellipse>
                <ellipse id="Oval" fill="#BDE8F0" fill-rule="nonzero" cx="188.699488" cy="25.1782919" rx="1.52878289" ry="1.53125"></ellipse>
                <ellipse id="Oval" fill="#BDE8F0" fill-rule="nonzero" cx="188.699488" cy="33.4234842" rx="1.52878289" ry="1.53125"></ellipse>
                <ellipse id="Oval" fill="#BDE8F0" fill-rule="nonzero" cx="201.164949" cy="25.1782919" rx="1.52878289" ry="1.53125"></ellipse>
                <ellipse id="Oval" fill="#BDE8F0" fill-rule="nonzero" cx="201.164949" cy="33.4234842" rx="1.52878289" ry="1.53125"></ellipse>
                <ellipse id="Oval" fill="#BDE8F0" fill-rule="nonzero" cx="213.630409" cy="25.1782919" rx="1.52878289" ry="1.53125"></ellipse>
                <ellipse id="Oval" fill="#BDE8F0" fill-rule="nonzero" cx="213.630409" cy="33.4234842" rx="1.52878289" ry="1.53125"></ellipse>
                <ellipse id="Oval" fill="#BDE8F0" fill-rule="nonzero" cx="26.6485016" cy="42.8465612" rx="1.52878289" ry="1.53125"></ellipse>
                <ellipse id="Oval" fill="#BDE8F0" fill-rule="nonzero" cx="26.6485016" cy="51.0917535" rx="1.52878289" ry="1.53125"></ellipse>
                <ellipse id="Oval" fill="#BDE8F0" fill-rule="nonzero" cx="39.1139621" cy="42.8465612" rx="1.52878289" ry="1.53125"></ellipse>
                <ellipse id="Oval" fill="#BDE8F0" fill-rule="nonzero" cx="39.1139621" cy="51.0917535" rx="1.52878289" ry="1.53125"></ellipse>
                <ellipse id="Oval" fill="#BDE8F0" fill-rule="nonzero" cx="51.5794226" cy="42.8465612" rx="1.52878289" ry="1.53125"></ellipse>
                <ellipse id="Oval" fill="#BDE8F0" fill-rule="nonzero" cx="51.5794226" cy="51.0917535" rx="1.52878289" ry="1.53125"></ellipse>
                <ellipse id="Oval" fill="#BDE8F0" fill-rule="nonzero" cx="64.0448832" cy="42.8465612" rx="1.52878289" ry="1.53125"></ellipse>
                <ellipse id="Oval" fill="#BDE8F0" fill-rule="nonzero" cx="64.0448832" cy="51.0917535" rx="1.52878289" ry="1.53125"></ellipse>
                <ellipse id="Oval" fill="#BDE8F0" fill-rule="nonzero" cx="76.5103437" cy="42.8465612" rx="1.52878289" ry="1.53125"></ellipse>
                <ellipse id="Oval" fill="#BDE8F0" fill-rule="nonzero" cx="76.5103437" cy="51.0917535" rx="1.52878289" ry="1.53125"></ellipse>
                <ellipse id="Oval" fill="#BDE8F0" fill-rule="nonzero" cx="88.9758042" cy="42.8465612" rx="1.52878289" ry="1.53125"></ellipse>
                <ellipse id="Oval" fill="#BDE8F0" fill-rule="nonzero" cx="88.9758042" cy="51.0917535" rx="1.52878289" ry="1.53125"></ellipse>
                <ellipse id="Oval" fill="#BDE8F0" fill-rule="nonzero" cx="101.441265" cy="42.8465612" rx="1.52878289" ry="1.53125"></ellipse>
                <ellipse id="Oval" fill="#BDE8F0" fill-rule="nonzero" cx="101.441265" cy="51.0917535" rx="1.52878289" ry="1.53125"></ellipse>
                <ellipse id="Oval" fill="#BDE8F0" fill-rule="nonzero" cx="113.906725" cy="42.8465612" rx="1.52878289" ry="1.53125"></ellipse>
                <ellipse id="Oval" fill="#BDE8F0" fill-rule="nonzero" cx="113.906725" cy="51.0917535" rx="1.52878289" ry="1.53125"></ellipse>
                <ellipse id="Oval" fill="#BDE8F0" fill-rule="nonzero" cx="126.372186" cy="42.8465612" rx="1.52878289" ry="1.53125"></ellipse>
                <ellipse id="Oval" fill="#BDE8F0" fill-rule="nonzero" cx="126.372186" cy="51.0917535" rx="1.52878289" ry="1.53125"></ellipse>
                <ellipse id="Oval" fill="#BDE8F0" fill-rule="nonzero" cx="138.837646" cy="42.8465612" rx="1.52878289" ry="1.53125"></ellipse>
                <ellipse id="Oval" fill="#BDE8F0" fill-rule="nonzero" cx="138.837646" cy="51.0917535" rx="1.52878289" ry="1.53125"></ellipse>
                <ellipse id="Oval" fill="#BDE8F0" fill-rule="nonzero" cx="151.303107" cy="42.8465612" rx="1.52878289" ry="1.53125"></ellipse>
                <ellipse id="Oval" fill="#BDE8F0" fill-rule="nonzero" cx="151.303107" cy="51.0917535" rx="1.52878289" ry="1.53125"></ellipse>
                <ellipse id="Oval" fill="#BDE8F0" fill-rule="nonzero" cx="163.768567" cy="42.8465612" rx="1.52878289" ry="1.53125"></ellipse>
                <ellipse id="Oval" fill="#BDE8F0" fill-rule="nonzero" cx="163.768567" cy="51.0917535" rx="1.52878289" ry="1.53125"></ellipse>
                <ellipse id="Oval" fill="#BDE8F0" fill-rule="nonzero" cx="176.234028" cy="42.8465612" rx="1.52878289" ry="1.53125"></ellipse>
                <ellipse id="Oval" fill="#BDE8F0" fill-rule="nonzero" cx="176.234028" cy="51.0917535" rx="1.52878289" ry="1.53125"></ellipse>
                <ellipse id="Oval" fill="#BDE8F0" fill-rule="nonzero" cx="188.699488" cy="42.8465612" rx="1.52878289" ry="1.53125"></ellipse>
                <ellipse id="Oval" fill="#BDE8F0" fill-rule="nonzero" cx="188.699488" cy="51.0917535" rx="1.52878289" ry="1.53125"></ellipse>
                <ellipse id="Oval" fill="#BDE8F0" fill-rule="nonzero" cx="201.164949" cy="42.8465612" rx="1.52878289" ry="1.53125"></ellipse>
                <ellipse id="Oval" fill="#BDE8F0" fill-rule="nonzero" cx="201.164949" cy="51.0917535" rx="1.52878289" ry="1.53125"></ellipse>
                <ellipse id="Oval" fill="#BDE8F0" fill-rule="nonzero" cx="213.630409" cy="42.8465612" rx="1.52878289" ry="1.53125"></ellipse>
                <ellipse id="Oval" fill="#BDE8F0" fill-rule="nonzero" cx="213.630409" cy="51.0917535" rx="1.52878289" ry="1.53125"></ellipse>
                <ellipse id="Oval" fill="#BDE8F0" fill-rule="nonzero" cx="26.6485016" cy="59.5332662" rx="1.52878289" ry="1.53125"></ellipse>
                <ellipse id="Oval" fill="#BDE8F0" fill-rule="nonzero" cx="26.6485016" cy="67.7784585" rx="1.52878289" ry="1.53125"></ellipse>
                <ellipse id="Oval" fill="#BDE8F0" fill-rule="nonzero" cx="39.1139621" cy="59.5332662" rx="1.52878289" ry="1.53125"></ellipse>
                <ellipse id="Oval" fill="#BDE8F0" fill-rule="nonzero" cx="39.1139621" cy="67.7784585" rx="1.52878289" ry="1.53125"></ellipse>
                <ellipse id="Oval" fill="#BDE8F0" fill-rule="nonzero" cx="51.5794226" cy="59.5332662" rx="1.52878289" ry="1.53125"></ellipse>
                <ellipse id="Oval" fill="#BDE8F0" fill-rule="nonzero" cx="51.5794226" cy="67.7784585" rx="1.52878289" ry="1.53125"></ellipse>
                <ellipse id="Oval" fill="#BDE8F0" fill-rule="nonzero" cx="64.0448832" cy="59.5332662" rx="1.52878289" ry="1.53125"></ellipse>
                <ellipse id="Oval" fill="#BDE8F0" fill-rule="nonzero" cx="64.0448832" cy="67.7784585" rx="1.52878289" ry="1.53125"></ellipse>
                <ellipse id="Oval" fill="#BDE8F0" fill-rule="nonzero" cx="76.5103437" cy="59.5332662" rx="1.52878289" ry="1.53125"></ellipse>
                <ellipse id="Oval" fill="#BDE8F0" fill-rule="nonzero" cx="76.5103437" cy="67.7784585" rx="1.52878289" ry="1.53125"></ellipse>
                <ellipse id="Oval" fill="#BDE8F0" fill-rule="nonzero" cx="88.9758042" cy="59.5332662" rx="1.52878289" ry="1.53125"></ellipse>
                <ellipse id="Oval" fill="#BDE8F0" fill-rule="nonzero" cx="88.9758042" cy="67.7784585" rx="1.52878289" ry="1.53125"></ellipse>
                <ellipse id="Oval" fill="#BDE8F0" fill-rule="nonzero" cx="101.441265" cy="59.5332662" rx="1.52878289" ry="1.53125"></ellipse>
                <ellipse id="Oval" fill="#BDE8F0" fill-rule="nonzero" cx="101.441265" cy="67.7784585" rx="1.52878289" ry="1.53125"></ellipse>
                <ellipse id="Oval" fill="#BDE8F0" fill-rule="nonzero" cx="113.906725" cy="59.5332662" rx="1.52878289" ry="1.53125"></ellipse>
                <ellipse id="Oval" fill="#BDE8F0" fill-rule="nonzero" cx="113.906725" cy="67.7784585" rx="1.52878289" ry="1.53125"></ellipse>
                <ellipse id="Oval" fill="#BDE8F0" fill-rule="nonzero" cx="126.372186" cy="59.5332662" rx="1.52878289" ry="1.53125"></ellipse>
                <ellipse id="Oval" fill="#BDE8F0" fill-rule="nonzero" cx="126.372186" cy="67.7784585" rx="1.52878289" ry="1.53125"></ellipse>
                <ellipse id="Oval" fill="#BDE8F0" fill-rule="nonzero" cx="138.837646" cy="59.5332662" rx="1.52878289" ry="1.53125"></ellipse>
                <ellipse id="Oval" fill="#BDE8F0" fill-rule="nonzero" cx="138.837646" cy="67.7784585" rx="1.52878289" ry="1.53125"></ellipse>
                <ellipse id="Oval" fill="#BDE8F0" fill-rule="nonzero" cx="151.303107" cy="59.5332662" rx="1.52878289" ry="1.53125"></ellipse>
                <ellipse id="Oval" fill="#BDE8F0" fill-rule="nonzero" cx="151.303107" cy="67.7784585" rx="1.52878289" ry="1.53125"></ellipse>
                <ellipse id="Oval" fill="#BDE8F0" fill-rule="nonzero" cx="163.768567" cy="59.5332662" rx="1.52878289" ry="1.53125"></ellipse>
                <ellipse id="Oval" fill="#BDE8F0" fill-rule="nonzero" cx="163.768567" cy="67.7784585" rx="1.52878289" ry="1.53125"></ellipse>
                <ellipse id="Oval" fill="#BDE8F0" fill-rule="nonzero" cx="176.234028" cy="59.5332662" rx="1.52878289" ry="1.53125"></ellipse>
                <ellipse id="Oval" fill="#BDE8F0" fill-rule="nonzero" cx="176.234028" cy="67.7784585" rx="1.52878289" ry="1.53125"></ellipse>
                <ellipse id="Oval" fill="#BDE8F0" fill-rule="nonzero" cx="188.699488" cy="59.5332662" rx="1.52878289" ry="1.53125"></ellipse>
                <ellipse id="Oval" fill="#BDE8F0" fill-rule="nonzero" cx="188.699488" cy="67.7784585" rx="1.52878289" ry="1.53125"></ellipse>
                <ellipse id="Oval" fill="#BDE8F0" fill-rule="nonzero" cx="201.164949" cy="59.5332662" rx="1.52878289" ry="1.53125"></ellipse>
                <ellipse id="Oval" fill="#BDE8F0" fill-rule="nonzero" cx="201.164949" cy="67.7784585" rx="1.52878289" ry="1.53125"></ellipse>
                <ellipse id="Oval" fill="#BDE8F0" fill-rule="nonzero" cx="213.630409" cy="59.5332662" rx="1.52878289" ry="1.53125"></ellipse>
                <ellipse id="Oval" fill="#BDE8F0" fill-rule="nonzero" cx="213.630409" cy="67.7784585" rx="1.52878289" ry="1.53125"></ellipse>
                <ellipse id="Oval" fill="#BDE8F0" fill-rule="nonzero" cx="26.6485016" cy="76.2592277" rx="1.52878289" ry="1.53125"></ellipse>
                <ellipse id="Oval" fill="#BDE8F0" fill-rule="nonzero" cx="26.6485016" cy="84.50442" rx="1.52878289" ry="1.53125"></ellipse>
                <ellipse id="Oval" fill="#BDE8F0" fill-rule="nonzero" cx="39.1139621" cy="76.2592277" rx="1.52878289" ry="1.53125"></ellipse>
                <ellipse id="Oval" fill="#BDE8F0" fill-rule="nonzero" cx="39.1139621" cy="84.50442" rx="1.52878289" ry="1.53125"></ellipse>
                <ellipse id="Oval" fill="#BDE8F0" fill-rule="nonzero" cx="51.5794226" cy="76.2592277" rx="1.52878289" ry="1.53125"></ellipse>
                <ellipse id="Oval" fill="#BDE8F0" fill-rule="nonzero" cx="51.5794226" cy="84.50442" rx="1.52878289" ry="1.53125"></ellipse>
                <ellipse id="Oval" fill="#BDE8F0" fill-rule="nonzero" cx="64.0448832" cy="76.2592277" rx="1.52878289" ry="1.53125"></ellipse>
                <ellipse id="Oval" fill="#BDE8F0" fill-rule="nonzero" cx="64.0448832" cy="84.50442" rx="1.52878289" ry="1.53125"></ellipse>
                <ellipse id="Oval" fill="#BDE8F0" fill-rule="nonzero" cx="76.5103437" cy="76.2592277" rx="1.52878289" ry="1.53125"></ellipse>
                <ellipse id="Oval" fill="#BDE8F0" fill-rule="nonzero" cx="76.5103437" cy="84.50442" rx="1.52878289" ry="1.53125"></ellipse>
                <ellipse id="Oval" fill="#BDE8F0" fill-rule="nonzero" cx="88.9758042" cy="76.2592277" rx="1.52878289" ry="1.53125"></ellipse>
                <ellipse id="Oval" fill="#BDE8F0" fill-rule="nonzero" cx="88.9758042" cy="84.50442" rx="1.52878289" ry="1.53125"></ellipse>
                <ellipse id="Oval" fill="#BDE8F0" fill-rule="nonzero" cx="101.441265" cy="76.2592277" rx="1.52878289" ry="1.53125"></ellipse>
                <ellipse id="Oval" fill="#BDE8F0" fill-rule="nonzero" cx="101.441265" cy="84.50442" rx="1.52878289" ry="1.53125"></ellipse>
                <ellipse id="Oval" fill="#BDE8F0" fill-rule="nonzero" cx="113.906725" cy="76.2592277" rx="1.52878289" ry="1.53125"></ellipse>
                <ellipse id="Oval" fill="#BDE8F0" fill-rule="nonzero" cx="113.906725" cy="84.50442" rx="1.52878289" ry="1.53125"></ellipse>
                <ellipse id="Oval" fill="#BDE8F0" fill-rule="nonzero" cx="126.372186" cy="76.2592277" rx="1.52878289" ry="1.53125"></ellipse>
                <ellipse id="Oval" fill="#BDE8F0" fill-rule="nonzero" cx="126.372186" cy="84.50442" rx="1.52878289" ry="1.53125"></ellipse>
                <ellipse id="Oval" fill="#BDE8F0" fill-rule="nonzero" cx="138.837646" cy="76.2592277" rx="1.52878289" ry="1.53125"></ellipse>
                <ellipse id="Oval" fill="#BDE8F0" fill-rule="nonzero" cx="138.837646" cy="84.50442" rx="1.52878289" ry="1.53125"></ellipse>
                <ellipse id="Oval" fill="#BDE8F0" fill-rule="nonzero" cx="151.303107" cy="76.2592277" rx="1.52878289" ry="1.53125"></ellipse>
                <ellipse id="Oval" fill="#BDE8F0" fill-rule="nonzero" cx="151.303107" cy="84.50442" rx="1.52878289" ry="1.53125"></ellipse>
                <ellipse id="Oval" fill="#BDE8F0" fill-rule="nonzero" cx="163.768567" cy="76.2592277" rx="1.52878289" ry="1.53125"></ellipse>
                <ellipse id="Oval" fill="#BDE8F0" fill-rule="nonzero" cx="163.768567" cy="84.50442" rx="1.52878289" ry="1.53125"></ellipse>
                <ellipse id="Oval" fill="#BDE8F0" fill-rule="nonzero" cx="176.234028" cy="76.2592277" rx="1.52878289" ry="1.53125"></ellipse>
                <ellipse id="Oval" fill="#BDE8F0" fill-rule="nonzero" cx="176.234028" cy="84.50442" rx="1.52878289" ry="1.53125"></ellipse>
                <ellipse id="Oval" fill="#BDE8F0" fill-rule="nonzero" cx="188.699488" cy="76.2592277" rx="1.52878289" ry="1.53125"></ellipse>
                <ellipse id="Oval" fill="#BDE8F0" fill-rule="nonzero" cx="188.699488" cy="84.50442" rx="1.52878289" ry="1.53125"></ellipse>
                <ellipse id="Oval" fill="#BDE8F0" fill-rule="nonzero" cx="201.164949" cy="76.2592277" rx="1.52878289" ry="1.53125"></ellipse>
                <ellipse id="Oval" fill="#BDE8F0" fill-rule="nonzero" cx="201.164949" cy="84.50442" rx="1.52878289" ry="1.53125"></ellipse>
                <ellipse id="Oval" fill="#BDE8F0" fill-rule="nonzero" cx="213.630409" cy="76.2592277" rx="1.52878289" ry="1.53125"></ellipse>
                <ellipse id="Oval" fill="#BDE8F0" fill-rule="nonzero" cx="213.630409" cy="84.50442" rx="1.52878289" ry="1.53125"></ellipse>
                <ellipse id="Oval" fill="#BDE8F0" fill-rule="nonzero" cx="26.6485016" cy="92.9459233" rx="1.52878289" ry="1.53125"></ellipse>
                <ellipse id="Oval" fill="#BDE8F0" fill-rule="nonzero" cx="26.6485016" cy="101.191116" rx="1.52878289" ry="1.53125"></ellipse>
                <ellipse id="Oval" fill="#BDE8F0" fill-rule="nonzero" cx="39.1139621" cy="92.9459233" rx="1.52878289" ry="1.53125"></ellipse>
                <ellipse id="Oval" fill="#BDE8F0" fill-rule="nonzero" cx="39.1139621" cy="101.191116" rx="1.52878289" ry="1.53125"></ellipse>
                <ellipse id="Oval" fill="#BDE8F0" fill-rule="nonzero" cx="51.5794226" cy="92.9459233" rx="1.52878289" ry="1.53125"></ellipse>
                <ellipse id="Oval" fill="#BDE8F0" fill-rule="nonzero" cx="51.5794226" cy="101.191116" rx="1.52878289" ry="1.53125"></ellipse>
                <ellipse id="Oval" fill="#BDE8F0" fill-rule="nonzero" cx="64.0448832" cy="92.9459233" rx="1.52878289" ry="1.53125"></ellipse>
                <ellipse id="Oval" fill="#BDE8F0" fill-rule="nonzero" cx="64.0448832" cy="101.191116" rx="1.52878289" ry="1.53125"></ellipse>
                <ellipse id="Oval" fill="#BDE8F0" fill-rule="nonzero" cx="76.5103437" cy="92.9459233" rx="1.52878289" ry="1.53125"></ellipse>
                <ellipse id="Oval" fill="#BDE8F0" fill-rule="nonzero" cx="76.5103437" cy="101.191116" rx="1.52878289" ry="1.53125"></ellipse>
                <ellipse id="Oval" fill="#BDE8F0" fill-rule="nonzero" cx="88.9758042" cy="92.9459233" rx="1.52878289" ry="1.53125"></ellipse>
                <ellipse id="Oval" fill="#BDE8F0" fill-rule="nonzero" cx="88.9758042" cy="101.191116" rx="1.52878289" ry="1.53125"></ellipse>
                <ellipse id="Oval" fill="#BDE8F0" fill-rule="nonzero" cx="101.441265" cy="92.9459233" rx="1.52878289" ry="1.53125"></ellipse>
                <ellipse id="Oval" fill="#BDE8F0" fill-rule="nonzero" cx="101.441265" cy="101.191116" rx="1.52878289" ry="1.53125"></ellipse>
                <ellipse id="Oval" fill="#BDE8F0" fill-rule="nonzero" cx="113.906725" cy="92.9459233" rx="1.52878289" ry="1.53125"></ellipse>
                <ellipse id="Oval" fill="#BDE8F0" fill-rule="nonzero" cx="113.906725" cy="101.191116" rx="1.52878289" ry="1.53125"></ellipse>
                <ellipse id="Oval" fill="#BDE8F0" fill-rule="nonzero" cx="126.372186" cy="92.9459233" rx="1.52878289" ry="1.53125"></ellipse>
                <ellipse id="Oval" fill="#BDE8F0" fill-rule="nonzero" cx="126.372186" cy="101.191116" rx="1.52878289" ry="1.53125"></ellipse>
                <ellipse id="Oval" fill="#BDE8F0" fill-rule="nonzero" cx="138.837646" cy="92.9459233" rx="1.52878289" ry="1.53125"></ellipse>
                <ellipse id="Oval" fill="#BDE8F0" fill-rule="nonzero" cx="138.837646" cy="101.191116" rx="1.52878289" ry="1.53125"></ellipse>
                <ellipse id="Oval" fill="#BDE8F0" fill-rule="nonzero" cx="151.303107" cy="92.9459233" rx="1.52878289" ry="1.53125"></ellipse>
                <ellipse id="Oval" fill="#BDE8F0" fill-rule="nonzero" cx="151.303107" cy="101.191116" rx="1.52878289" ry="1.53125"></ellipse>
                <ellipse id="Oval" fill="#BDE8F0" fill-rule="nonzero" cx="163.768567" cy="92.9459233" rx="1.52878289" ry="1.53125"></ellipse>
                <ellipse id="Oval" fill="#BDE8F0" fill-rule="nonzero" cx="163.768567" cy="101.191116" rx="1.52878289" ry="1.53125"></ellipse>
                <ellipse id="Oval" fill="#BDE8F0" fill-rule="nonzero" cx="176.234028" cy="92.9459233" rx="1.52878289" ry="1.53125"></ellipse>
                <ellipse id="Oval" fill="#BDE8F0" fill-rule="nonzero" cx="176.234028" cy="101.191116" rx="1.52878289" ry="1.53125"></ellipse>
                <ellipse id="Oval" fill="#BDE8F0" fill-rule="nonzero" cx="188.699488" cy="92.9459233" rx="1.52878289" ry="1.53125"></ellipse>
                <ellipse id="Oval" fill="#BDE8F0" fill-rule="nonzero" cx="188.699488" cy="101.191116" rx="1.52878289" ry="1.53125"></ellipse>
                <ellipse id="Oval" fill="#BDE8F0" fill-rule="nonzero" cx="201.164949" cy="92.9459233" rx="1.52878289" ry="1.53125"></ellipse>
                <ellipse id="Oval" fill="#BDE8F0" fill-rule="nonzero" cx="201.164949" cy="101.191116" rx="1.52878289" ry="1.53125"></ellipse>
                <ellipse id="Oval" fill="#BDE8F0" fill-rule="nonzero" cx="213.630409" cy="92.9459233" rx="1.52878289" ry="1.53125"></ellipse>
                <ellipse id="Oval" fill="#BDE8F0" fill-rule="nonzero" cx="213.630409" cy="101.191116" rx="1.52878289" ry="1.53125"></ellipse>
                <ellipse id="Oval" fill="#BDE8F0" fill-rule="nonzero" cx="26.6485016" cy="110.614193" rx="1.52878289" ry="1.53125"></ellipse>
                <ellipse id="Oval" fill="#BDE8F0" fill-rule="nonzero" cx="26.6485016" cy="118.859385" rx="1.52878289" ry="1.53125"></ellipse>
                <ellipse id="Oval" fill="#BDE8F0" fill-rule="nonzero" cx="39.1139621" cy="110.614193" rx="1.52878289" ry="1.53125"></ellipse>
                <ellipse id="Oval" fill="#BDE8F0" fill-rule="nonzero" cx="39.1139621" cy="118.859385" rx="1.52878289" ry="1.53125"></ellipse>
                <ellipse id="Oval" fill="#BDE8F0" fill-rule="nonzero" cx="51.5794226" cy="110.614193" rx="1.52878289" ry="1.53125"></ellipse>
                <ellipse id="Oval" fill="#BDE8F0" fill-rule="nonzero" cx="51.5794226" cy="118.859385" rx="1.52878289" ry="1.53125"></ellipse>
                <ellipse id="Oval" fill="#BDE8F0" fill-rule="nonzero" cx="64.0448832" cy="110.614193" rx="1.52878289" ry="1.53125"></ellipse>
                <ellipse id="Oval" fill="#BDE8F0" fill-rule="nonzero" cx="64.0448832" cy="118.859385" rx="1.52878289" ry="1.53125"></ellipse>
                <ellipse id="Oval" fill="#BDE8F0" fill-rule="nonzero" cx="76.5103437" cy="110.614193" rx="1.52878289" ry="1.53125"></ellipse>
                <ellipse id="Oval" fill="#BDE8F0" fill-rule="nonzero" cx="76.5103437" cy="118.859385" rx="1.52878289" ry="1.53125"></ellipse>
                <ellipse id="Oval" fill="#BDE8F0" fill-rule="nonzero" cx="88.9758042" cy="110.614193" rx="1.52878289" ry="1.53125"></ellipse>
                <ellipse id="Oval" fill="#BDE8F0" fill-rule="nonzero" cx="88.9758042" cy="118.859385" rx="1.52878289" ry="1.53125"></ellipse>
                <ellipse id="Oval" fill="#BDE8F0" fill-rule="nonzero" cx="101.441265" cy="110.614193" rx="1.52878289" ry="1.53125"></ellipse>
                <ellipse id="Oval" fill="#BDE8F0" fill-rule="nonzero" cx="101.441265" cy="118.859385" rx="1.52878289" ry="1.53125"></ellipse>
                <ellipse id="Oval" fill="#BDE8F0" fill-rule="nonzero" cx="113.906725" cy="110.614193" rx="1.52878289" ry="1.53125"></ellipse>
                <ellipse id="Oval" fill="#BDE8F0" fill-rule="nonzero" cx="113.906725" cy="118.859385" rx="1.52878289" ry="1.53125"></ellipse>
                <ellipse id="Oval" fill="#BDE8F0" fill-rule="nonzero" cx="126.372186" cy="110.614193" rx="1.52878289" ry="1.53125"></ellipse>
                <ellipse id="Oval" fill="#BDE8F0" fill-rule="nonzero" cx="126.372186" cy="118.859385" rx="1.52878289" ry="1.53125"></ellipse>
                <ellipse id="Oval" fill="#BDE8F0" fill-rule="nonzero" cx="138.837646" cy="110.614193" rx="1.52878289" ry="1.53125"></ellipse>
                <ellipse id="Oval" fill="#BDE8F0" fill-rule="nonzero" cx="138.837646" cy="118.859385" rx="1.52878289" ry="1.53125"></ellipse>
                <ellipse id="Oval" fill="#BDE8F0" fill-rule="nonzero" cx="151.303107" cy="110.614193" rx="1.52878289" ry="1.53125"></ellipse>
                <ellipse id="Oval" fill="#BDE8F0" fill-rule="nonzero" cx="151.303107" cy="118.859385" rx="1.52878289" ry="1.53125"></ellipse>
                <ellipse id="Oval" fill="#BDE8F0" fill-rule="nonzero" cx="163.768567" cy="110.614193" rx="1.52878289" ry="1.53125"></ellipse>
                <ellipse id="Oval" fill="#BDE8F0" fill-rule="nonzero" cx="163.768567" cy="118.859385" rx="1.52878289" ry="1.53125"></ellipse>
                <ellipse id="Oval" fill="#BDE8F0" fill-rule="nonzero" cx="176.234028" cy="110.614193" rx="1.52878289" ry="1.53125"></ellipse>
                <ellipse id="Oval" fill="#BDE8F0" fill-rule="nonzero" cx="176.234028" cy="118.859385" rx="1.52878289" ry="1.53125"></ellipse>
                <ellipse id="Oval" fill="#BDE8F0" fill-rule="nonzero" cx="188.699488" cy="110.614193" rx="1.52878289" ry="1.53125"></ellipse>
                <ellipse id="Oval" fill="#BDE8F0" fill-rule="nonzero" cx="188.699488" cy="118.859385" rx="1.52878289" ry="1.53125"></ellipse>
                <ellipse id="Oval" fill="#BDE8F0" fill-rule="nonzero" cx="201.164949" cy="110.614193" rx="1.52878289" ry="1.53125"></ellipse>
                <ellipse id="Oval" fill="#BDE8F0" fill-rule="nonzero" cx="201.164949" cy="118.859385" rx="1.52878289" ry="1.53125"></ellipse>
                <ellipse id="Oval" fill="#BDE8F0" fill-rule="nonzero" cx="213.630409" cy="110.614193" rx="1.52878289" ry="1.53125"></ellipse>
                <ellipse id="Oval" fill="#BDE8F0" fill-rule="nonzero" cx="213.630409" cy="118.859385" rx="1.52878289" ry="1.53125"></ellipse>
                <ellipse id="Oval" fill="#BDE8F0" fill-rule="nonzero" cx="26.6485016" cy="127.300888" rx="1.52878289" ry="1.53125"></ellipse>
                <ellipse id="Oval" fill="#BDE8F0" fill-rule="nonzero" cx="26.6485016" cy="135.54608" rx="1.52878289" ry="1.53125"></ellipse>
                <ellipse id="Oval" fill="#BDE8F0" fill-rule="nonzero" cx="39.1139621" cy="127.300888" rx="1.52878289" ry="1.53125"></ellipse>
                <ellipse id="Oval" fill="#BDE8F0" fill-rule="nonzero" cx="39.1139621" cy="135.54608" rx="1.52878289" ry="1.53125"></ellipse>
                <ellipse id="Oval" fill="#BDE8F0" fill-rule="nonzero" cx="51.5794226" cy="127.300888" rx="1.52878289" ry="1.53125"></ellipse>
                <ellipse id="Oval" fill="#BDE8F0" fill-rule="nonzero" cx="51.5794226" cy="135.54608" rx="1.52878289" ry="1.53125"></ellipse>
                <ellipse id="Oval" fill="#BDE8F0" fill-rule="nonzero" cx="64.0448832" cy="127.300888" rx="1.52878289" ry="1.53125"></ellipse>
                <ellipse id="Oval" fill="#BDE8F0" fill-rule="nonzero" cx="64.0448832" cy="135.54608" rx="1.52878289" ry="1.53125"></ellipse>
                <ellipse id="Oval" fill="#BDE8F0" fill-rule="nonzero" cx="76.5103437" cy="127.300888" rx="1.52878289" ry="1.53125"></ellipse>
                <ellipse id="Oval" fill="#BDE8F0" fill-rule="nonzero" cx="76.5103437" cy="135.54608" rx="1.52878289" ry="1.53125"></ellipse>
                <ellipse id="Oval" fill="#BDE8F0" fill-rule="nonzero" cx="88.9758042" cy="127.300888" rx="1.52878289" ry="1.53125"></ellipse>
                <ellipse id="Oval" fill="#BDE8F0" fill-rule="nonzero" cx="88.9758042" cy="135.54608" rx="1.52878289" ry="1.53125"></ellipse>
                <ellipse id="Oval" fill="#BDE8F0" fill-rule="nonzero" cx="101.441265" cy="127.300888" rx="1.52878289" ry="1.53125"></ellipse>
                <ellipse id="Oval" fill="#BDE8F0" fill-rule="nonzero" cx="101.441265" cy="135.54608" rx="1.52878289" ry="1.53125"></ellipse>
                <ellipse id="Oval" fill="#BDE8F0" fill-rule="nonzero" cx="113.906725" cy="127.300888" rx="1.52878289" ry="1.53125"></ellipse>
                <ellipse id="Oval" fill="#BDE8F0" fill-rule="nonzero" cx="113.906725" cy="135.54608" rx="1.52878289" ry="1.53125"></ellipse>
                <ellipse id="Oval" fill="#BDE8F0" fill-rule="nonzero" cx="126.372186" cy="127.300888" rx="1.52878289" ry="1.53125"></ellipse>
                <ellipse id="Oval" fill="#BDE8F0" fill-rule="nonzero" cx="126.372186" cy="135.54608" rx="1.52878289" ry="1.53125"></ellipse>
                <ellipse id="Oval" fill="#BDE8F0" fill-rule="nonzero" cx="138.837646" cy="127.300888" rx="1.52878289" ry="1.53125"></ellipse>
                <ellipse id="Oval" fill="#BDE8F0" fill-rule="nonzero" cx="138.837646" cy="135.54608" rx="1.52878289" ry="1.53125"></ellipse>
                <ellipse id="Oval" fill="#BDE8F0" fill-rule="nonzero" cx="151.303107" cy="127.300888" rx="1.52878289" ry="1.53125"></ellipse>
                <ellipse id="Oval" fill="#BDE8F0" fill-rule="nonzero" cx="151.303107" cy="135.54608" rx="1.52878289" ry="1.53125"></ellipse>
                <ellipse id="Oval" fill="#BDE8F0" fill-rule="nonzero" cx="163.768567" cy="127.300888" rx="1.52878289" ry="1.53125"></ellipse>
                <ellipse id="Oval" fill="#BDE8F0" fill-rule="nonzero" cx="163.768567" cy="135.54608" rx="1.52878289" ry="1.53125"></ellipse>
                <ellipse id="Oval" fill="#BDE8F0" fill-rule="nonzero" cx="176.234028" cy="127.300888" rx="1.52878289" ry="1.53125"></ellipse>
                <ellipse id="Oval" fill="#BDE8F0" fill-rule="nonzero" cx="176.234028" cy="135.54608" rx="1.52878289" ry="1.53125"></ellipse>
                <ellipse id="Oval" fill="#BDE8F0" fill-rule="nonzero" cx="188.699488" cy="127.300888" rx="1.52878289" ry="1.53125"></ellipse>
                <ellipse id="Oval" fill="#BDE8F0" fill-rule="nonzero" cx="188.699488" cy="135.54608" rx="1.52878289" ry="1.53125"></ellipse>
                <ellipse id="Oval" fill="#BDE8F0" fill-rule="nonzero" cx="201.164949" cy="127.300888" rx="1.52878289" ry="1.53125"></ellipse>
                <ellipse id="Oval" fill="#BDE8F0" fill-rule="nonzero" cx="201.164949" cy="135.54608" rx="1.52878289" ry="1.53125"></ellipse>
                <ellipse id="Oval" fill="#BDE8F0" fill-rule="nonzero" cx="213.630409" cy="127.300888" rx="1.52878289" ry="1.53125"></ellipse>
                <ellipse id="Oval" fill="#BDE8F0" fill-rule="nonzero" cx="213.630409" cy="135.54608" rx="1.52878289" ry="1.53125"></ellipse>
                <path d="M53.9313963,114.383423 L53.9313963,152.38983 C53.9313963,157.594052 58.1434543,161.812907 63.3392911,161.812907 L170.589291,161.812907" id="Path" stroke="#313D3F" stroke-width="1.12896007" stroke-dasharray="3.763200222778323"></path>
                <rect id="Rectangle" stroke="#313D3F" stroke-width="1.12896007" fill="#FFFFFF" fill-rule="nonzero" x="151.032903" y="31.259484" width="87.9652834" height="163.961538" rx="10.2546077"></rect>
                <rect id="Rectangle" stroke="#313D3F" stroke-width="1.12896007" fill="#FFFFFF" fill-rule="nonzero" x="155.156129" y="51.7804108" width="79.7188403" height="116.649692" rx="0.732469291"></rect>
                <ellipse id="Oval" stroke="#313D3F" stroke-width="0.940800056" fill="#FFFFFF" fill-rule="nonzero" cx="184.213475" cy="43.8460858" rx="1.98125559" ry="1.98445288"></ellipse>
                <rect id="Rectangle" stroke="#313D3F" stroke-width="0.940800056" fill="#FFFFFF" fill-rule="nonzero" x="189.166572" y="42.9718975" width="18.6322979" height="1.74838596" rx="0.87250738"></rect>
                <ellipse id="Oval" fill="#313D3F" fill-rule="nonzero" cx="195.015544" cy="37.2903192" rx="1.48593934" ry="1.48833731"></ellipse>
                <ellipse id="Oval" stroke="#313D3F" stroke-width="1.12896007" fill="#FFFFFF" fill-rule="nonzero" cx="195.015544" cy="181.866779" rx="8.47089664" ry="8.48456673"></ellipse>
                <rect id="Rectangle" stroke="#313D3F" stroke-width="1.05177683" fill="#FFFFFF" fill-rule="nonzero" x="161.338198" y="61.3786156" width="17.953396" height="17.9823687" rx="1.58413795"></rect>
                <rect id="Rectangle" stroke="#313D3F" stroke-width="1.05177683" fill="#FFFFFF" fill-rule="nonzero" x="185.694089" y="61.3786156" width="17.953396" height="17.9823687" rx="1.58413795"></rect>
                <rect id="Rectangle" fill="#E2E7E7" fill-rule="nonzero" x="210.049991" y="61.3786156" width="17.953396" height="17.9823687" rx="1.58413795"></rect>
                <rect id="Rectangle" fill="#E2E7E7" fill-rule="nonzero" x="161.338198" y="87.2920771" width="17.953396" height="17.9823687" rx="1.58413795"></rect>
                <rect id="Rectangle" fill="#D3D3D3" fill-rule="nonzero" x="185.694089" y="87.2920771" width="17.953396" height="17.9823687" rx="1.58413795"></rect>
                <rect id="Rectangle" fill="#E2E7E7" fill-rule="nonzero" x="210.049991" y="87.2920771" width="17.953396" height="17.9823687" rx="1.58413795"></rect>
                <rect id="Rectangle" fill="#5CC7DC" fill-rule="nonzero" x="161.338198" y="113.205539" width="17.953396" height="17.9823687" rx="1.58413795"></rect>
                <rect id="Rectangle" fill="#E2E7E7" fill-rule="nonzero" x="185.694089" y="113.205539" width="17.953396" height="17.9823687" rx="1.58413795"></rect>
                <rect id="Rectangle" fill="#E2E7E7" fill-rule="nonzero" x="210.049991" y="113.205539" width="17.953396" height="17.9823687" rx="1.58413795"></rect>
                <rect id="Rectangle" fill="#D3D3D3" fill-rule="nonzero" x="161.338198" y="139.119" width="17.953396" height="17.9823687" rx="1.58413795"></rect>
                <rect id="Rectangle" fill="#E2E7E7" fill-rule="nonzero" x="185.694089" y="139.119" width="17.953396" height="17.9823687" rx="1.58413795"></rect>
                <rect id="Rectangle" stroke="#313D3F" stroke-width="1.05177683" fill="#FFFFFF" fill-rule="nonzero" x="210.049991" y="139.119" width="17.953396" height="17.9823687" rx="1.58413795"></rect>
                <rect id="Rectangle" fill="#EEBF1B" fill-rule="nonzero" x="11.9094634" y="65.0218033" width="69.7370076" height="53.5556619" rx="3.9504947"></rect>
                <text id="&lt;/&gt;" fill="#313D3F" font-family="DINNextCYR-Regular, DIN Next CYR" font-size="29.9761571" font-weight="normal">
                    <tspan x="24.7974324" y="100.378576">&lt;/&gt;</tspan>
                </text>
                <path d="M85.9772259,11.6132073 L71.5203681,21.9907854 C71.4438128,22.0457399 71.3430014,22.0531928 71.2592202,22.010092 C71.1754391,21.9669911 71.1227619,21.8805765 71.1227622,21.7862387 L71.1227622,1.03107308 C71.1227619,0.936735196 71.1754391,0.850320637 71.2592202,0.807219771 C71.3430014,0.764118906 71.4438128,0.771571863 71.5203681,0.826526346 L85.9772259,11.2041044 C86.0430642,11.2513673 86.0821155,11.3275235 86.0821155,11.4086559 C86.0821155,11.4897883 86.0430642,11.5659444 85.9772259,11.6132073 L85.9772259,11.6132073 Z" id="Path" stroke="#F06D6E" stroke-width="1.50528009"></path>
                <path d="M285.553351,8.37486327 C278.149283,8.37486327 272.147101,14.386732 272.147101,21.8027479 C272.147101,29.2187638 278.149283,35.2306325 285.553351,35.2306325" id="Path" stroke="#EEBF1B" stroke-width="1.41120008"></path>
                <path d="M0.0629388158,155.374873 C4.21960825,155.374873 7.58925461,151.999788 7.58925461,147.836411 C7.58925461,143.673034 4.21960825,140.29795 0.0629388158,140.29795" id="Path" stroke="#36B998" stroke-width="1.41120008"></path>
                <ellipse id="Oval" fill="#36B998" fill-rule="nonzero" cx="264.980571" cy="88.5769231" rx="2.56787546" ry="2.57201942"></ellipse>
            </g>
            <polygon id="Rectangle" stroke="#B4B4B4" stroke-width="1.10159995" opacity="0.3" transform="translate(290.328409, 158.328709) rotate(-141.409390) translate(-290.328409, -158.328709) " points="285.114692 153.113091 295.533767 153.121449 295.542125 163.544327 285.12305 163.535969"></polygon>
        </g>
    </g>
</svg>