<svg xmlns="http://www.w3.org/2000/svg" width="66" height="75" viewBox="0 0 66 75">
    <path fill="#539E43" d="M33 74.37c-1.025 0-1.981-.274-2.87-.752l-9.087-5.398c-1.366-.751-.683-1.024-.273-1.161 1.845-.615 2.187-.752 4.1-1.845.205-.136.478-.068.683.069l6.969 4.167c.273.137.615.137.82 0l27.26-15.782c.274-.137.41-.41.41-.752V21.42c0-.341-.136-.615-.41-.751L33.342 4.953c-.274-.136-.615-.136-.82 0L5.26 20.668c-.273.136-.41.478-.41.751v31.497c0 .273.137.615.41.752l7.447 4.304c4.031 2.05 6.56-.342 6.56-2.733V24.152c0-.41.34-.82.819-.82h3.484c.41 0 .82.342.82.82V55.24c0 5.398-2.938 8.54-8.062 8.54-1.571 0-2.801 0-6.286-1.708L2.87 57.972C1.093 56.947 0 55.034 0 52.984V21.488c0-2.05 1.093-3.963 2.87-4.988L30.13.717c1.709-.956 4.031-.956 5.74 0L63.13 16.5c1.777 1.025 2.87 2.938 2.87 4.988v31.496c0 2.05-1.093 3.963-2.87 4.988L35.87 73.755c-.889.41-1.913.615-2.87.615zm8.404-21.659c-11.957 0-14.416-5.466-14.416-10.112 0-.41.341-.82.82-.82h3.552c.41 0 .752.274.752.684.546 3.62 2.118 5.397 9.36 5.397 5.74 0 8.199-1.298 8.199-4.372 0-1.777-.683-3.075-9.634-3.963-7.447-.752-12.093-2.391-12.093-8.336 0-5.534 4.646-8.813 12.435-8.813 8.745 0 13.05 3.006 13.596 9.565 0 .205-.068.41-.205.615-.136.137-.341.273-.546.273H49.67c-.342 0-.683-.273-.752-.615-.82-3.757-2.938-4.987-8.54-4.987-6.286 0-7.037 2.186-7.037 3.826 0 1.981.888 2.596 9.36 3.69 8.404 1.092 12.366 2.664 12.366 8.54-.068 6.012-4.987 9.428-13.664 9.428z"/>
</svg>
