<svg version="1" id="svg2" xmlns="http://www.w3.org/2000/svg" viewBox="0 0 388.8 115"><style>.st0{fill:#000}.st1{fill:url(#path1948_1_)}.st2{fill:url(#path1950_1_)}</style><path id="path46" class="st0" d="M148.2 49.3c0-11.7-3.3-17.7-10-18-2.7-.1-5.2.3-7.8 1.3-2 .7-3.4 1.4-4.1 2.1v27.9c4.3 2.7 8 3.9 11.3 3.7 7.1-.4 10.6-6.1 10.6-17zm8.2.5c0 5.9-1.4 10.9-4.2 14.8-3.1 4.4-7.4 6.7-13 6.8-4.2.1-8.5-1.2-12.9-3.9v25.3l-7.1-2.5V34.1c1.2-1.4 2.7-2.7 4.5-3.7 4.3-2.5 9.4-3.8 15.5-3.8l.1.1c5.6-.1 9.8 2.2 12.9 6.8 2.8 4.2 4.2 9.6 4.2 16.3z"/><path id="path48" class="st0" d="M200.1 66.4c0 8-.8 13.5-2.4 16.5-1.6 3.1-4.7 5.5-9.2 7.3-3.7 1.4-7.6 2.2-11.8 2.4l-1.2-4.5c4.3-.6 7.3-1.2 9.1-1.8 3.5-1.2 5.8-3 7.1-5.4 1-2 1.6-5.7 1.6-11.2v-1.9c-4.9 2.2-10 3.3-15.4 3.3-3.5 0-6.6-1.1-9.3-3.3-3-2.4-4.5-5.5-4.5-9.2V29l7.1-2.4v29.9c0 3.2 1 5.7 3.1 7.4 2.1 1.7 4.7 2.6 8 2.5s6.8-1.3 10.5-3.8v-35h7.1v38.8h.2z"/><path id="path50" class="st0" d="M227.9 71c-.9.1-1.6.1-2.4.1-4 0-7.2-1-9.4-2.9s-3.4-4.6-3.4-8V32.1h-4.9v-4.5h4.9V15.7l7.1-2.5v14.5h8v4.5h-8V60c0 2.7.7 4.6 2.2 5.7 1.2.9 3.2 1.4 5.9 1.6V71z"/><path id="path52" class="st0" d="M271.2 70.4h-7.1V42.9c0-2.8-.7-5.2-2-7.2-1.5-2.3-3.6-3.4-6.3-3.4-3.3 0-7.4 1.7-12.3 5.2v33.1h-7.1V4.5l7.1-2.3v30c4.6-3.3 9.6-5 15-5 3.8 0 6.8 1.3 9.2 3.8 2.4 2.5 3.5 5.7 3.5 9.5v29.9z"/><path id="path54" class="st0" d="M309.2 48.2c0-4.5-.9-8.2-2.5-11.1-2-3.6-5.2-5.5-9.4-5.7-7.8.5-11.7 6.1-11.7 16.8 0 4.9.8 9.1 2.5 12.4 2.1 4.2 5.2 6.3 9.4 6.2 7.8 0 11.7-6.3 11.7-18.6zm7.8 0c0 6.4-1.6 11.7-4.9 15.9-3.6 4.8-8.5 7.1-14.9 7.1-6.3 0-11.2-2.4-14.7-7.1-3.2-4.2-4.8-9.6-4.8-15.9 0-6 1.7-11.1 5.2-15.2 3.7-4.4 8.5-6.6 14.4-6.6s10.8 2.2 14.5 6.6c3.5 4.2 5.2 9.2 5.2 15.2z"/><path id="path56" class="st0" d="M358 70.4h-7.1V41.3c0-3.2-1-5.7-2.9-7.5s-4.5-2.7-7.7-2.6c-3.4.1-6.6 1.2-9.7 3.3v35.9h-7.1V33.7c4.1-3 7.9-4.9 11.4-5.9 3.3-.9 6.1-1.3 8.6-1.3 1.7 0 3.3.2 4.8.5 2.8.6 5.1 1.9 6.8 3.6 2 2 2.9 4.3 2.9 7v32.8z"/><linearGradient id="path1948_1_" gradientUnits="userSpaceOnUse" x1="-26.046" y1="1271.559" x2="61.391" y2="1346.787" gradientTransform="matrix(.5625 0 0 .568 17.063 -714.914)"><stop offset="0" stop-color="#5a9fd4"/><stop offset="1" stop-color="#306998"/></linearGradient><path id="path1948" class="st1" d="M48.6 4.8c-3.7 0-7.2.3-10.3.9-9.1 1.6-10.8 5-10.8 11.2V25H49v2.7H19.5c-6.2 0-11.7 3.8-13.4 10.9-2 8.2-2.1 13.3 0 21.9 1.5 6.4 5.2 10.9 11.4 10.9h7.4v-9.8c0-7.1 6.1-13.4 13.4-13.4h21.5c6 0 10.8-4.9 10.8-10.9V16.8c0-5.8-4.9-10.2-10.8-11.2-3.7-.6-7.5-.8-11.2-.8zM37 11.4c2.2 0 4 1.8 4 4.1s-1.8 4.1-4 4.1-4-1.8-4-4.1 1.8-4.1 4-4.1z"/><linearGradient id="path1950_1_" gradientUnits="userSpaceOnUse" x1="95.294" y1="1392.247" x2="64.072" y2="1348.072" gradientTransform="matrix(.5625 0 0 .568 17.063 -714.914)"><stop offset="0" stop-color="#ffd43b"/><stop offset="1" stop-color="#ffe873"/></linearGradient><path id="path1950" class="st2" d="M73.3 27.8v9.5c0 7.4-6.3 13.6-13.4 13.6H38.4c-5.9 0-10.8 5-10.8 10.9v20.5c0 5.8 5.1 9.3 10.8 10.9 6.8 2 13.3 2.4 21.5 0 5.4-1.6 10.8-4.7 10.8-10.9v-8.2H49.1v-2.7h32.3c6.3 0 8.6-4.4 10.8-10.9 2.2-6.7 2.1-13.2 0-21.9-1.5-6.2-4.5-10.9-10.8-10.9l-8.1.1zM61.2 79.6c2.2 0 4 1.8 4 4.1s-1.8 4.1-4 4.1-4-1.8-4-4.1 1.8-4.1 4-4.1z"/><path id="text3004" class="st0" d="M371.9 21.2h1.3v-7.9h3v-.9H369v.9h3l-.1 7.9m5.3 0h1.1V14l2.3 7.2h1.2l2.4-7.2v7.2h1.2v-8.8h-1.5l-2.6 7.5-2.3-7.5h-1.7v8.8"/></svg>