<svg xmlns="http://www.w3.org/2000/svg" width="143" height="120" viewBox="0 0 143 120">
    <path fill="#66D1FF" fill-rule="evenodd" d="M116.267 38.355c.665.195 1.356.398 2.047.657 15.669 4.793 25.581 12.88 24.622 20.669 0 8.387-10.552 16.775-27.18 21.867-.64.3-1.599.6-2.558.899l.96 3.595c3.197 15.576.638 28.157-7.036 32.35-7.355 3.895-19.506 0-31.657-9.884-1.279-.899-2.558-2.097-3.837-3.295l-2.878 2.696c-12.47 10.484-25.581 14.678-33.256 10.484-7.354-3.894-9.593-15.577-6.715-30.554.16-.749.4-1.573.64-2.397.24-.823.48-1.647.64-2.396-.64-.15-1.28-.374-1.92-.599-.639-.225-1.278-.45-1.918-.6C10.552 76.756 0 68.369 0 59.982c0-8.088 9.593-15.877 24.622-21.268.96-.3 1.839-.525 2.718-.75.88-.224 1.759-.449 2.718-.748l-.96-4.493c-2.877-14.978-.639-26.96 6.716-31.154 7.994-4.193 20.785.3 33.895 11.084l2.239 2.096c.64-.449 1.199-.973 1.758-1.497.56-.524 1.12-1.049 1.76-1.498 12.47-9.885 24.941-14.378 32.296-10.185 7.994 4.194 10.232 17.075 6.715 32.95 0 .9-.32 2.098-.64 2.996.726.34 1.556.584 2.43.84zM104.564 6.66c-4.477-2.397-14.39.898-24.942 9.585-.445.417-.96.834-1.51 1.281-.636.517-1.322 1.073-2.007 1.715 4.157 3.894 8.314 8.687 12.15 14.079 6.716.599 13.111 1.797 19.187 2.995.16-.45.24-.899.32-1.348.08-.45.16-.898.32-1.348 3.197-13.78 1.278-24.263-3.518-26.96zM51.802 49.197c-2.238 3.594-4.157 7.189-6.075 10.784 1.918 3.594 3.837 7.189 6.075 10.784 2.239 3.594 4.477 7.189 7.035 10.484 4.157.3 8.634.3 13.11.3 4.477 0 8.954 0 13.111-.3 2.558-3.295 4.796-6.89 7.035-10.484 2.238-3.595 4.157-7.19 6.076-10.784-1.6-3.595-3.838-7.19-6.076-10.784-1.652-2.653-3.478-5.305-5.22-7.838-.62-.899-1.228-1.783-1.815-2.646-4.157-.3-8.634-.6-13.11-.6-4.477 0-8.954.3-13.11.6-2.559 3.295-4.797 6.89-7.036 10.484zM46.686 73.76c-1.599-2.097-2.878-4.493-4.157-6.89-1.919 3.895-3.517 8.088-4.477 11.683 3.837.898 8.314 1.497 13.11 2.097-.977-1.283-1.836-2.678-2.721-4.117-.562-.913-1.134-1.843-1.755-2.773zm-8.634-32.052c1.28 3.894 2.558 7.788 4.477 11.683 1.28-2.397 2.558-4.793 4.157-6.89.62-.93 1.193-1.86 1.755-2.773.885-1.439 1.744-2.834 2.722-4.117-4.477.6-8.954 1.198-13.11 2.097zm63.314 24.863c-1.279 2.396-2.558 4.793-4.157 7.19-.918 1.719-2 3.285-3.13 4.918-.444.642-.895 1.294-1.347 1.97 4.797-.599 9.274-1.198 13.43-2.096-1.278-3.894-2.877-7.788-4.796-11.982zM97.21 46.5c1.6 2.097 2.878 4.493 4.157 6.89 1.919-4.194 3.518-8.088 4.477-11.683-4.157-.899-8.634-1.498-13.11-2.097.45.676.902 1.329 1.346 1.97 1.13 1.634 2.212 3.2 3.13 4.92zM80.262 32.72c-2.558-3.594-5.436-6.59-8.314-9.585-2.878 2.995-5.756 6.29-8.634 9.586 2.558-.3 5.436-.3 8.314-.3 1.439 0 2.878.075 4.317.15s2.878.15 4.317.15zm-14.71-15.576C54.36 7.859 43.808 3.965 39.012 6.66c-4.797 2.396-6.396 12.281-3.518 24.862.16.75.32 1.423.48 2.097.16.674.32 1.348.48 2.097 6.075-1.198 12.47-2.097 19.186-2.696 3.837-5.092 7.994-9.885 12.15-14.079-.959-.599-1.598-1.198-2.238-1.797zM28.46 76.455c.96.3 2.239.6 3.518.9 1.599-5.692 4.157-11.383 7.035-17.075-2.878-5.99-5.117-11.682-7.035-17.074-.8.3-1.599.524-2.399.749-.799.224-1.598.449-2.398.749C14.07 48.897 6.395 55.188 6.395 59.98c0 2.396 1.919 5.092 5.436 8.087 3.838 3.296 9.593 6.291 16.628 8.388zm20.785 36.546c4.797-1.797 10.553-5.092 15.989-9.585.386-.242.721-.532 1.067-.832.511-.444 1.047-.908 1.81-1.265-4.476-4.194-8.633-8.987-12.47-14.379-7.035-.599-13.75-1.498-19.506-2.696l-.96 4.493c-2.558 12.582-.64 22.167 3.838 24.564 2.238 1.198 5.755 1.198 10.232-.3zm14.39-25.462c2.878 3.295 5.756 6.59 8.633 9.586 1.845-1.92 3.558-3.963 5.309-6.05.98-1.17 1.972-2.353 3.005-3.536-2.877.3-5.755.3-8.633.3-1.44 0-2.798-.075-4.157-.15-1.36-.075-2.718-.15-4.157-.15zm40.93 26.061c2.238-1.198 3.837-4.194 4.796-8.387.96-5.093.96-11.084-.64-17.674 0-.992-.218-1.78-.476-2.701-.053-.191-.108-.388-.163-.594-6.075 1.198-12.47 2.097-19.505 2.696-4.157 5.392-7.995 10.185-12.152 14.379.96.898 2.239 2.097 3.518 2.995 10.232 8.687 20.145 11.683 24.622 9.286zm7.674-36.545c.96 0 1.92-.3 2.558-.6 14.07-4.492 23.024-11.382 22.704-16.474 0-4.793-7.994-11.383-21.424-15.577-.543-.127-1.086-.308-1.654-.498-.769-.256-1.583-.528-2.503-.7-1.919 5.392-4.157 11.083-7.035 16.775 3.197 5.99 5.436 11.682 7.354 17.074zM84.741 60c0-6.417-5.959-11.667-13.241-11.667S58.26 53.583 58.26 60c0 6.416 5.958 11.666 13.24 11.666S84.74 66.416 84.74 60z"/>
</svg>
