<svg xmlns="http://www.w3.org/2000/svg" width="107.4" height="107.4" viewBox="0 0 107.4 107.4"><defs><style>.a{fill:#fb244c;}</style></defs><path class="a" d="M53.7,0a53.7,53.7,0,1,0,53.7,53.7A53.762,53.762,0,0,0,53.7,0Zm0,102.925A49.225,49.225,0,1,1,102.925,53.7,49.281,49.281,0,0,1,53.7,102.925Z"/><path class="a" d="M142.312,213.333H66.238A2.236,2.236,0,0,0,64,215.571V229a2.236,2.236,0,0,0,2.238,2.238h76.075A2.236,2.236,0,0,0,144.55,229V215.571A2.237,2.237,0,0,0,142.312,213.333Zm-2.237,13.425h-71.6v-8.95h71.6v8.95Z" transform="translate(-50.575 -168.583)"/></svg>