<?xml version="1.0" encoding="UTF-8"?>
<svg width="566px" height="260px" viewBox="0 0 566 260" version="1.1" xmlns="http://www.w3.org/2000/svg" xmlns:xlink="http://www.w3.org/1999/xlink">
    <!-- Generator: Sketch 53.1 (72631) - https://sketchapp.com -->
    <title>ui-ux-illo-services </title>
    <desc>Created with Sketch.</desc>
    <g id="ui-ux-illo-services-" stroke="none" stroke-width="1" fill="none" fill-rule="evenodd">
        <g id="ui-ux-services" transform="translate(123.000000, 44.000000)">
            <g id="ui-ux-services-1">
                <ellipse id="Oval" fill="#D9D9DD" fill-rule="nonzero" cx="101.414995" cy="22.5224235" rx="1.09309767" ry="1.09295075"></ellipse>
                <ellipse id="Oval" fill="#D9D9DD" fill-rule="nonzero" cx="112.315953" cy="22.5224235" rx="1.09309767" ry="1.09295075"></ellipse>
                <ellipse id="Oval" fill="#D9D9DD" fill-rule="nonzero" cx="123.216921" cy="22.5224235" rx="1.09309767" ry="1.09295075"></ellipse>
                <ellipse id="Oval" fill="#D9D9DD" fill-rule="nonzero" cx="134.117888" cy="22.5224235" rx="1.09309767" ry="1.09295075"></ellipse>
                <ellipse id="Oval" fill="#D9D9DD" fill-rule="nonzero" cx="145.018847" cy="22.5224235" rx="1.09309767" ry="1.09295075"></ellipse>
                <ellipse id="Oval" fill="#D9D9DD" fill-rule="nonzero" cx="155.919814" cy="22.5224235" rx="1.09309767" ry="1.09295075"></ellipse>
                <ellipse id="Oval" fill="#D9D9DD" fill-rule="nonzero" cx="166.820772" cy="22.5224235" rx="1.09309767" ry="1.09295075"></ellipse>
                <ellipse id="Oval" fill="#D9D9DD" fill-rule="nonzero" cx="177.72174" cy="22.5224235" rx="1.09309767" ry="1.09295075"></ellipse>
                <ellipse id="Oval" fill="#D9D9DD" fill-rule="nonzero" cx="188.622698" cy="22.5224235" rx="1.09309767" ry="1.09295075"></ellipse>
                <ellipse id="Oval" fill="#D9D9DD" fill-rule="nonzero" cx="199.523665" cy="22.5224235" rx="1.09309767" ry="1.09295075"></ellipse>
                <ellipse id="Oval" fill="#D9D9DD" fill-rule="nonzero" cx="210.424633" cy="22.5224235" rx="1.09309767" ry="1.09295075"></ellipse>
                <ellipse id="Oval" fill="#D9D9DD" fill-rule="nonzero" cx="101.414995" cy="33.4219258" rx="1.09309767" ry="1.09295075"></ellipse>
                <ellipse id="Oval" fill="#D9D9DD" fill-rule="nonzero" cx="112.315953" cy="33.4219258" rx="1.09309767" ry="1.09295075"></ellipse>
                <ellipse id="Oval" fill="#D9D9DD" fill-rule="nonzero" cx="123.216921" cy="33.4219258" rx="1.09309767" ry="1.09295075"></ellipse>
                <ellipse id="Oval" fill="#D9D9DD" fill-rule="nonzero" cx="134.117888" cy="33.4219258" rx="1.09309767" ry="1.09295075"></ellipse>
                <ellipse id="Oval" fill="#D9D9DD" fill-rule="nonzero" cx="145.018847" cy="33.4219258" rx="1.09309767" ry="1.09295075"></ellipse>
                <ellipse id="Oval" fill="#D9D9DD" fill-rule="nonzero" cx="155.919814" cy="33.4219258" rx="1.09309767" ry="1.09295075"></ellipse>
                <ellipse id="Oval" fill="#D9D9DD" fill-rule="nonzero" cx="166.820772" cy="33.4219258" rx="1.09309767" ry="1.09295075"></ellipse>
                <ellipse id="Oval" fill="#D9D9DD" fill-rule="nonzero" cx="177.72174" cy="33.4219258" rx="1.09309767" ry="1.09295075"></ellipse>
                <ellipse id="Oval" fill="#D9D9DD" fill-rule="nonzero" cx="188.622698" cy="33.4219258" rx="1.09309767" ry="1.09295075"></ellipse>
                <ellipse id="Oval" fill="#D9D9DD" fill-rule="nonzero" cx="199.523665" cy="33.4219258" rx="1.09309767" ry="1.09295075"></ellipse>
                <ellipse id="Oval" fill="#D9D9DD" fill-rule="nonzero" cx="210.424633" cy="33.4219258" rx="1.09309767" ry="1.09295075"></ellipse>
                <ellipse id="Oval" fill="#D9D9DD" fill-rule="nonzero" cx="101.414995" cy="44.3214188" rx="1.09309767" ry="1.09295075"></ellipse>
                <ellipse id="Oval" fill="#D9D9DD" fill-rule="nonzero" cx="112.315953" cy="44.3214188" rx="1.09309767" ry="1.09295075"></ellipse>
                <ellipse id="Oval" fill="#D9D9DD" fill-rule="nonzero" cx="123.216921" cy="44.3214188" rx="1.09309767" ry="1.09295075"></ellipse>
                <ellipse id="Oval" fill="#D9D9DD" fill-rule="nonzero" cx="134.117888" cy="44.3214188" rx="1.09309767" ry="1.09295075"></ellipse>
                <ellipse id="Oval" fill="#D9D9DD" fill-rule="nonzero" cx="145.018847" cy="44.3214188" rx="1.09309767" ry="1.09295075"></ellipse>
                <ellipse id="Oval" fill="#D9D9DD" fill-rule="nonzero" cx="155.919814" cy="44.3214188" rx="1.09309767" ry="1.09295075"></ellipse>
                <ellipse id="Oval" fill="#D9D9DD" fill-rule="nonzero" cx="166.820772" cy="44.3214188" rx="1.09309767" ry="1.09295075"></ellipse>
                <ellipse id="Oval" fill="#D9D9DD" fill-rule="nonzero" cx="177.72174" cy="44.3214188" rx="1.09309767" ry="1.09295075"></ellipse>
                <ellipse id="Oval" fill="#D9D9DD" fill-rule="nonzero" cx="188.622698" cy="44.3214188" rx="1.09309767" ry="1.09295075"></ellipse>
                <ellipse id="Oval" fill="#D9D9DD" fill-rule="nonzero" cx="199.523665" cy="44.3214188" rx="1.09309767" ry="1.09295075"></ellipse>
                <ellipse id="Oval" fill="#D9D9DD" fill-rule="nonzero" cx="210.424633" cy="44.3214188" rx="1.09309767" ry="1.09295075"></ellipse>
                <ellipse id="Oval" fill="#D9D9DD" fill-rule="nonzero" cx="101.414995" cy="55.220921" rx="1.09309767" ry="1.09295075"></ellipse>
                <ellipse id="Oval" fill="#D9D9DD" fill-rule="nonzero" cx="112.315953" cy="55.220921" rx="1.09309767" ry="1.09295075"></ellipse>
                <ellipse id="Oval" fill="#D9D9DD" fill-rule="nonzero" cx="123.216921" cy="55.220921" rx="1.09309767" ry="1.09295075"></ellipse>
                <ellipse id="Oval" fill="#D9D9DD" fill-rule="nonzero" cx="134.117888" cy="55.220921" rx="1.09309767" ry="1.09295075"></ellipse>
                <ellipse id="Oval" fill="#D9D9DD" fill-rule="nonzero" cx="145.018847" cy="55.220921" rx="1.09309767" ry="1.09295075"></ellipse>
                <ellipse id="Oval" fill="#D9D9DD" fill-rule="nonzero" cx="155.919814" cy="55.220921" rx="1.09309767" ry="1.09295075"></ellipse>
                <ellipse id="Oval" fill="#D9D9DD" fill-rule="nonzero" cx="166.820772" cy="55.220921" rx="1.09309767" ry="1.09295075"></ellipse>
                <ellipse id="Oval" fill="#D9D9DD" fill-rule="nonzero" cx="177.72174" cy="55.220921" rx="1.09309767" ry="1.09295075"></ellipse>
                <ellipse id="Oval" fill="#D9D9DD" fill-rule="nonzero" cx="188.622698" cy="55.220921" rx="1.09309767" ry="1.09295075"></ellipse>
                <ellipse id="Oval" fill="#D9D9DD" fill-rule="nonzero" cx="199.523665" cy="55.220921" rx="1.09309767" ry="1.09295075"></ellipse>
                <ellipse id="Oval" fill="#D9D9DD" fill-rule="nonzero" cx="210.424633" cy="55.220921" rx="1.09309767" ry="1.09295075"></ellipse>
                <ellipse id="Oval" fill="#D9D9DD" fill-rule="nonzero" cx="101.414995" cy="66.1204233" rx="1.09309767" ry="1.09295075"></ellipse>
                <ellipse id="Oval" fill="#D9D9DD" fill-rule="nonzero" cx="112.315953" cy="66.1204233" rx="1.09309767" ry="1.09295075"></ellipse>
                <ellipse id="Oval" fill="#D9D9DD" fill-rule="nonzero" cx="123.216921" cy="66.1204233" rx="1.09309767" ry="1.09295075"></ellipse>
                <ellipse id="Oval" fill="#D9D9DD" fill-rule="nonzero" cx="134.117888" cy="66.1204233" rx="1.09309767" ry="1.09295075"></ellipse>
                <ellipse id="Oval" fill="#D9D9DD" fill-rule="nonzero" cx="145.018847" cy="66.1204233" rx="1.09309767" ry="1.09295075"></ellipse>
                <ellipse id="Oval" fill="#D9D9DD" fill-rule="nonzero" cx="155.919814" cy="66.1204233" rx="1.09309767" ry="1.09295075"></ellipse>
                <ellipse id="Oval" fill="#D9D9DD" fill-rule="nonzero" cx="166.820772" cy="66.1204233" rx="1.09309767" ry="1.09295075"></ellipse>
                <ellipse id="Oval" fill="#D9D9DD" fill-rule="nonzero" cx="177.72174" cy="66.1204233" rx="1.09309767" ry="1.09295075"></ellipse>
                <ellipse id="Oval" fill="#D9D9DD" fill-rule="nonzero" cx="188.622698" cy="66.1204233" rx="1.09309767" ry="1.09295075"></ellipse>
                <ellipse id="Oval" fill="#D9D9DD" fill-rule="nonzero" cx="199.523665" cy="66.1204233" rx="1.09309767" ry="1.09295075"></ellipse>
                <ellipse id="Oval" fill="#D9D9DD" fill-rule="nonzero" cx="210.424633" cy="66.1204233" rx="1.09309767" ry="1.09295075"></ellipse>
                <ellipse id="Oval" fill="#D9D9DD" fill-rule="nonzero" cx="101.414995" cy="77.0199162" rx="1.09309767" ry="1.09295075"></ellipse>
                <ellipse id="Oval" fill="#D9D9DD" fill-rule="nonzero" cx="112.315953" cy="77.0199162" rx="1.09309767" ry="1.09295075"></ellipse>
                <ellipse id="Oval" fill="#D9D9DD" fill-rule="nonzero" cx="123.216921" cy="77.0199162" rx="1.09309767" ry="1.09295075"></ellipse>
                <ellipse id="Oval" fill="#D9D9DD" fill-rule="nonzero" cx="134.117888" cy="77.0199162" rx="1.09309767" ry="1.09295075"></ellipse>
                <ellipse id="Oval" fill="#D9D9DD" fill-rule="nonzero" cx="145.018847" cy="77.0199162" rx="1.09309767" ry="1.09295075"></ellipse>
                <ellipse id="Oval" fill="#D9D9DD" fill-rule="nonzero" cx="155.919814" cy="77.0199162" rx="1.09309767" ry="1.09295075"></ellipse>
                <ellipse id="Oval" fill="#D9D9DD" fill-rule="nonzero" cx="166.820772" cy="77.0199162" rx="1.09309767" ry="1.09295075"></ellipse>
                <ellipse id="Oval" fill="#D9D9DD" fill-rule="nonzero" cx="177.72174" cy="77.0199162" rx="1.09309767" ry="1.09295075"></ellipse>
                <ellipse id="Oval" fill="#D9D9DD" fill-rule="nonzero" cx="188.622698" cy="77.0199162" rx="1.09309767" ry="1.09295075"></ellipse>
                <ellipse id="Oval" fill="#D9D9DD" fill-rule="nonzero" cx="199.523665" cy="77.0199162" rx="1.09309767" ry="1.09295075"></ellipse>
                <ellipse id="Oval" fill="#D9D9DD" fill-rule="nonzero" cx="210.424633" cy="77.0199162" rx="1.09309767" ry="1.09295075"></ellipse>
                <ellipse id="Oval" fill="#D9D9DD" fill-rule="nonzero" cx="101.414995" cy="87.9194185" rx="1.09309767" ry="1.09295075"></ellipse>
                <ellipse id="Oval" fill="#D9D9DD" fill-rule="nonzero" cx="112.315953" cy="87.9194185" rx="1.09309767" ry="1.09295075"></ellipse>
                <ellipse id="Oval" fill="#D9D9DD" fill-rule="nonzero" cx="123.216921" cy="87.9194185" rx="1.09309767" ry="1.09295075"></ellipse>
                <ellipse id="Oval" fill="#D9D9DD" fill-rule="nonzero" cx="134.117888" cy="87.9194185" rx="1.09309767" ry="1.09295075"></ellipse>
                <ellipse id="Oval" fill="#D9D9DD" fill-rule="nonzero" cx="145.018847" cy="87.9194185" rx="1.09309767" ry="1.09295075"></ellipse>
                <ellipse id="Oval" fill="#D9D9DD" fill-rule="nonzero" cx="155.919814" cy="87.9194185" rx="1.09309767" ry="1.09295075"></ellipse>
                <ellipse id="Oval" fill="#D9D9DD" fill-rule="nonzero" cx="166.820772" cy="87.9194185" rx="1.09309767" ry="1.09295075"></ellipse>
                <ellipse id="Oval" fill="#D9D9DD" fill-rule="nonzero" cx="177.72174" cy="87.9194185" rx="1.09309767" ry="1.09295075"></ellipse>
                <ellipse id="Oval" fill="#D9D9DD" fill-rule="nonzero" cx="188.622698" cy="87.9194185" rx="1.09309767" ry="1.09295075"></ellipse>
                <ellipse id="Oval" fill="#D9D9DD" fill-rule="nonzero" cx="199.523665" cy="87.9194185" rx="1.09309767" ry="1.09295075"></ellipse>
                <ellipse id="Oval" fill="#D9D9DD" fill-rule="nonzero" cx="210.424633" cy="87.9194185" rx="1.09309767" ry="1.09295075"></ellipse>
                <ellipse id="Oval" fill="#D9D9DD" fill-rule="nonzero" cx="101.414995" cy="98.8189115" rx="1.09309767" ry="1.09295075"></ellipse>
                <ellipse id="Oval" fill="#D9D9DD" fill-rule="nonzero" cx="112.315953" cy="98.8189115" rx="1.09309767" ry="1.09295075"></ellipse>
                <ellipse id="Oval" fill="#D9D9DD" fill-rule="nonzero" cx="123.216921" cy="98.8189115" rx="1.09309767" ry="1.09295075"></ellipse>
                <ellipse id="Oval" fill="#D9D9DD" fill-rule="nonzero" cx="134.117888" cy="98.8189115" rx="1.09309767" ry="1.09295075"></ellipse>
                <ellipse id="Oval" fill="#D9D9DD" fill-rule="nonzero" cx="145.018847" cy="98.8189115" rx="1.09309767" ry="1.09295075"></ellipse>
                <ellipse id="Oval" fill="#D9D9DD" fill-rule="nonzero" cx="155.919814" cy="98.8189115" rx="1.09309767" ry="1.09295075"></ellipse>
                <ellipse id="Oval" fill="#D9D9DD" fill-rule="nonzero" cx="166.820772" cy="98.8189115" rx="1.09309767" ry="1.09295075"></ellipse>
                <ellipse id="Oval" fill="#D9D9DD" fill-rule="nonzero" cx="177.72174" cy="98.8189115" rx="1.09309767" ry="1.09295075"></ellipse>
                <ellipse id="Oval" fill="#D9D9DD" fill-rule="nonzero" cx="188.622698" cy="98.8189115" rx="1.09309767" ry="1.09295075"></ellipse>
                <ellipse id="Oval" fill="#D9D9DD" fill-rule="nonzero" cx="199.523665" cy="98.8189115" rx="1.09309767" ry="1.09295075"></ellipse>
                <ellipse id="Oval" fill="#D9D9DD" fill-rule="nonzero" cx="210.424633" cy="98.8189115" rx="1.09309767" ry="1.09295075"></ellipse>
                <ellipse id="Oval" fill="#D9D9DD" fill-rule="nonzero" cx="101.414995" cy="109.718414" rx="1.09309767" ry="1.09295075"></ellipse>
                <ellipse id="Oval" fill="#D9D9DD" fill-rule="nonzero" cx="112.315953" cy="109.718414" rx="1.09309767" ry="1.09295075"></ellipse>
                <ellipse id="Oval" fill="#D9D9DD" fill-rule="nonzero" cx="123.216921" cy="109.718414" rx="1.09309767" ry="1.09295075"></ellipse>
                <ellipse id="Oval" fill="#D9D9DD" fill-rule="nonzero" cx="134.117888" cy="109.718414" rx="1.09309767" ry="1.09295075"></ellipse>
                <ellipse id="Oval" fill="#D9D9DD" fill-rule="nonzero" cx="145.018847" cy="109.718414" rx="1.09309767" ry="1.09295075"></ellipse>
                <ellipse id="Oval" fill="#D9D9DD" fill-rule="nonzero" cx="155.919814" cy="109.718414" rx="1.09309767" ry="1.09295075"></ellipse>
                <ellipse id="Oval" fill="#D9D9DD" fill-rule="nonzero" cx="166.820772" cy="109.718414" rx="1.09309767" ry="1.09295075"></ellipse>
                <ellipse id="Oval" fill="#D9D9DD" fill-rule="nonzero" cx="177.72174" cy="109.718414" rx="1.09309767" ry="1.09295075"></ellipse>
                <ellipse id="Oval" fill="#D9D9DD" fill-rule="nonzero" cx="188.622698" cy="109.718414" rx="1.09309767" ry="1.09295075"></ellipse>
                <ellipse id="Oval" fill="#D9D9DD" fill-rule="nonzero" cx="199.523665" cy="109.718414" rx="1.09309767" ry="1.09295075"></ellipse>
                <ellipse id="Oval" fill="#D9D9DD" fill-rule="nonzero" cx="210.424633" cy="109.718414" rx="1.09309767" ry="1.09295075"></ellipse>
                <ellipse id="Oval" fill="#D9D9DD" fill-rule="nonzero" cx="101.414995" cy="120.617907" rx="1.09309767" ry="1.09295075"></ellipse>
                <ellipse id="Oval" fill="#D9D9DD" fill-rule="nonzero" cx="112.315953" cy="120.617907" rx="1.09309767" ry="1.09295075"></ellipse>
                <ellipse id="Oval" fill="#D9D9DD" fill-rule="nonzero" cx="123.216921" cy="120.617907" rx="1.09309767" ry="1.09295075"></ellipse>
                <ellipse id="Oval" fill="#D9D9DD" fill-rule="nonzero" cx="134.117888" cy="120.617907" rx="1.09309767" ry="1.09295075"></ellipse>
                <ellipse id="Oval" fill="#D9D9DD" fill-rule="nonzero" cx="145.018847" cy="120.617907" rx="1.09309767" ry="1.09295075"></ellipse>
                <ellipse id="Oval" fill="#D9D9DD" fill-rule="nonzero" cx="155.919814" cy="120.617907" rx="1.09309767" ry="1.09295075"></ellipse>
                <ellipse id="Oval" fill="#D9D9DD" fill-rule="nonzero" cx="166.820772" cy="120.617907" rx="1.09309767" ry="1.09295075"></ellipse>
                <ellipse id="Oval" fill="#D9D9DD" fill-rule="nonzero" cx="177.72174" cy="120.617907" rx="1.09309767" ry="1.09295075"></ellipse>
                <ellipse id="Oval" fill="#D9D9DD" fill-rule="nonzero" cx="188.622698" cy="120.617907" rx="1.09309767" ry="1.09295075"></ellipse>
                <ellipse id="Oval" fill="#D9D9DD" fill-rule="nonzero" cx="199.523665" cy="120.617907" rx="1.09309767" ry="1.09295075"></ellipse>
                <ellipse id="Oval" fill="#D9D9DD" fill-rule="nonzero" cx="210.424633" cy="120.617907" rx="1.09309767" ry="1.09295075"></ellipse>
                <ellipse id="Oval" fill="#D9D9DD" fill-rule="nonzero" cx="101.414995" cy="131.517409" rx="1.09309767" ry="1.09295075"></ellipse>
                <ellipse id="Oval" fill="#D9D9DD" fill-rule="nonzero" cx="112.315953" cy="131.517409" rx="1.09309767" ry="1.09295075"></ellipse>
                <ellipse id="Oval" fill="#D9D9DD" fill-rule="nonzero" cx="123.216921" cy="131.517409" rx="1.09309767" ry="1.09295075"></ellipse>
                <ellipse id="Oval" fill="#D9D9DD" fill-rule="nonzero" cx="134.117888" cy="131.517409" rx="1.09309767" ry="1.09295075"></ellipse>
                <ellipse id="Oval" fill="#D9D9DD" fill-rule="nonzero" cx="145.018847" cy="131.517409" rx="1.09309767" ry="1.09295075"></ellipse>
                <ellipse id="Oval" fill="#D9D9DD" fill-rule="nonzero" cx="155.919814" cy="131.517409" rx="1.09309767" ry="1.09295075"></ellipse>
                <ellipse id="Oval" fill="#D9D9DD" fill-rule="nonzero" cx="166.820772" cy="131.517409" rx="1.09309767" ry="1.09295075"></ellipse>
                <ellipse id="Oval" fill="#D9D9DD" fill-rule="nonzero" cx="177.72174" cy="131.517409" rx="1.09309767" ry="1.09295075"></ellipse>
                <ellipse id="Oval" fill="#D9D9DD" fill-rule="nonzero" cx="188.622698" cy="131.517409" rx="1.09309767" ry="1.09295075"></ellipse>
                <ellipse id="Oval" fill="#D9D9DD" fill-rule="nonzero" cx="199.523665" cy="131.517409" rx="1.09309767" ry="1.09295075"></ellipse>
                <ellipse id="Oval" fill="#D9D9DD" fill-rule="nonzero" cx="210.424633" cy="131.517409" rx="1.09309767" ry="1.09295075"></ellipse>
                <ellipse id="Oval" fill="#D9D9DD" fill-rule="nonzero" cx="79.6280744" cy="22.5224235" rx="1.09309767" ry="1.09295075"></ellipse>
                <ellipse id="Oval" fill="#D9D9DD" fill-rule="nonzero" cx="90.5290419" cy="22.5224235" rx="1.09309767" ry="1.09295075"></ellipse>
                <ellipse id="Oval" fill="#D9D9DD" fill-rule="nonzero" cx="79.6280744" cy="33.4219258" rx="1.09309767" ry="1.09295075"></ellipse>
                <ellipse id="Oval" fill="#D9D9DD" fill-rule="nonzero" cx="90.5290419" cy="33.4219258" rx="1.09309767" ry="1.09295075"></ellipse>
                <ellipse id="Oval" fill="#D9D9DD" fill-rule="nonzero" cx="79.6280744" cy="44.3214188" rx="1.09309767" ry="1.09295075"></ellipse>
                <ellipse id="Oval" fill="#D9D9DD" fill-rule="nonzero" cx="90.5290419" cy="44.3214188" rx="1.09309767" ry="1.09295075"></ellipse>
                <ellipse id="Oval" fill="#D9D9DD" fill-rule="nonzero" cx="79.6280744" cy="55.220921" rx="1.09309767" ry="1.09295075"></ellipse>
                <ellipse id="Oval" fill="#D9D9DD" fill-rule="nonzero" cx="90.5290419" cy="55.220921" rx="1.09309767" ry="1.09295075"></ellipse>
                <ellipse id="Oval" fill="#D9D9DD" fill-rule="nonzero" cx="79.6280744" cy="66.1204233" rx="1.09309767" ry="1.09295075"></ellipse>
                <ellipse id="Oval" fill="#D9D9DD" fill-rule="nonzero" cx="90.5290419" cy="66.1204233" rx="1.09309767" ry="1.09295075"></ellipse>
                <ellipse id="Oval" fill="#D9D9DD" fill-rule="nonzero" cx="79.6280744" cy="77.0199162" rx="1.09309767" ry="1.09295075"></ellipse>
                <ellipse id="Oval" fill="#D9D9DD" fill-rule="nonzero" cx="90.5290419" cy="77.0199162" rx="1.09309767" ry="1.09295075"></ellipse>
                <ellipse id="Oval" fill="#D9D9DD" fill-rule="nonzero" cx="79.6280744" cy="87.9194185" rx="1.09309767" ry="1.09295075"></ellipse>
                <ellipse id="Oval" fill="#D9D9DD" fill-rule="nonzero" cx="90.5290419" cy="87.9194185" rx="1.09309767" ry="1.09295075"></ellipse>
                <ellipse id="Oval" fill="#D9D9DD" fill-rule="nonzero" cx="79.6280744" cy="98.8189115" rx="1.09309767" ry="1.09295075"></ellipse>
                <ellipse id="Oval" fill="#D9D9DD" fill-rule="nonzero" cx="90.5290419" cy="98.8189115" rx="1.09309767" ry="1.09295075"></ellipse>
                <ellipse id="Oval" fill="#D9D9DD" fill-rule="nonzero" cx="79.6280744" cy="109.718414" rx="1.09309767" ry="1.09295075"></ellipse>
                <ellipse id="Oval" fill="#D9D9DD" fill-rule="nonzero" cx="90.5290419" cy="109.718414" rx="1.09309767" ry="1.09295075"></ellipse>
                <ellipse id="Oval" fill="#D9D9DD" fill-rule="nonzero" cx="79.6280744" cy="120.617907" rx="1.09309767" ry="1.09295075"></ellipse>
                <ellipse id="Oval" fill="#D9D9DD" fill-rule="nonzero" cx="90.5290419" cy="120.617907" rx="1.09309767" ry="1.09295075"></ellipse>
                <ellipse id="Oval" fill="#D9D9DD" fill-rule="nonzero" cx="79.6280744" cy="131.517409" rx="1.09309767" ry="1.09295075"></ellipse>
                <ellipse id="Oval" fill="#D9D9DD" fill-rule="nonzero" cx="90.5290419" cy="131.517409" rx="1.09309767" ry="1.09295075"></ellipse>
                <path d="M319.344186,36.201208 L319.344186,101.008571 C319.344186,107.024054 314.467018,111.900567 308.450726,111.900567 L170.103823,111.900567" id="Path" stroke="#313D3F" stroke-width="1.11720001" stroke-dasharray="4.094565578579079"></path>
                <rect id="Rectangle" fill="#000000" fill-rule="nonzero" opacity="0.1" x="203.147312" y="62.1604626" width="75.1648558" height="75.154753"></rect>
                <path d="M269.427647,161.537745 L227.756335,155.763452 L238.07454,81.3202312 L312.527814,91.6369839 L305.646344,141.285194 C302.86267,148.148491 297.759468,153.818083 291.22546,157.306612 C283.531953,162.139888 269.427647,161.537745 269.427647,161.537745 Z" id="Path" fill="#000000" fill-rule="nonzero" opacity="0.1"></path>
                <path d="M102.397042,119.415873 C102.397042,128.068119 98.9594883,136.365992 92.8406037,142.484055 C86.721719,148.602117 78.4227305,152.039208 69.7693209,152.039208 L27.4962512,152.039208 L27.4962512,77.1484757 L102.397042,77.1484757 L102.397042,119.415873 Z" id="Path" fill="#000000" fill-rule="nonzero" opacity="0.1"></path>
                <polygon id="Rectangle" stroke="#000000" stroke-width="0.767730535" fill="#FFFFFF" fill-rule="nonzero" transform="translate(92.096475, 132.125499) rotate(-4.398590) translate(-92.096475, -132.125499) " points="54.6457246 94.6797232 129.546456 94.6804931 129.547226 169.571276 54.6464944 169.570506"></polygon>
                <g id="Group" transform="translate(55.813953, 96.731183)" fill="#313D3F" fill-rule="nonzero">
                    <ellipse id="Oval" cx="1.71646512" cy="3.31276398" rx="1.09309767" ry="1.09295075"></ellipse>
                    <ellipse id="Oval" cx="12.6132279" cy="3.01025581" rx="1.09309767" ry="1.09295075"></ellipse>
                    <ellipse id="Oval" cx="23.5099907" cy="2.70774763" rx="1.09309767" ry="1.09295075"></ellipse>
                    <ellipse id="Oval" cx="34.4067535" cy="2.40524876" rx="1.09309767" ry="1.09295075"></ellipse>
                    <ellipse id="Oval" cx="45.3035163" cy="2.10274059" rx="1.09309767" ry="1.09295075"></ellipse>
                    <ellipse id="Oval" cx="56.2002791" cy="1.80023242" rx="1.09309767" ry="1.09295075"></ellipse>
                    <ellipse id="Oval" cx="67.0970419" cy="1.49773355" rx="1.09309767" ry="1.09295075"></ellipse>
                    <ellipse id="Oval" cx="2.01900465" cy="14.2080622" rx="1.09309767" ry="1.09295075"></ellipse>
                    <ellipse id="Oval" cx="12.9157674" cy="13.905554" rx="1.09309767" ry="1.09295075"></ellipse>
                    <ellipse id="Oval" cx="23.8125395" cy="13.6030458" rx="1.09309767" ry="1.09295075"></ellipse>
                    <ellipse id="Oval" cx="34.7093023" cy="13.3005469" rx="1.09309767" ry="1.09295075"></ellipse>
                    <ellipse id="Oval" cx="45.6060651" cy="12.9980388" rx="1.09309767" ry="1.09295075"></ellipse>
                    <ellipse id="Oval" cx="56.5028279" cy="12.6955306" rx="1.09309767" ry="1.09295075"></ellipse>
                    <ellipse id="Oval" cx="67.3995907" cy="12.3930317" rx="1.09309767" ry="1.09295075"></ellipse>
                    <ellipse id="Oval" cx="2.32155349" cy="25.1033603" rx="1.09309767" ry="1.09295075"></ellipse>
                    <ellipse id="Oval" cx="13.2183163" cy="24.8008522" rx="1.09309767" ry="1.09295075"></ellipse>
                    <ellipse id="Oval" cx="24.1150791" cy="24.4983533" rx="1.09309767" ry="1.09295075"></ellipse>
                    <ellipse id="Oval" cx="35.0118419" cy="24.1958451" rx="1.09309767" ry="1.09295075"></ellipse>
                    <ellipse id="Oval" cx="45.9086047" cy="23.8933369" rx="1.09309767" ry="1.09295075"></ellipse>
                    <ellipse id="Oval" cx="56.8053767" cy="23.5908381" rx="1.09309767" ry="1.09295075"></ellipse>
                    <ellipse id="Oval" cx="67.7021395" cy="23.2883299" rx="1.09309767" ry="1.09295075"></ellipse>
                    <ellipse id="Oval" cx="2.62410233" cy="35.9986585" rx="1.09309767" ry="1.09295075"></ellipse>
                    <ellipse id="Oval" cx="13.5208651" cy="35.6961503" rx="1.09309767" ry="1.09295075"></ellipse>
                    <ellipse id="Oval" cx="24.4176279" cy="35.3936515" rx="1.09309767" ry="1.09295075"></ellipse>
                    <ellipse id="Oval" cx="35.3143907" cy="35.0911433" rx="1.09309767" ry="1.09295075"></ellipse>
                    <ellipse id="Oval" cx="46.2111535" cy="34.7886351" rx="1.09309767" ry="1.09295075"></ellipse>
                    <ellipse id="Oval" cx="57.1079163" cy="34.4861362" rx="1.09309767" ry="1.09295075"></ellipse>
                    <ellipse id="Oval" cx="68.0046791" cy="34.1836281" rx="1.09309767" ry="1.09295075"></ellipse>
                    <ellipse id="Oval" cx="2.92664186" cy="46.8939567" rx="1.09309767" ry="1.09295075"></ellipse>
                    <ellipse id="Oval" cx="13.8234047" cy="46.5914578" rx="1.09309767" ry="1.09295075"></ellipse>
                    <ellipse id="Oval" cx="24.7201674" cy="46.2889496" rx="1.09309767" ry="1.09295075"></ellipse>
                    <ellipse id="Oval" cx="35.6169395" cy="45.9864415" rx="1.09309767" ry="1.09295075"></ellipse>
                    <ellipse id="Oval" cx="46.5137023" cy="45.6839426" rx="1.09309767" ry="1.09295075"></ellipse>
                    <ellipse id="Oval" cx="57.4104651" cy="45.3814344" rx="1.09309767" ry="1.09295075"></ellipse>
                    <ellipse id="Oval" cx="68.3072279" cy="45.0789262" rx="1.09309767" ry="1.09295075"></ellipse>
                    <ellipse id="Oval" cx="3.2291907" cy="57.7892548" rx="1.09309767" ry="1.09295075"></ellipse>
                    <ellipse id="Oval" cx="14.1259535" cy="57.486756" rx="1.09309767" ry="1.09295075"></ellipse>
                    <ellipse id="Oval" cx="25.0227163" cy="57.1842478" rx="1.09309767" ry="1.09295075"></ellipse>
                    <ellipse id="Oval" cx="35.9194791" cy="56.8817396" rx="1.09309767" ry="1.09295075"></ellipse>
                    <ellipse id="Oval" cx="46.8162419" cy="56.5792408" rx="1.09309767" ry="1.09295075"></ellipse>
                    <ellipse id="Oval" cx="57.713014" cy="56.2767326" rx="1.09309767" ry="1.09295075"></ellipse>
                    <ellipse id="Oval" cx="68.6097767" cy="55.9742244" rx="1.09309767" ry="1.09295075"></ellipse>
                    <ellipse id="Oval" cx="3.53173953" cy="68.6845623" rx="1.09309767" ry="1.09295075"></ellipse>
                    <ellipse id="Oval" cx="14.4285023" cy="68.3820541" rx="1.09309767" ry="1.09295075"></ellipse>
                    <ellipse id="Oval" cx="25.3252651" cy="68.079546" rx="1.09309767" ry="1.09295075"></ellipse>
                    <ellipse id="Oval" cx="36.2220279" cy="67.7770471" rx="1.09309767" ry="1.09295075"></ellipse>
                    <ellipse id="Oval" cx="47.1187907" cy="67.4745389" rx="1.09309767" ry="1.09295075"></ellipse>
                    <ellipse id="Oval" cx="58.0155535" cy="67.1720308" rx="1.09309767" ry="1.09295075"></ellipse>
                    <ellipse id="Oval" cx="68.9123163" cy="66.8695319" rx="1.09309767" ry="1.09295075"></ellipse>
                </g>
                <polygon id="Rectangle" stroke="#313D3F" stroke-width="1.11720001" transform="translate(92.096475, 132.125499) rotate(-4.398590) translate(-92.096475, -132.125499) " points="54.6457246 94.6797232 129.546456 94.6804931 129.547226 169.571276 54.6464944 169.570506"></polygon>
                <path d="M94.7716186,111.791484 C94.7716186,129.808855 80.1636904,144.414819 62.1438977,144.414819 L19.8708279,144.414819 L19.8708279,69.5240867 L94.7716186,69.5240867 L94.7716186,111.791484 Z" id="Path" stroke="#313D3F" stroke-width="1.11720001" fill="#FFFFFF" fill-rule="nonzero"></path>
                <path d="M33.9175163,83.1920447 L80.7249302,83.1920447" id="Path" stroke="#313D3F" stroke-width="1.11720001" fill="#FFFFFF" fill-rule="nonzero"></path>
                <path d="M33.9175163,95.7178399 L71.5169116,95.7178399" id="Path" stroke="#313D3F" stroke-width="1.11720001" fill="#FFFFFF" fill-rule="nonzero"></path>
                <path d="M33.9175163,108.243635 L80.7249302,108.243635" id="Path" stroke="#313D3F" stroke-width="1.11720001" fill="#FFFFFF" fill-rule="nonzero"></path>
                <path d="M94.7330233,114.324994 C94.7330233,114.324994 95.4895814,128.447115 74.7920093,127.72098 C74.428893,133.166983 76.7294419,143.49991 62.1438977,144.41481" id="Path" stroke="#000000" stroke-width="1.11720001"></path>
                <ellipse id="Oval" fill="#EEBF1B" fill-rule="nonzero" cx="36.8239349" cy="115.535576" rx="16.1165953" ry="16.1144291"></ellipse>
                <ellipse id="Oval" fill="#36B998" fill-rule="nonzero" style="mix-blend-mode: multiply;" cx="16.7742512" cy="123.570012" rx="16.1165953" ry="16.1144291"></ellipse>
                <path d="M162.4784,0.802227043 L308.450735,0.802227043 C311.339862,0.80222951 314.110657,1.94977947 316.153575,3.99242876 C318.196494,6.03507806 319.344191,8.8055033 319.344186,11.6942419 L319.344186,29.4845016 L151.584949,29.4845016 L151.584949,11.6942419 C151.584944,8.8055033 152.732641,6.03507806 154.77556,3.99242876 C156.818478,1.94977947 159.589273,0.80222951 162.4784,0.802227043 Z" id="Path" fill="#313D3F" fill-rule="nonzero"></path>
                <path d="M164.289981,20.0418175 C161.952697,20.0421978 159.940633,18.3916915 159.484303,16.0996951 C159.027972,13.8076988 160.254472,11.5125763 162.413715,10.6179509 C164.572957,9.72332545 167.063552,10.478367 168.362332,12.4213164 C169.661112,14.3642657 169.406343,16.9539752 167.753833,18.6066616 C166.837373,19.5285805 165.59,20.0453966 164.289981,20.0418175 Z" id="Path" fill="#313D3F" fill-rule="nonzero"></path>
                <path d="M164.289981,10.8584659 C166.334713,10.8582972 168.094805,12.3023786 168.493812,14.3075316 C168.892818,16.3126847 167.819605,18.3204161 165.930533,19.1028273 C164.04146,19.8852386 161.862691,19.2244054 160.726726,17.5244836 C159.590762,15.8245618 159.814002,13.5590288 161.259916,12.1134507 C162.061793,11.307318 163.152871,10.8554181 164.289981,10.8584659 L164.289981,10.8584659 Z M164.289981,9.63128204 C161.65995,9.63124852 159.396147,11.4888125 158.88303,14.0679573 C158.369912,16.6471022 159.750392,19.2294961 162.180219,20.2358438 C164.610045,21.2421914 167.412475,20.3922092 168.873646,18.2057146 C170.334818,16.01922 170.047772,13.1051855 168.188056,11.2457255 C167.155295,10.210423 165.752421,9.62940251 164.289981,9.63128204 L164.289981,9.63128204 Z" id="Shape" fill="#FFFFFF" fill-rule="nonzero"></path>
                <ellipse id="Oval" fill="#EEBF1B" fill-rule="nonzero" cx="182.725414" cy="15.1433504" rx="5.5128186" ry="5.51207763"></ellipse>
                <ellipse id="Oval" fill="#F06D6E" fill-rule="nonzero" cx="201.160856" cy="15.1433504" rx="5.5128186" ry="5.51207763"></ellipse>
                <rect id="Rectangle" stroke="#313D3F" stroke-width="1.11720001" fill="#FFFFFF" fill-rule="nonzero" x="196.611237" y="54.5360642" width="75.1648558" height="75.154753"></rect>
                <path d="M180.09053,64.5278932 C186.898551,78.3429329 183.632115,95.003624 172.111372,105.226157 C160.590629,115.44869 143.657578,116.711315 130.747795,108.310463 C130.662214,108.336125 130.600493,108.356587 130.600493,108.356587 L117.630698,112.659507 L122.974186,101.855257 L123.135712,101.52865 C114.701118,91.3969579 112.842541,77.3196913 118.358712,65.3466193 C123.874883,53.3735474 135.783299,45.6372328 148.966264,45.462392 C162.149229,45.2875512 174.258682,52.7053258 180.09053,64.5278932 Z" id="Path" fill="#5CC7DC" fill-rule="nonzero"></path>
                <ellipse id="Oval" stroke="#FFFFFF" stroke-width="1.02364382" fill="#5CC7DC" fill-rule="nonzero" cx="166.273619" cy="79.6530972" rx="4.11902326" ry="4.11846962"></ellipse>
                <ellipse id="Oval" stroke="#FFFFFF" stroke-width="1.02364382" fill="#5CC7DC" fill-rule="nonzero" cx="132.549107" cy="79.6530972" rx="4.11902326" ry="4.11846962"></ellipse>
                <path d="M153.916549,77.465168 C153.916544,79.9529729 151.899507,81.9697346 149.411367,81.9697346 L149.411367,81.9697346 C146.923228,81.9697346 144.906191,79.9529729 144.906186,77.465168" id="Path" stroke="#FFFFFF" stroke-width="1.02364382" fill="#5CC7DC" fill-rule="nonzero"></path>
                <ellipse id="Oval" stroke="#313D3F" stroke-width="1.11720001" fill="#FFFFFF" fill-rule="nonzero" cx="234.193665" cy="92.1134408" rx="26.4394047" ry="26.435851"></ellipse>
                <path d="M262.891572,153.913347 L221.22026,148.139054 L231.538465,73.6957863 L305.99174,84.0126041 L299.11027,133.660749 C296.326603,140.52406 291.2234,146.193666 284.689386,149.682204 C279.85787,152.415335 262.891572,153.913347 262.891572,153.913347 Z" id="Path" stroke="#313D3F" stroke-width="1.11720001" fill="#FFFFFF" fill-rule="nonzero"></path>
                <path d="M299.191302,133.242061 C299.191302,133.242061 300.008307,143.215046 275.225721,140.219727 C274.953386,144.30423 269.506651,153.199378 259.974874,153.471658 C259.974874,153.471658 277.086688,155.695433 288.434037,147.163371 C298.646623,140.219746 299.191302,133.242061 299.191302,133.242061 Z" id="Path" stroke="#313D3F" stroke-width="1.11720001" fill="#FFFFFF" fill-rule="nonzero"></path>
                <ellipse id="Oval" fill="#E2E7E7" fill-rule="nonzero" cx="263.246298" cy="113.572278" rx="18.761107" ry="18.7585853"></ellipse>
            </g>
        </g>
    </g>
</svg>