<svg xmlns="http://www.w3.org/2000/svg" width="148.994" height="146.5" viewBox="0 0 148.994 146.5"><defs><style>.a{fill:#1f253c;}</style></defs><g transform="translate(36.096 90.809)"><path class="a" d="M228.1,300.064h-9.817a2.454,2.454,0,0,0-2.454,2.454H191.285a2.444,2.444,0,0,0-1.735.719l-13.825,13.825L127.051,308.6a8.022,8.022,0,0,0-5.417,14.831l53.541,31.231a8.008,8.008,0,0,0,7.63.245l26.239-13.118h6.784a2.454,2.454,0,0,0,2.454,2.454H228.1a2.454,2.454,0,0,0,2.454-2.454V302.518A2.454,2.454,0,0,0,228.1,300.064Zm-12.272,36.815h-7.363a2.46,2.46,0,0,0-1.1.258l-26.759,13.381a3.1,3.1,0,0,1-2.96-.1L124.111,319.19a3.114,3.114,0,0,1,2.1-5.758l45.267,7.873-1.988,1.988a9.4,9.4,0,1,0,13.29,13.285l12.694-12.691-3.47-3.47-12.694,12.694a4.488,4.488,0,0,1-7.66-3.176,4.461,4.461,0,0,1,1.313-3.173L192.3,307.427h23.527Zm9.817,2.454h-4.909v-34.36h4.909Z" transform="translate(-117.656 -300.064)"/></g><g transform="translate(72.91 36.815)"><path class="a" d="M252.382,124.064a14.726,14.726,0,1,0,14.726,14.726A14.741,14.741,0,0,0,252.382,124.064Zm0,24.543a9.817,9.817,0,1,1,9.817-9.817A9.827,9.827,0,0,1,252.382,148.607Z" transform="translate(-237.656 -124.064)"/></g><path class="a" d="M134.268,4.064H41A2.454,2.454,0,0,0,38.55,6.518V26.153H18.915a2.444,2.444,0,0,0-1.735.719L0,44.052l3.47,3.47L19.931,31.061H38.55V45.787H26.278V50.7H58.184a4.909,4.909,0,0,1,0,9.817H41a2.426,2.426,0,0,0-.945.191,2.457,2.457,0,0,0-.793.53l-7.36,7.36,3.47,3.47,3.173-3.173V82.6H1.735V87.51H134.268a2.454,2.454,0,0,0,2.454-2.454V6.518A2.454,2.454,0,0,0,134.268,4.064ZM43.458,28.607H50.51a9.854,9.854,0,0,1-7.051,7.054Zm0,53.995V75.548A9.854,9.854,0,0,1,50.51,82.6Zm88.355,0h-7.051a9.854,9.854,0,0,1,7.051-7.054Zm0-12.051A14.743,14.743,0,0,0,119.763,82.6H55.509A14.743,14.743,0,0,0,43.458,70.551v-5.13H58.184a9.817,9.817,0,1,0,0-19.634H43.458v-5.13A14.743,14.743,0,0,0,55.509,28.607h64.254a14.743,14.743,0,0,0,12.051,12.051Zm0-34.89a9.854,9.854,0,0,1-7.051-7.054h7.051Zm0-11.962H43.458V18.79h88.355Zm0-9.817H43.458V8.973h88.355Z" transform="translate(0 -4.064)"/></svg>