<svg xmlns="http://www.w3.org/2000/svg" width="343.208" height="255" viewBox="0 0 343.208 255"><defs><style>.a{fill:#ffd88e;}.b{fill:#ff7b79;}.c{fill:#fce8d0;}.d{fill:#1f253c;}</style></defs><g transform="translate(0 -65.725)"><g transform="translate(6.703 72.703)"><path class="a" d="M339.8,96.11v40.22a20.109,20.109,0,0,1-20.11,20.11h-20.11v20.11l-40.22-20.11H195.01l-20.11,20.11-20.11-20.11H94.461l-40.22,20.11v-20.11H30.11A20.109,20.109,0,0,1,10,136.33V96.11A20.109,20.109,0,0,1,30.11,76H319.691A20.109,20.109,0,0,1,339.8,96.11Z" transform="translate(-10 -76)"/><path class="b" d="M462.439,407.22v6.033H382V407.22a40.22,40.22,0,0,1,80.439,0Z" transform="translate(-132.638 -171.935)"/><ellipse class="c" cx="20" cy="20.5" rx="20" ry="20.5" transform="translate(269.297 141.021)"/><path class="b" d="M276.439,407.22v6.033H196V407.22a40.22,40.22,0,0,1,80.439,0Z" transform="translate(-71.319 -171.935)"/><circle class="c" cx="20.5" cy="20.5" r="20.5" transform="translate(144.297 141.021)"/><path class="b" d="M90.439,407.22v6.033H10V407.22a40.22,40.22,0,0,1,80.439,0Z" transform="translate(-10 -171.935)"/><ellipse class="c" cx="20" cy="20.5" rx="20" ry="20.5" transform="translate(20.297 141.021)"/></g><g transform="translate(0 66)"><circle class="d" cx="7" cy="7" r="7" transform="translate(205 39.725)"/><ellipse class="d" cx="6.5" cy="7" rx="6.5" ry="7" transform="translate(165 39.725)"/><ellipse class="d" cx="6.5" cy="7" rx="6.5" ry="7" transform="translate(125 39.725)"/><path class="d" d="M269.626,303.813a26.813,26.813,0,1,0-26.813,26.813A26.844,26.844,0,0,0,269.626,303.813ZM242.813,317.22a13.407,13.407,0,1,1,13.407-13.407A13.422,13.422,0,0,1,242.813,317.22Z" transform="translate(-71.209 -135.561)"/><path class="d" d="M186,403.923v6.033a6.7,6.7,0,0,0,6.7,6.7h80.439a6.7,6.7,0,0,0,6.7-6.7v-6.033a46.923,46.923,0,0,0-93.846,0Zm46.923-33.516a33.557,33.557,0,0,1,33.51,32.846H199.413a33.557,33.557,0,0,1,33.51-32.846Z" transform="translate(-61.319 -161.935)"/><path class="d" d="M83.626,303.813a26.813,26.813,0,1,0-26.813,26.813A26.844,26.844,0,0,0,83.626,303.813ZM56.813,317.22A13.407,13.407,0,1,1,70.22,303.813,13.422,13.422,0,0,1,56.813,317.22Z" transform="translate(-9.89 -135.561)"/><path class="d" d="M6.7,416.659H87.143a6.7,6.7,0,0,0,6.7-6.7v-6.033a46.923,46.923,0,0,0-93.846,0v6.033A6.7,6.7,0,0,0,6.7,416.659Zm40.22-46.253a33.557,33.557,0,0,1,33.51,32.846H13.413A33.557,33.557,0,0,1,46.923,370.407Z" transform="translate(0 -161.935)"/><path class="d" d="M455.626,303.813a26.813,26.813,0,1,0-26.813,26.813A26.844,26.844,0,0,0,455.626,303.813ZM428.813,317.22a13.407,13.407,0,1,1,13.407-13.407A13.422,13.422,0,0,1,428.813,317.22Z" transform="translate(-132.528 -135.561)"/><path class="d" d="M418.923,357A46.976,46.976,0,0,0,372,403.923v6.033a6.7,6.7,0,0,0,6.7,6.7h80.439a6.7,6.7,0,0,0,6.7-6.7v-6.033A46.976,46.976,0,0,0,418.923,357Zm-33.51,46.253a33.516,33.516,0,0,1,67.019,0Z" transform="translate(-122.638 -161.935)"/><path class="d" d="M316.395,66H201.769a6.7,6.7,0,0,0,0,13.407H316.395A13.422,13.422,0,0,1,329.8,92.813v40.22a13.422,13.422,0,0,1-13.407,13.407h-20.11a6.7,6.7,0,0,0-6.7,6.7v9.263l-30.519-15.259a6.7,6.7,0,0,0-3-.707H191.714a6.705,6.705,0,0,0-4.74,1.963L171.6,163.772l-15.37-15.37a6.707,6.707,0,0,0-4.74-1.963H91.165a6.694,6.694,0,0,0-3,.708L57.648,162.406v-9.263a6.7,6.7,0,0,0-6.7-6.7H26.813a13.422,13.422,0,0,1-13.407-13.407V92.813A13.422,13.422,0,0,1,26.813,79.407H141.439a6.7,6.7,0,0,0,0-13.407H26.813A26.844,26.844,0,0,0,0,92.813v40.22a26.844,26.844,0,0,0,26.813,26.813H44.242v13.407a6.7,6.7,0,0,0,9.7,6l38.8-19.4h55.97l18.146,18.146a6.705,6.705,0,0,0,9.48,0l18.147-18.146h59.992l38.8,19.4a6.7,6.7,0,0,0,9.7-6V159.845H316.4a26.844,26.844,0,0,0,26.813-26.813V92.812A26.844,26.844,0,0,0,316.395,66Z" transform="translate(0 -66)"/><ellipse class="d" cx="6.5" cy="7" rx="6.5" ry="7" transform="translate(165 -0.275)"/></g></g></svg>