<?xml version="1.0" encoding="UTF-8"?>
<svg width="566px" height="260px" viewBox="0 0 566 260" version="1.1" xmlns="http://www.w3.org/2000/svg" xmlns:xlink="http://www.w3.org/1999/xlink">
    <!-- Generator: Sketch 53.1 (72631) - https://sketchapp.com -->
    <title>web-illo-services</title>
    <desc>Created with Sketch.</desc>
    <g id="web-illo-services" stroke="none" stroke-width="1" fill="none" fill-rule="evenodd">
        <g id="web-services" transform="translate(90.000000, 32.000000)">
            <g id="web-services-1">
                <g id="Group" opacity="0.04" fill="#000000" fill-rule="nonzero">
                    <path d="M379.445012,187.297382 C379.316217,187.509111 379.187872,187.72084 379.050107,187.923363 L0.494034048,187.923363 L0.494034048,187.297382 L379.445012,187.297382 Z" id="Path"></path>
                    <path d="M385.731151,168.122083 C385.722172,168.324606 385.703782,168.536335 385.685382,168.748064 L0.494034048,168.748064 L0.494034048,168.122083 L385.731151,168.122083 Z" id="Path"></path>
                    <rect id="Rectangle" x="0.494034048" y="148.955999" width="383.46364" height="1"></rect>
                    <path d="M375.474883,130.415896 L4.46460467,130.415896 C4.50272364,130.204844 4.55170371,129.995905 4.611349,129.789915 L375.116335,129.789915 C375.235701,129.992475 375.355067,130.204186 375.474883,130.415896 Z" id="Path"></path>
                    <path d="M363.003122,111.231438 L10.300217,111.231438 C10.3738143,111.028915 10.4563816,110.817186 10.5483599,110.605457 L362.571418,110.605457 C362.709192,110.817176 362.856377,111.019672 363.003122,111.231438 Z" id="Path"></path>
                    <rect id="Rectangle" x="19.6288904" y="91.4301027" width="326.041122" height="1"></rect>
                    <path d="M343.381363,72.89 L33.5245503,72.89 C33.7085437,72.678271 33.8831076,72.4757477 34.0670917,72.2640187 L342.876071,72.2640187 C343.041656,72.4757477 343.21622,72.678271 343.381363,72.89 Z" id="Path"></path>
                    <path d="M330.119791,53.0887383 C330.230187,53.3004673 330.349553,53.5029907 330.478348,53.7147196 L52.971745,53.7147196 C53.2288761,53.5029907 53.4774877,53.2820561 53.7346189,53.0887383 L330.119791,53.0887383 Z" id="Path"></path>
                    <path d="M319.817304,33.9042523 C319.936679,34.1067757 320.056045,34.3185047 320.166441,34.5302336 L80.5799722,34.5302336 C80.9385203,34.3092991 81.2966272,34.1159813 81.6551844,33.9042523 L319.817304,33.9042523 Z" id="Path"></path>
                    <path d="M293.288471,15.3595561 L122.979701,15.3595561 C123.58642,15.1478271 124.192908,14.9453037 124.799415,14.7427804 L291.928317,14.7427804 C292.387822,14.9453037 292.838146,15.1478271 293.288471,15.3595561 Z" id="Path"></path>
                    <rect id="Rectangle" x="0.489236619" y="148.96051" width="1" height="1"></rect>
                    <rect id="Rectangle" x="0.489236619" y="168.126594" width="1" height="1"></rect>
                    <rect id="Rectangle" x="0.489236619" y="187.301893" width="1" height="1"></rect>
                    <path d="M20.1199651,91.4346963 C20.1591269,91.3541208 20.2052229,91.2771163 20.2577303,91.2045561 L20.2577303,192.503061 C20.0463494,192.503061 19.8349684,192.493855 19.6328423,192.48465 L19.6328423,91.4346963 L20.1199651,91.4346963 Z" id="Path"></path>
                    <path d="M38.7766777,67.0490421 C38.9788682,66.8281075 39.1902491,66.6163785 39.4015658,66.3954439 L39.4015658,192.889696 C39.1901848,192.880491 38.9788039,192.880491 38.7766777,192.880491 L38.7766777,67.0490421 Z" id="Path"></path>
                    <path d="M57.9202834,49.7240888 C58.122676,49.5675935 58.3340386,49.4018925 58.5454012,49.2454432 L58.5454012,193.202687 C58.3340202,193.202687 58.131646,193.202687 57.9202834,193.193481 L57.9202834,49.7240888 Z" id="Path"></path>
                    <path d="M77.0549191,36.6153037 C77.2571096,36.4864252 77.4684906,36.3575467 77.6798072,36.2470794 L77.6798072,193.497266 C77.4684262,193.497266 77.2570453,193.488061 77.0549191,193.488061 L77.0549191,36.6153037 Z" id="Path"></path>
                    <path d="M96.1987546,26.3050234 C96.4101355,26.2037617 96.612326,26.1025 96.8236426,26.0012843 L96.8236426,193.764275 C96.6122617,193.764275 96.4100712,193.755069 96.1987546,193.755069 L96.1987546,26.3050234 Z" id="Path"></path>
                    <path d="M115.967478,15.3595561 L115.967478,194.021986 C115.756097,194.01278 115.553907,194.01278 115.34236,194.01278 L115.34236,15.3595561 L115.967478,15.3595561 Z" id="Path"></path>
                    <path d="M134.486196,11.6957243 C134.697577,11.631285 134.908958,11.5668458 135.111313,11.5116121 L135.111313,194.252126 C134.908921,194.252126 134.697558,194.252126 134.486196,194.242921 L134.486196,11.6957243 Z" id="Path"></path>
                    <path d="M153.630031,6.80754673 C153.832222,6.76151869 154.043603,6.71549065 154.254919,6.67866822 L154.254919,194.482266 C154.043538,194.482266 153.841348,194.473061 153.630031,194.473061 L153.630031,6.80754673 Z" id="Path"></path>
                    <path d="M172.773867,3.3278271 C172.985247,3.30021028 173.187438,3.26338785 173.398755,3.23577103 L173.398755,194.703201 C173.196564,194.694051 172.985183,194.694051 172.773867,194.694051 L172.773867,3.3278271 Z" id="Path"></path>
                    <path d="M192.54236,1.04483645 L192.54236,194.905724 L191.917472,194.905724 L191.917472,1.10007009 C192.128835,1.07245327 192.330998,1.06324766 192.54236,1.04483645 Z" id="Path"></path>
                    <path d="M211.676996,0.133481308 L211.676996,195.108248 C211.465615,195.108248 211.263425,195.108248 211.052108,195.099042 L211.052108,0.142686916 C211.263471,0.133481308 211.465633,0.133481308 211.676996,0.133481308 Z" id="Path"></path>
                    <path d="M230.820831,0.612172897 L230.820831,195.301565 C230.60945,195.301565 230.39807,195.301565 230.195943,195.29236 L230.195943,0.56614486 C230.407306,0.584556075 230.609469,0.593761682 230.820831,0.612172897 Z" id="Path"></path>
                    <path d="M249.964667,2.70184579 L249.964667,195.494883 C249.753075,195.485678 249.541712,195.485678 249.339549,195.485678 L249.339549,2.60058411 C249.551141,2.63740654 249.753075,2.66502336 249.964667,2.70184579 Z" id="Path"></path>
                    <path d="M268.483384,6.56820093 C268.694765,6.62343458 268.906146,6.67866822 269.108273,6.74310748 L269.108273,195.66979 C268.896892,195.66979 268.694701,195.660584 268.483384,195.660584 L268.483384,6.56820093 Z" id="Path"></path>
                    <path d="M287.62722,12.9292757 C287.840824,13.0016687 288.049552,13.0877659 288.252108,13.1870327 L288.252108,195.835491 L287.62722,195.835491 L287.62722,12.9292757 Z" id="Path"></path>
                    <path d="M306.770826,22.4570794 C306.982207,22.5859579 307.193587,22.7148364 307.395943,22.843715 L307.395943,196.001192 C307.193551,196.001192 306.982188,196.001192 306.770826,195.991986 L306.770826,22.4570794 Z" id="Path"></path>
                    <path d="M325.910489,45.4664953 C326.121869,45.8531308 326.324235,46.248972 326.535597,46.6448131 L326.535597,196.153084 C326.333214,196.153084 326.121851,196.143879 325.910489,196.153084 L325.910489,45.4664953 Z" id="Path"></path>
                    <path d="M345.670012,82.0220086 L345.670012,196.309625 C345.46807,196.30042 345.256257,196.30042 345.045345,196.30042 L345.045345,80.4846722 C345.238308,81.0002046 345.44922,81.5157094 345.670012,82.0220086 Z" id="Path"></path>
                    <path d="M364.813839,113.845803 L364.813839,196.429308 L364.18873,196.429308 L364.18873,112.943653 C364.400093,113.247466 364.602476,113.551214 364.813839,113.845803 Z" id="Path"></path>
                    <path d="M383.957674,148.955999 L383.957674,177.585438 C383.865687,177.898429 383.764674,178.202214 383.654315,178.515205 C383.553348,178.809784 383.451931,179.104364 383.332565,179.398943 L383.332565,148.477307 C383.387763,148.643008 383.433532,148.799504 383.470331,148.955999 L383.957674,148.955999 Z" id="Path"></path>
                </g>
                <path d="M284.747237,42.3177265 L284.747237,167.771331 C284.747237,169.804978 283.101351,171.453574 281.071047,171.453574 L112.281334,171.453574 C110.25103,171.453574 108.605144,169.804978 108.605144,167.771331 L108.605144,42.3178646 C108.605149,39.1561969 111.163973,36.5931601 114.320444,36.593155 L279.031799,36.593155 C282.187069,36.5959869 284.744258,39.1572621 284.747237,42.3177265 L284.747237,42.3177265 Z" id="Path" stroke="#313D3F" stroke-width="1.10159995" fill="#FFFFFF" fill-rule="nonzero"></path>
                <path d="M108.736365,51.3656879 L284.705797,51.3656879" id="Path" stroke="#313D3F" stroke-width="1.10159995"></path>
                <ellipse id="Oval" stroke="#F06D6E" stroke-width="0.917999959" fill="#F06D6E" fill-rule="nonzero" cx="117.922724" cy="44.2180124" rx="2.52886062" ry="2.53302416"></ellipse>
                <ellipse id="Oval" stroke="#313D3F" stroke-width="0.917999959" fill="#FFFFFF" fill-rule="nonzero" cx="126.656627" cy="44.2180124" rx="2.52886062" ry="2.53302416"></ellipse>
                <ellipse id="Oval" stroke="#36B998" stroke-width="0.917999959" fill="#36B998" fill-rule="nonzero" cx="135.390529" cy="44.2180124" rx="2.52886062" ry="2.53302416"></ellipse>
                <rect id="Rectangle" fill="#E2E7E7" fill-rule="nonzero" x="129.957248" y="65.6012393" width="21.2302941" height="5.2347871" rx="2.61011256"></rect>
                <rect id="Rectangle" fill="#B4B4B4" fill-rule="nonzero" x="233.24595" y="65.6012393" width="11.785398" height="5.2347871" rx="2.61011256"></rect>
                <rect id="Rectangle" fill="#B4B4B4" fill-rule="nonzero" x="157.046526" y="65.6012393" width="35.5200325" height="5.2347871" rx="2.61011256"></rect>
                <rect id="Rectangle" fill="#E2E7E7" fill-rule="nonzero" x="198.110833" y="65.6012393" width="27.6342087" height="5.2347871" rx="2.61011256"></rect>
                <rect id="Rectangle" fill="#E2E7E7" fill-rule="nonzero" x="253.176959" y="65.6012393" width="19.8893025" height="5.2347871" rx="2.61011256"></rect>
                <rect id="Rectangle" fill="#B4B4B4" fill-rule="nonzero" x="172.122133" y="80.1044162" width="44.8040953" height="5.2347871" rx="2.61011256"></rect>
                <rect id="Rectangle" fill="#E2E7E7" fill-rule="nonzero" transform="translate(155.290769, 82.721801) rotate(180.000000) translate(-155.290769, -82.721801) " x="144.144688" y="80.104407" width="22.2921617" height="5.2347871" rx="2.61011256"></rect>
                <rect id="Rectangle" fill="#B4B4B4" fill-rule="nonzero" transform="translate(134.738355, 82.721801) rotate(180.000000) translate(-134.738355, -82.721801) " x="129.957248" y="80.104407" width="9.56221257" height="5.2347871" rx="2.61011256"></rect>
                <rect id="Rectangle" fill="#E2E7E7" fill-rule="nonzero" transform="translate(248.469137, 82.721801) rotate(180.000000) translate(-248.469137, -82.721801) " x="223.468984" y="80.104407" width="50.0003078" height="5.2347871" rx="2.61011256"></rect>
                <rect id="Rectangle" fill="#E2E7E7" fill-rule="nonzero" x="129.957248" y="109.110751" width="14.4296082" height="5.2347871" rx="2.61011256"></rect>
                <rect id="Rectangle" fill="#E2E7E7" fill-rule="nonzero" x="223.519448" y="109.110751" width="73.288662" height="5.2347871" rx="2.61011256"></rect>
                <rect id="Rectangle" fill="#B4B4B4" fill-rule="nonzero" x="151.994999" y="109.110751" width="26.0277594" height="5.2347871" rx="2.61011256"></rect>
                <rect id="Rectangle" fill="#E2E7E7" fill-rule="nonzero" x="186.324185" y="109.110751" width="28.2633428" height="5.2347871" rx="2.61011256"></rect>
                <rect id="Rectangle" fill="#B4B4B4" fill-rule="nonzero" x="180.490273" y="123.613919" width="37.9967831" height="5.2347871" rx="2.61011256"></rect>
                <rect id="Rectangle" fill="#B4B4B4" fill-rule="nonzero" transform="translate(170.106179, 126.231313) rotate(180.000000) translate(-170.106179, -126.231313) " x="165.273978" y="123.613919" width="9.66440148" height="5.2347871" rx="2.61011256"></rect>
                <rect id="Rectangle" fill="#E2E7E7" fill-rule="nonzero" transform="translate(144.428425, 126.231313) rotate(180.000000) translate(-144.428425, -126.231313) " x="129.957258" y="123.613919" width="28.9423351" height="5.2347871" rx="2.61011256"></rect>
                <rect id="Rectangle" fill="#E2E7E7" fill-rule="nonzero" transform="translate(239.738240, 126.231313) rotate(180.000000) translate(-239.738240, -126.231313) " x="225.267073" y="123.613919" width="28.9423351" height="5.2347871" rx="2.61011256"></rect>
                <rect id="Rectangle" fill="#E2E7E7" fill-rule="nonzero" transform="translate(164.817850, 97.224968) rotate(180.000000) translate(-164.817850, -97.224968) " x="156.482939" y="94.6075746" width="16.6698236" height="5.2347871" rx="2.61011256"></rect>
                <rect id="Rectangle" fill="#B4B4B4" fill-rule="nonzero" transform="translate(140.032901, 97.224968) rotate(180.000000) translate(-140.032901, -97.224968) " x="129.957248" y="94.6075746" width="20.1513046" height="5.2347871" rx="2.61011256"></rect>
                <rect id="Rectangle" fill="#B4B4B4" fill-rule="nonzero" transform="translate(267.763802, 97.224968) rotate(180.000000) translate(-267.763802, -97.224968) " x="257.68815" y="94.6075746" width="20.1513046" height="5.2347871" rx="2.61011256"></rect>
                <rect id="Rectangle" fill="#B4B4B4" fill-rule="nonzero" x="180.277026" y="94.6075838" width="9.66440148" height="5.2347871" rx="2.61011256"></rect>
                <rect id="Rectangle" fill="#E2E7E7" fill-rule="nonzero" x="195.436717" y="94.6075838" width="54.5986799" height="5.2347871" rx="2.61011256"></rect>
                <rect id="Rectangle" fill="#B4B4B4" fill-rule="nonzero" x="129.957248" y="152.620254" width="21.2302941" height="5.2347871" rx="2.61011256"></rect>
                <rect id="Rectangle" fill="#E2E7E7" fill-rule="nonzero" x="158.795685" y="152.620254" width="73.1733307" height="5.2347871" rx="2.61011256"></rect>
                <rect id="Rectangle" fill="#E2E7E7" fill-rule="nonzero" x="199.920787" y="138.117087" width="52.3000866" height="5.2347871" rx="2.61011256"></rect>
                <rect id="Rectangle" fill="#B4B4B4" fill-rule="nonzero" transform="translate(180.283547, 140.734480) rotate(180.000000) translate(-180.283547, -140.734480) " x="166.1982" y="138.117087" width="28.1706936" height="5.2347871" rx="2.61011256"></rect>
                <rect id="Rectangle" fill="#E2E7E7" fill-rule="nonzero" transform="translate(144.890532, 140.734480) rotate(180.000000) translate(-144.890532, -140.734480) " x="129.957248" y="138.117087" width="29.8665662" height="5.2347871" rx="2.61011256"></rect>
                <ellipse id="Oval" fill="#D6D8D9" fill-rule="nonzero" cx="120.37297" cy="67.6287192" rx="1.94541243" ry="1.94861537"></ellipse>
                <ellipse id="Oval" fill="#D6D8D9" fill-rule="nonzero" cx="120.37297" cy="78.4978351" rx="1.94541243" ry="1.94861537"></ellipse>
                <ellipse id="Oval" fill="#D6D8D9" fill-rule="nonzero" cx="120.37297" cy="89.3669511" rx="1.94541243" ry="1.94861537"></ellipse>
                <ellipse id="Oval" fill="#D6D8D9" fill-rule="nonzero" cx="120.37297" cy="100.236067" rx="1.94541243" ry="1.94861537"></ellipse>
                <ellipse id="Oval" fill="#D6D8D9" fill-rule="nonzero" cx="120.37297" cy="111.105183" rx="1.94541243" ry="1.94861537"></ellipse>
                <ellipse id="Oval" fill="#D6D8D9" fill-rule="nonzero" cx="120.37297" cy="121.974299" rx="1.94541243" ry="1.94861537"></ellipse>
                <ellipse id="Oval" fill="#D6D8D9" fill-rule="nonzero" cx="120.37297" cy="132.843415" rx="1.94541243" ry="1.94861537"></ellipse>
                <ellipse id="Oval" fill="#D6D8D9" fill-rule="nonzero" cx="120.37297" cy="143.712531" rx="1.94541243" ry="1.94861537"></ellipse>
                <ellipse id="Oval" fill="#D6D8D9" fill-rule="nonzero" cx="120.37297" cy="154.581647" rx="1.94541243" ry="1.94861537"></ellipse>
                <path d="M108.418816,79.2529803 L93.5877127,79.2529803 C90.1375005,79.2529803 87.3405509,82.0545349 87.3405509,85.5104276 L87.3405509,132.050186" id="Path" stroke="#313D3F" stroke-width="1.10159995" stroke-dasharray="3.120015562842582"></path>
                <rect id="Rectangle" fill="#EEBF1B" fill-rule="nonzero" x="60.8121862" y="101.429952" width="64.0127511" height="48.5068497" rx="3.5738381"></rect>
                <text id="&lt;/&gt;" fill="#313D3F" font-family="DINNextCYR-Regular, DIN Next CYR" font-size="26.2285165" font-weight="normal">
                    <tspan x="73.1386183" y="133.426754">&lt;/&gt;</tspan>
                </text>
                <path d="M245.618068,108.827458 L308.560983,108.827458 C311.606439,108.827458 314.075269,111.300353 314.075269,114.350823 L314.075269,177.870518 C314.075269,179.359066 312.870546,180.565772 311.384445,180.565772 L242.794607,180.565772 C241.308505,180.565772 240.103782,179.359066 240.103782,177.870518 L240.103782,114.350823 C240.103782,111.300353 242.572612,108.827458 245.618068,108.827458 L245.618068,108.827458 Z" id="Path" stroke="#313D3F" stroke-width="1.10159995" fill="#FFFFFF" fill-rule="nonzero"></path>
                <path d="M313.979697,122.576696 L240.054953,122.576696" id="Path" stroke="#313D3F" stroke-width="1.10159995"></path>
                <path d="M288.41193,130.359503 L313.923084,130.359503 L313.923084,134.998917 L288.41193,134.998917 C287.1329,134.998917 286.096041,133.960351 286.096041,132.679215 L286.096041,132.679215 C286.096038,132.06399 286.340032,131.473962 286.774346,131.038931 C287.20866,130.603901 287.797717,130.359503 288.41193,130.359503 Z" id="Path" fill="#F06D6E" fill-rule="nonzero"></path>
                <rect id="Rectangle" fill="#36B998" fill-rule="nonzero" transform="translate(273.737713, 132.679219) rotate(180.000000) translate(-273.737713, -132.679219) " x="265.185446" y="130.359512" width="17.1045331" height="4.63941444" rx="2.31324974"></rect>
                <rect id="Rectangle" fill="#EEBF1B" fill-rule="nonzero" transform="translate(255.192214, 132.679219) rotate(180.000000) translate(-255.192214, -132.679219) " x="248.880062" y="130.359512" width="12.6243046" height="4.63941444" rx="2.31324974"></rect>
                <rect id="Rectangle" fill="#36B998" fill-rule="nonzero" x="248.880062" y="156.066852" width="10.2053897" height="4.63941444" rx="2.31324974"></rect>
                <rect id="Rectangle" fill="#F06D6E" fill-rule="nonzero" x="262.72011" y="156.066852" width="34.2609372" height="4.63941444" rx="2.31324974"></rect>
                <path d="M313.923075,160.706267 L303.721545,160.706267 C302.442514,160.706267 301.405655,159.6677 301.405655,158.386564 L301.405655,158.386564 C301.405653,157.771339 301.649647,157.181311 302.08396,156.746281 C302.518274,156.31125 303.107331,156.066852 303.721545,156.066852 L313.923075,156.066852 L313.923075,160.706267 Z" id="Path" fill="#36B998" fill-rule="nonzero"></path>
                <path d="M301.483811,168.920531 L313.923121,168.920531 L313.923121,173.559946 L301.483811,173.559946 C300.204781,173.559946 299.167921,172.52138 299.167921,171.240243 L299.167921,171.240243 C299.167919,170.625018 299.411913,170.03499 299.846227,169.59996 C300.28054,169.164929 300.869597,168.920531 301.483811,168.920531 L301.483811,168.920531 Z" id="Path" fill="#EEBF1B" fill-rule="nonzero"></path>
                <rect id="Rectangle" fill="#36B998" fill-rule="nonzero" transform="translate(291.059417, 171.240239) rotate(-180.000000) translate(-291.059417, -171.240239) " x="286.776798" y="168.920531" width="8.5652389" height="4.63941444" rx="2.31324974"></rect>
                <rect id="Rectangle" fill="#5CC7DC" fill-rule="nonzero" transform="translate(266.010540, 171.240239) rotate(-180.000000) translate(-266.010540, -171.240239) " x="248.880071" y="168.920531" width="34.2609372" height="4.63941444" rx="2.31324974"></rect>
                <rect id="Rectangle" fill="#36B998" fill-rule="nonzero" transform="translate(280.385524, 145.532889) rotate(-180.000000) translate(-280.385524, -145.532889) " x="270.19977" y="143.213182" width="20.3715084" height="4.63941444" rx="2.31324974"></rect>
                <rect id="Rectangle" fill="#F06D6E" fill-rule="nonzero" transform="translate(257.809777, 145.532889) rotate(-180.000000) translate(-257.809777, -145.532889) " x="248.880062" y="143.213182" width="17.8594296" height="4.63941444" rx="2.31324974"></rect>
                <rect id="Rectangle" fill="#EEBF1B" fill-rule="nonzero" x="293.719072" y="143.213182" width="8.5652389" height="4.63941444" rx="2.31324974"></rect>
                <path d="M307.690415,143.213182 L313.923084,143.213182 L313.923084,147.852596 L307.690415,147.852596 C306.411385,147.852596 305.374526,146.81403 305.374526,145.532894 L305.374526,145.532894 C305.374523,144.917669 305.618517,144.327641 306.052831,143.89261 C306.487145,143.45758 307.076202,143.213182 307.690415,143.213182 L307.690415,143.213182 Z" id="Path" fill="#5CC7DC" fill-rule="nonzero"></path>
                <ellipse id="Oval" stroke="#313D3F" stroke-width="0.917999959" fill="#FFFFFF" fill-rule="nonzero" cx="247.619239" cy="115.580379" rx="2.52886062" ry="2.53302416"></ellipse>
                <ellipse id="Oval" stroke="#313D3F" stroke-width="0.917999959" fill="#FFFFFF" fill-rule="nonzero" cx="256.353141" cy="115.580379" rx="2.52886062" ry="2.53302416"></ellipse>
                <ellipse id="Oval" stroke="#313D3F" stroke-width="0.917999959" fill="#FFFFFF" fill-rule="nonzero" cx="265.087044" cy="115.580379" rx="2.52886062" ry="2.53302416"></ellipse>
                <path d="M308.560983,108.827458 C311.606439,108.827458 314.075269,111.300353 314.075269,114.350823 L314.075269,177.870518" id="Path" stroke="#313D3F" stroke-width="1.10159995"></path>
                <path d="M311.461562,45.4428645 C311.265005,45.4428645 311.180637,45.3583663 311.180637,45.161937 L311.180637,44.4036435 C311.180637,44.2067632 311.265005,44.1222557 311.461562,44.1222557 L312.190367,44.1222557 C313.115691,44.1222557 313.564444,43.5887079 313.564444,42.5490174 L313.564444,37.0710642 C313.564444,34.9642964 313.957557,34.2617429 314.99507,33.8405679 L314.99507,33.7839258 C313.957557,33.3627509 313.564444,32.6044574 313.564444,30.5534296 L313.564444,25.1878308 C313.564444,24.1481587 313.115691,23.6145925 312.190367,23.6145925 L311.461562,23.6145925 C311.265005,23.6145925 311.180637,23.530085 311.180637,23.3332047 L311.180637,22.5749112 C311.180637,22.3784912 311.265005,22.2939837 311.461562,22.2939837 L312.414715,22.2939837 C314.209726,22.2939837 314.995043,23.1929665 314.995043,25.2435524 L314.995043,30.7219659 C314.995043,32.2390009 315.527864,33.0256139 316.593505,33.081805 C316.790062,33.1096703 316.874431,33.2220432 316.874431,33.3627325 L316.874431,34.2617245 C316.874431,34.4024138 316.790062,34.5147866 316.593505,34.542652 C315.528164,34.598843 314.995343,35.3854561 314.995043,36.9024911 L314.995043,42.4932774 C314.995043,44.5438633 314.209726,45.4428461 312.414715,45.4428461 L311.461562,45.4428645 Z" id="Path" fill="#313D3F" fill-rule="nonzero"></path>
                <path d="M60.7724282,51.8094811 C60.5127544,50.1114614 60.5127544,48.3837333 60.7724282,46.6857136 C61.1065294,45.520725 62.2239252,44.7612026 63.4281541,44.8805492 C64.6153714,44.8038274 65.7014133,45.5490914 66.0587441,46.6857136 C66.3184309,48.3837323 66.3184309,50.1114624 66.0587441,51.8094811 C65.7016249,52.9463146 64.6155093,53.6918117 63.4281541,53.6150873 C62.2237857,53.734436 61.1063144,52.9746764 60.7724282,51.8094811 Z M64.9871254,51.5658547 C65.1488176,50.8045207 65.2061854,50.0246683 65.1576455,49.2478183 C65.2062134,48.4709711 65.1488454,47.6911179 64.9871254,46.9297911 C64.7228751,46.2944737 64.1031541,45.880628 63.4160365,45.880628 C62.7289189,45.880628 62.1091979,46.2944737 61.8449476,46.9297911 C61.6832229,47.6911173 61.6258518,48.4709707 61.6744183,49.2478183 C61.6258795,50.0246688 61.6832504,50.8045214 61.8449476,51.5658547 C62.1091979,52.201172 62.7289189,52.6150178 63.4160365,52.6150178 C64.1031541,52.6150178 64.7228751,52.201172 64.9871254,51.5658547 Z M72.0262766,45.0756344 C72.0860391,44.9372727 72.2172791,44.8433487 72.367326,44.831557 L73.0251986,44.831557 C73.1957279,44.831557 73.2441893,44.9048244 73.1714926,45.0756344 L63.5744481,61.6668548 C63.5146715,61.8052077 63.3834334,61.8991243 63.2333896,61.910923 L62.5755169,61.910923 C62.4049968,61.910923 62.3565262,61.8376556 62.4292229,61.6668548 L72.0262766,45.0756344 Z M69.3956774,57.4946617 C69.3605872,56.6359407 69.4259534,55.7760566 69.590442,54.9325571 C70.0113301,53.8445004 71.056525,53.1273869 72.2214823,53.1273869 C73.3864396,53.1273869 74.4316344,53.8445004 74.8525226,54.9325571 C75.0170112,55.7760566 75.0823774,56.6359407 75.0472872,57.4946617 C75.0851856,58.3532803 75.019794,59.2133474 74.8525226,60.0563153 C74.4318336,61.1445906 73.3865712,61.8619251 72.2214823,61.8619251 C71.0563934,61.8619251 70.011131,61.1445906 69.590442,60.0563153 C69.4231706,59.2133474 69.357779,58.3532803 69.3956774,57.4946617 L69.3956774,57.4946617 Z M72.2219326,60.861806 C72.9310133,60.9313806 73.5917028,60.4935738 73.80513,59.8126981 C73.9577132,59.0500912 74.0149961,58.271434 73.9756593,57.4946617 C74.0183447,56.7259027 73.9610208,55.9548477 73.80513,55.2009005 C73.5350181,54.5647624 72.9116247,54.151786 72.2214777,54.151786 C71.5313306,54.151786 70.9079373,54.5647624 70.6378254,55.2009005 C70.4819443,55.9548491 70.4246235,56.7259032 70.4673053,57.4946617 C70.4279719,58.2714336 70.4852516,59.0500899 70.6378254,59.8126981 C70.8514623,60.4938312 71.5125702,60.9316636 72.2219326,60.861806 L72.2219326,60.861806 Z" id="Shape" fill="#313D3F" fill-rule="nonzero"></path>
                <path d="M350.901084,142.315691 C349.523514,140.075009 347.057021,138.740828 344.43095,138.81585 C341.804878,138.890871 339.418313,140.363695 338.170481,142.679379 C336.92265,144.995063 337.003186,147.801692 338.381744,150.041764" id="Path" stroke="#E8E8E8" stroke-width="1.37699994"></path>
                <path d="M321.95341,80.3729345 C321.978762,80.2228804 322.115364,80.1178091 322.266639,80.1320054 L322.990031,80.1320054 C323.158768,80.1320054 323.206329,80.2043707 323.158768,80.3729345 L317.833852,96.7830069 C317.808664,96.9331603 317.671951,97.0383175 317.520622,97.0239361 L316.798131,97.0239361 C316.629394,97.0239361 316.580933,96.9520127 316.629394,96.7830069 L321.95341,80.3729345 Z" id="Path" fill="#5CC7DC" fill-rule="nonzero"></path>
                <path d="M331.75689,80.3729345 C331.782247,80.222879 331.918852,80.1178086 332.070129,80.1320054 L332.793512,80.1320054 C332.962249,80.1320054 333.009819,80.2043707 332.962249,80.3729345 L327.637333,96.7830069 C327.612145,96.9331603 327.475432,97.0383175 327.324103,97.0239361 L326.601612,97.0239361 C326.432884,97.0239361 326.384414,96.9520127 326.432884,96.7830069 L331.75689,80.3729345 Z" id="Path" fill="#5CC7DC" fill-rule="nonzero"></path>
                <path d="M341.559452,80.3729345 C341.584805,80.2228804 341.721407,80.1178091 341.872682,80.1320054 L342.596074,80.1320054 C342.764802,80.1320054 342.812372,80.2043707 342.764802,80.3729345 L337.439895,96.7830069 C337.414703,96.9331579 337.277992,97.0383128 337.126665,97.0239361 L336.404174,97.0239361 C336.235437,97.0239361 336.186976,96.9520127 336.235437,96.7830069 L341.559452,80.3729345 Z" id="Path" fill="#5CC7DC" fill-rule="nonzero"></path>
                <path d="M351.362933,80.3729345 C351.388286,80.2228804 351.524888,80.1178091 351.676163,80.1320054 L352.399555,80.1320054 C352.568292,80.1320054 352.615853,80.2043707 352.568292,80.3729345 L347.243376,96.7830069 C347.218188,96.9331603 347.081474,97.0383175 346.930146,97.0239361 L346.207655,97.0239361 C346.038918,97.0239361 345.990457,96.9520127 346.038918,96.7830069 L351.362933,80.3729345 Z" id="Path" fill="#5CC7DC" fill-rule="nonzero"></path>
                <path d="M361.166414,80.3729345 C361.191771,80.222879 361.328376,80.1178086 361.479653,80.1320054 L362.203036,80.1320054 C362.371773,80.1320054 362.419343,80.2043707 362.371773,80.3729345 L357.046857,96.7830069 C357.021669,96.9331603 356.884955,97.0383175 356.733627,97.0239361 L356.011136,97.0239361 C355.842408,97.0239361 355.793938,96.9520127 355.842408,96.7830069 L361.166414,80.3729345 Z" id="Path" fill="#5CC7DC" fill-rule="nonzero"></path>
                <polygon id="Rectangle" stroke="#B4B4B4" stroke-width="1.10159995" opacity="0.3" transform="translate(34.295237, 165.253633) rotate(-141.409390) translate(-34.295237, -165.253633) " points="29.0815204 160.038014 39.5005954 160.046372 39.5089533 170.469251 29.0898783 170.460893"></polygon>
                <ellipse id="Oval" fill="#F16D6E" fill-rule="nonzero" cx="19.28104" cy="121.36254" rx="2.60149295" ry="2.60577607"></ellipse>
            </g>
        </g>
    </g>
</svg>