<svg id="euetl0kcdqhq1" xmlns="http://www.w3.org/2000/svg" xmlns:xlink="http://www.w3.org/1999/xlink" viewBox="0 0 800 625.400000" shape-rendering="geometricPrecision" text-rendering="geometricPrecision"><style><![CDATA[#euetl0kcdqhq8_to {animation: euetl0kcdqhq8_to__to 8000ms linear infinite normal forwards}@keyframes euetl0kcdqhq8_to__to { 0% {transform: translate(0px,30px)} 12.500000% {transform: translate(0px,30px);animation-timing-function: cubic-bezier(1,0,0,1)} 31.250000% {transform: translate(0px,0px)} 100% {transform: translate(0px,0px)} }#euetl0kcdqhq8 {animation: euetl0kcdqhq8_c_o 8000ms linear infinite normal forwards}@keyframes euetl0kcdqhq8_c_o { 0% {opacity: 0} 12.500000% {opacity: 0;animation-timing-function: cubic-bezier(1,0,0,1)} 31.250000% {opacity: 1;animation-timing-function: cubic-bezier(1,0,0,1)} 87.500000% {opacity: 1} 100% {opacity: 0} }#euetl0kcdqhq9_to {animation: euetl0kcdqhq9_to__to 8000ms linear infinite normal forwards}@keyframes euetl0kcdqhq9_to__to { 0% {transform: translate(-200px,0px)} 17.500000% {transform: translate(-200px,0px);animation-timing-function: cubic-bezier(1,0,0,1)} 36.250000% {transform: translate(0px,0px);animation-timing-function: cubic-bezier(1,0,0,1)} 62.500000% {transform: translate(0px,0px)} 100% {transform: translate(0px,0px)} }#euetl0kcdqhq9 {animation: euetl0kcdqhq9_c_o 8000ms linear infinite normal forwards}@keyframes euetl0kcdqhq9_c_o { 0% {opacity: 0} 17.500000% {opacity: 0;animation-timing-function: cubic-bezier(1,0,0,1)} 36.250000% {opacity: 1} 87.500000% {opacity: 1} 100% {opacity: 0} }#euetl0kcdqhq15_to {animation: euetl0kcdqhq15_to__to 8000ms linear infinite normal forwards}@keyframes euetl0kcdqhq15_to__to { 0% {transform: translate(0px,30px)} 50% {transform: translate(0px,30px);animation-timing-function: cubic-bezier(0.420000,0,0.580000,1)} 58.750000% {transform: translate(0px,0px)} 100% {transform: translate(0px,0px)} }#euetl0kcdqhq15 {animation: euetl0kcdqhq15_c_o 8000ms linear infinite normal forwards}@keyframes euetl0kcdqhq15_c_o { 0% {opacity: 0} 50% {opacity: 0;animation-timing-function: cubic-bezier(0.420000,0,0.580000,1)} 58.750000% {opacity: 1;animation-timing-function: cubic-bezier(0.420000,0,0.580000,1)} 87.500000% {opacity: 1;animation-timing-function: cubic-bezier(0.420000,0,0.580000,1)} 100% {opacity: 0} }#euetl0kcdqhq19_to {animation: euetl0kcdqhq19_to__to 8000ms linear infinite normal forwards}@keyframes euetl0kcdqhq19_to__to { 0% {transform: translate(0px,560px)} 37.500000% {transform: translate(0px,560px);animation-timing-function: cubic-bezier(1,0,0,1)} 58.750000% {transform: translate(0px,0px)} 100% {transform: translate(0px,0px)} }#euetl0kcdqhq19_ts {animation: euetl0kcdqhq19_ts__ts 8000ms linear infinite normal forwards}@keyframes euetl0kcdqhq19_ts__ts { 0% {transform: scale(1,0)} 37.500000% {transform: scale(1,0);animation-timing-function: cubic-bezier(1,0,0,1)} 58.750000% {transform: scale(1,1)} 100% {transform: scale(1,1)} }#euetl0kcdqhq19 {animation: euetl0kcdqhq19_c_o 8000ms linear infinite normal forwards}@keyframes euetl0kcdqhq19_c_o { 0% {opacity: 1} 87.500000% {opacity: 1} 100% {opacity: 0} }#euetl0kcdqhq20_to {animation: euetl0kcdqhq20_to__to 8000ms linear infinite normal forwards}@keyframes euetl0kcdqhq20_to__to { 0% {transform: translate(0px,30px)} 31.250000% {transform: translate(0px,30px);animation-timing-function: cubic-bezier(1,0,0,1)} 50% {transform: translate(0px,0px)} 100% {transform: translate(0px,0px)} }#euetl0kcdqhq20 {animation: euetl0kcdqhq20_c_o 8000ms linear infinite normal forwards}@keyframes euetl0kcdqhq20_c_o { 0% {opacity: 0} 31.250000% {opacity: 0;animation-timing-function: cubic-bezier(1,0,0,1)} 50% {opacity: 1;animation-timing-function: cubic-bezier(1,0,0,1)} 87.500000% {opacity: 1} 100% {opacity: 0} }#euetl0kcdqhq21_to {animation: euetl0kcdqhq21_to__to 8000ms linear infinite normal forwards}@keyframes euetl0kcdqhq21_to__to { 0% {transform: translate(0px,30px)} 25% {transform: translate(0px,30px);animation-timing-function: cubic-bezier(1,0,0,1)} 43.750000% {transform: translate(0px,0px)} 100% {transform: translate(0px,0px)} }#euetl0kcdqhq21 {animation: euetl0kcdqhq21_c_o 8000ms linear infinite normal forwards}@keyframes euetl0kcdqhq21_c_o { 0% {opacity: 0} 25% {opacity: 0;animation-timing-function: cubic-bezier(1,0,0,1)} 43.750000% {opacity: 1;animation-timing-function: cubic-bezier(1,0,0,1)} 87.500000% {opacity: 1} 100% {opacity: 0} }]]></style><g id="euetl0kcdqhq2"><circle id="euetl0kcdqhq3" r="2.600000" transform="matrix(1 0 0 1 54.20000000000000 315.30000000000001)" fill="rgb(204,205,201)" stroke="none" stroke-width="1"/><path id="euetl0kcdqhq4" d="M486.700000,558.100000L313.700000,558.100000C312.600000,558.100000,311.600000,557.200000,311.600000,556L311.600000,556C311.600000,554.900000,312.500000,553.900000,313.700000,553.900000L486.700000,553.900000C487.800000,553.900000,488.800000,554.800000,488.800000,556L488.800000,556C488.800000,557.200000,487.900000,558.100000,486.700000,558.100000Z" clip-rule="evenodd" fill="rgb(204,205,201)" fill-rule="evenodd" stroke="none" stroke-width="1"/><path id="euetl0kcdqhq5" d="M727.900000,60.300000L73.800000,60.300000C68.100000,60.300000,63.400000,64.900000,63.400000,70.700000L63.400000,556.400000C63.400000,562.100000,68,566.800000,73.800000,566.800000L727.900000,566.800000C733.600000,566.800000,738.300000,562.200000,738.300000,556.400000L738.300000,70.700000C738.300000,65,733.600000,60.300000,727.900000,60.300000ZM735.300000,556.400000C735.300000,560.500000,732,563.800000,727.900000,563.800000L73.800000,563.800000C69.700000,563.800000,66.400000,560.500000,66.400000,556.400000L66.400000,70.700000C66.400000,66.600000,69.700000,63.300000,73.800000,63.300000L727.900000,63.300000C732,63.300000,735.300000,66.600000,735.300000,70.700000L735.300000,556.400000Z" clip-rule="evenodd" fill="rgb(204,205,201)" fill-rule="evenodd" stroke="none" stroke-width="1"/><path id="euetl0kcdqhq6" d="M727.900000,38.900000L146.200000,38.900000C145.900000,37.900000,145,37.200000,144,37.200000L125.700000,37.200000C124.600000,37.200000,123.700000,37.900000,123.500000,38.900000L115.200000,38.900000C114.900000,37.900000,114,37.200000,113,37.200000L94.700000,37.200000C93.600000,37.200000,92.700000,37.900000,92.500000,38.900000L73.800000,38.900000C56.300000,38.900000,42.100000,53.200000,42.100000,70.700000L42.100000,70.700000L42.100000,70.700000L42.100000,70.700000C40.800000,70.700000,39.700000,71.800000,39.700000,73.100000L39.700000,99.400000C39.700000,100.700000,40.800000,101.800000,42.100000,101.800000L42.100000,101.800000L42.100000,101.800000L42.100000,556.500000C42.100000,574,56.400000,588.300000,73.900000,588.300000L728,588.300000C745.500000,588.300000,759.800000,574,759.800000,556.500000L759.800000,70.700000C759.700000,53.200000,745.400000,38.900000,727.900000,38.900000ZM756.700000,556.400000C756.700000,572.300000,743.800000,585.200000,727.900000,585.200000L73.800000,585.200000C57.900000,585.200000,45,572.300000,45,556.400000L45,70.700000C45,54.800000,57.900000,41.900000,73.800000,41.900000L94.700000,41.900000L112.900000,41.900000L125.700000,41.900000L143.900000,41.900000L727.900000,41.900000C743.800000,41.900000,756.700000,54.800000,756.700000,70.700000L756.700000,556.400000Z" clip-rule="evenodd" fill="rgb(204,205,201)" fill-rule="evenodd" stroke="none" stroke-width="1"/><path id="euetl0kcdqhq7" d="M727.900000,41.800000L143.900000,41.800000L125.700000,41.800000L112.900000,41.800000L94.700000,41.800000L73.800000,41.800000C57.900000,41.800000,45,54.700000,45,70.600000L45,556.300000C45,572.200000,57.900000,585.100000,73.800000,585.100000L727.900000,585.100000C743.800000,585.100000,756.700000,572.200000,756.700000,556.300000L756.700000,70.600000C756.700000,54.700000,743.800000,41.800000,727.900000,41.800000ZM738.300000,557.100000C738.300000,562.900000,733.600000,567.500000,727.900000,567.500000L73.800000,567.500000C68,567.500000,63.400000,562.800000,63.400000,557.100000L63.400000,71.400000C63.400000,65.600000,68.100000,61,73.800000,61L727.900000,61C733.600000,61,738.300000,65.700000,738.300000,71.400000L738.300000,557.100000Z" clip-rule="evenodd" fill="none" fill-rule="evenodd" stroke="none" stroke-width="1"/></g><g id="euetl0kcdqhq8_to" transform="translate(0,30)"><path id="euetl0kcdqhq8" d="M148.700000,109.800000L147.400000,108.700000C146.400000,107.800000,146,106.300000,146.600000,105L147.200000,103.400000C148.400000,100.700000,147.100000,97.600000,144.300000,96.400000C144.100000,96.300000,143.900000,96.200000,143.700000,96.200000L142.100000,95.700000C140.800000,95.300000,139.800000,94.100000,139.700000,92.800000L139.600000,91.100000C139.500000,88.200000,137.200000,86,134.300000,86C134,86,133.700000,86,133.400000,86.100000L131.800000,86.400000C131.600000,86.500000,131.500000,86.500000,131.200000,86.500000C130,86.500000,128.900000,85.900000,128.400000,84.800000L127.600000,83.300000C126.200000,80.700000,123,79.700000,120.400000,81.200000C120.200000,81.300000,120,81.400000,119.800000,81.500000L118.400000,82.500000C117.200000,83.300000,115.700000,83.300000,114.600000,82.500000L113.200000,81.500000C110.800000,79.800000,107.500000,80.300000,105.800000,82.800000C105.700000,83,105.600000,83.100000,105.500000,83.300000L104.700000,84.800000C104,86,102.700000,86.600000,101.300000,86.400000L99.600000,86.100000C99.500000,86,99.100000,86,98.800000,86C96,86,93.600000,88.300000,93.500000,91.100000L93.400000,92.800000C93.300000,94.200000,92.400000,95.400000,91,95.700000L89.400000,96.200000C86.600000,97,84.900000,100,85.700000,102.800000C85.800000,103,85.800000,103.200000,85.900000,103.400000L86.600000,105C87.100000,106.300000,86.800000,107.800000,85.700000,108.700000L84.400000,109.800000C82.200000,111.800000,82,115.100000,83.900000,117.400000C84.100000,117.600000,84.200000,117.700000,84.400000,117.900000L85.700000,119C86.700000,119.900000,87.100000,121.400000,86.500000,122.700000L85.800000,124.300000C84.600000,127,85.900000,130.100000,88.700000,131.300000C88.900000,131.400000,89.100000,131.500000,89.300000,131.500000L90.900000,132C92.200000,132.400000,93.200000,133.600000,93.300000,134.900000L93.400000,136.600000C93.500000,139.400000,95.900000,141.700000,98.700000,141.700000C99,141.700000,99.300000,141.700000,99.600000,141.600000L101.200000,141.300000C102.600000,141.100000,103.900000,141.800000,104.600000,143L105.400000,144.500000C106.800000,147.100000,110,148.100000,112.600000,146.600000C112.800000,146.500000,113,146.400000,113.200000,146.300000L114.600000,145.300000C115.800000,144.500000,117.300000,144.500000,118.400000,145.300000L119.800000,146.300000C122.200000,148,125.500000,147.500000,127.200000,145.100000C127.300000,144.900000,127.400000,144.800000,127.500000,144.500000L128.300000,143C129,141.800000,130.300000,141.200000,131.700000,141.400000L133.400000,141.700000C136.300000,142.200000,139.100000,140.300000,139.600000,137.400000C139.700000,137.200000,139.700000,136.900000,139.700000,136.700000L139.800000,135C139.900000,133.600000,140.800000,132.400000,142.200000,132.100000L143.800000,131.600000C146.600000,130.800000,148.300000,127.800000,147.500000,125C147.400000,124.800000,147.400000,124.600000,147.300000,124.400000L146.600000,122.800000C146.100000,121.500000,146.400000,120,147.500000,119.100000L148.800000,118C151,116,151.200000,112.700000,149.300000,110.400000C149,110.100000,148.800000,109.900000,148.700000,109.800000L148.700000,109.800000ZM147.300000,116.200000L146,117.300000C144.300000,118.800000,143.700000,121.300000,144.600000,123.400000L145.200000,125C145.900000,126.700000,145.100000,128.600000,143.500000,129.300000C143.400000,129.400000,143.300000,129.400000,143.200000,129.400000L141.500000,129.900000C139.300000,130.500000,137.700000,132.500000,137.600000,134.800000L137.500000,136.500000C137.400000,138.300000,135.900000,139.700000,134.100000,139.600000C134,139.600000,133.900000,139.600000,133.700000,139.500000L132,139.200000C129.700000,138.800000,127.500000,139.900000,126.400000,141.900000L125.600000,143.400000C125,144.400000,123.900000,145.100000,122.700000,145C122,145,121.400000,144.800000,120.800000,144.400000L119.400000,143.400000C117.600000,142.100000,115,142.100000,113.200000,143.400000L111.800000,144.400000C110.400000,145.400000,108.300000,145.100000,107.300000,143.600000C107.200000,143.500000,107.100000,143.400000,107.100000,143.300000L106.300000,141.800000C105.200000,139.800000,103,138.700000,100.700000,139.100000L99,139.400000C97.200000,139.700000,95.500000,138.500000,95.200000,136.700000C95.200000,136.600000,95.100000,136.400000,95.100000,136.300000L95,134.600000C94.900000,132.300000,93.300000,130.300000,91.100000,129.700000L89.500000,129.200000C87.800000,128.700000,86.800000,126.900000,87.200000,125.200000C87.300000,125.100000,87.300000,125,87.300000,124.900000L87.900000,123.300000C88.800000,121.200000,88.200000,118.700000,86.500000,117.200000L85.400000,116C84,114.800000,83.900000,112.800000,85.100000,111.400000C85.200000,111.300000,85.300000,111.200000,85.400000,111.100000L86.700000,110C88.400000,108.500000,89,106,88.100000,103.900000L87.500000,102.400000C86.800000,100.700000,87.600000,98.800000,89.200000,98.100000C89.300000,98,89.400000,98,89.500000,98L91.200000,97.500000C93.400000,96.900000,95,94.900000,95.100000,92.600000L95.200000,90.900000C95.300000,89.200000,96.700000,87.800000,98.400000,87.800000C98.600000,87.800000,98.800000,87.800000,99,87.900000L100.700000,88.200000C103,88.600000,105.200000,87.500000,106.300000,85.500000L107.100000,84C107.700000,83,108.800000,82.300000,110,82.300000C110.700000,82.300000,111.300000,82.500000,111.900000,82.900000L113.300000,83.900000C115.100000,85.200000,117.700000,85.200000,119.500000,83.900000L120.900000,83C122.300000,82,124.400000,82.300000,125.400000,83.800000C125.500000,83.900000,125.600000,84,125.600000,84.100000L126.400000,85.600000C127.500000,87.600000,129.700000,88.700000,132,88.300000L133.700000,88C135.500000,87.700000,137.200000,88.900000,137.500000,90.700000C137.500000,90.800000,137.600000,91,137.600000,91.100000L137.700000,92.800000C137.800000,95.100000,139.400000,97.100000,141.600000,97.700000L143.200000,98.200000C144.900000,98.700000,145.900000,100.500000,145.500000,102.200000C145.400000,102.300000,145.400000,102.400000,145.400000,102.500000L144.800000,104.100000C143.900000,106.200000,144.500000,108.700000,146.200000,110.200000L147.500000,111.300000C148.800000,112.500000,149,114.500000,147.800000,115.900000C147.600000,116.100000,147.500000,116.200000,147.300000,116.200000L147.300000,116.200000ZM106.400000,95.500000C105.600000,95.400000,104.900000,95.500000,104.300000,96C102.500000,97.300000,100.800000,98.800000,99.400000,100.600000C98.500000,101.800000,98.700000,103.600000,99.900000,104.500000C101.100000,105.400000,102.900000,105.200000,103.800000,104C104.800000,102.700000,106.100000,101.500000,107.400000,100.500000C108.700000,99.600000,109,97.900000,108.100000,96.600000C107.800000,96,107.200000,95.600000,106.400000,95.500000L106.400000,95.500000ZM106.300000,98.800000C104.700000,99.900000,103.400000,101.200000,102.200000,102.700000C102,103,101.500000,103,101.200000,102.800000C100.900000,102.600000,100.900000,102.100000,101.100000,101.800000C102.400000,100.200000,103.800000,98.700000,105.500000,97.600000C105.600000,97.500000,105.700000,97.500000,105.900000,97.500000L106,97.500000C106.200000,97.600000,106.300000,97.600000,106.500000,97.800000C106.700000,98.100000,106.700000,98.600000,106.300000,98.800000L106.300000,98.800000ZM100.700000,115.800000L100.700000,115.800000C100.600000,115,100.600000,114.400000,100.600000,113.700000C100.600000,112.700000,100.700000,111.700000,100.900000,110.800000C101.200000,109.300000,100.300000,107.800000,98.800000,107.500000C97.300000,107.200000,95.800000,108.100000,95.500000,109.600000C95.500000,109.700000,95.500000,109.700000,95.400000,109.800000C95.200000,111.100000,95,112.400000,95,113.700000C95,114.600000,95.100000,115.500000,95.200000,116.500000L95.200000,116.600000C95.400000,118,96.600000,119,98,119C98.100000,119,98.200000,119,98.300000,119C99.900000,118.800000,101,117.400000,100.700000,115.800000L100.700000,115.800000L100.700000,115.800000ZM97.300000,116.300000L97.300000,116.300000C97.200000,115.400000,97.100000,114.600000,97.100000,113.700000C97.100000,112.500000,97.200000,111.300000,97.400000,110.100000C97.500000,109.800000,97.700000,109.500000,98.100000,109.500000L98.200000,109.500000C98.600000,109.600000,98.800000,110,98.800000,110.300000L98.800000,110.300000C98.600000,111.400000,98.500000,112.500000,98.500000,113.600000C98.500000,114.400000,98.600000,115.200000,98.700000,116L98.700000,116.100000C98.800000,116.500000,98.500000,116.900000,98.100000,116.900000C97.700000,116.900000,97.300000,116.700000,97.300000,116.300000L97.300000,116.300000ZM106.800000,126.400000C105.500000,125.400000,104.300000,124.100000,103.300000,122.800000C102.400000,121.500000,100.700000,121.200000,99.400000,122C98.100000,122.900000,97.800000,124.600000,98.600000,125.900000L98.600000,125.900000C99.900000,127.700000,101.400000,129.400000,103.300000,130.800000C104.500000,131.700000,106.300000,131.500000,107.200000,130.300000C108.300000,129.100000,108.100000,127.400000,106.800000,126.400000L106.800000,126.400000ZM105.700000,129.100000C105.500000,129.400000,105,129.400000,104.700000,129.200000C103.100000,127.900000,101.600000,126.500000,100.500000,124.800000C100.300000,124.500000,100.400000,124,100.700000,123.800000C100.800000,123.700000,100.900000,123.700000,101.100000,123.700000L101.200000,123.700000C101.400000,123.800000,101.500000,123.800000,101.700000,124C102.800000,125.600000,104.100000,126.900000,105.600000,128.100000C105.900000,128.400000,106,128.800000,105.700000,129.100000C105.700000,129.100000,105.700000,129.100000,105.700000,129.100000ZM126.300000,101.100000C127.600000,102.100000,128.800000,103.400000,129.800000,104.700000C130.700000,106,132.400000,106.300000,133.700000,105.400000C135,104.500000,135.300000,102.800000,134.400000,101.500000C133.100000,99.700000,131.600000,98,129.700000,96.600000C128.500000,95.700000,126.700000,95.900000,125.800000,97.100000C124.800000,98.300000,125.100000,100.100000,126.300000,101.100000L126.300000,101.100000ZM127.400000,98.400000C127.600000,98.100000,128.100000,98.100000,128.400000,98.300000C130,99.600000,131.500000,101,132.600000,102.700000C132.800000,103,132.700000,103.500000,132.400000,103.700000C132.100000,103.900000,131.600000,103.800000,131.400000,103.500000C130.300000,101.900000,129,100.600000,127.500000,99.400000C127.300000,99.200000,127.200000,98.700000,127.400000,98.400000ZM120.500000,92.500000C118.300000,92.100000,116.100000,92,113.900000,92.300000L113.800000,92.300000C112.200000,92.500000,111.200000,93.900000,111.400000,95.400000C111.600000,97,113,98,114.500000,97.800000C116.200000,97.600000,117.800000,97.600000,119.500000,97.900000C121,98.200000,122.500000,97.300000,122.800000,95.800000C123.100000,94.300000,122.200000,92.800000,120.700000,92.500000C120.600000,92.500000,120.500000,92.500000,120.500000,92.500000L120.500000,92.500000ZM119.900000,95.900000C118.800000,95.700000,117.700000,95.600000,116.600000,95.600000C115.800000,95.600000,115,95.700000,114.200000,95.800000C113.800000,95.900000,113.400000,95.600000,113.400000,95.200000C113.300000,94.800000,113.600000,94.400000,114,94.400000C116,94.200000,118,94.200000,120,94.600000C120.400000,94.700000,120.600000,95.100000,120.600000,95.400000L120.600000,95.400000C120.600000,95.800000,120.200000,96,119.900000,95.900000L119.900000,95.900000ZM118.700000,129.600000C117,129.800000,115.400000,129.800000,113.700000,129.500000C112.200000,129.200000,110.700000,130.200000,110.500000,131.800000C110.200000,133.300000,111.200000,134.800000,112.800000,135C114.100000,135.200000,115.400000,135.300000,116.700000,135.300000C117.600000,135.300000,118.500000,135.200000,119.400000,135.100000L119.500000,135.100000C121.100000,134.900000,122.100000,133.500000,121.900000,131.900000C121.600000,130.400000,120.200000,129.300000,118.700000,129.600000ZM119.100000,133.100000C117.100000,133.300000,115.100000,133.300000,113.100000,132.900000C112.700000,132.800000,112.400000,132.500000,112.500000,132.100000C112.600000,131.700000,112.900000,131.400000,113.300000,131.500000L113.400000,131.500000C115.200000,131.800000,117.200000,131.900000,119.100000,131.700000C119.500000,131.600000,119.900000,131.900000,119.900000,132.300000C119.800000,132.600000,119.500000,133,119.100000,133.100000L119.100000,133.100000ZM133.200000,122.900000C132,122,130.200000,122.200000,129.300000,123.400000L129.300000,123.400000C128.300000,124.700000,127,125.900000,125.700000,126.900000C124.400000,127.700000,124,129.400000,124.800000,130.800000C125.600000,132.100000,127.300000,132.500000,128.700000,131.700000C128.800000,131.600000,128.800000,131.600000,128.900000,131.600000C130.700000,130.300000,132.400000,128.800000,133.800000,126.900000C134.700000,125.600000,134.400000,123.900000,133.200000,122.900000C133.200000,122.900000,133.200000,122.900000,133.200000,122.900000L133.200000,122.900000ZM132,125.600000C130.700000,127.200000,129.300000,128.700000,127.600000,129.800000C127.300000,130,126.800000,129.900000,126.600000,129.600000C126.400000,129.300000,126.500000,128.800000,126.800000,128.600000C128.400000,127.500000,129.700000,126.200000,130.900000,124.700000C131.100000,124.400000,131.600000,124.400000,131.900000,124.600000C132.200000,124.800000,132.300000,125.300000,132,125.600000ZM137.900000,110.900000C137.700000,109.400000,136.200000,108.400000,134.700000,108.600000C133.300000,108.800000,132.300000,110.200000,132.400000,111.600000L132.400000,111.700000C132.500000,112.400000,132.500000,113.100000,132.500000,113.800000C132.500000,114.800000,132.400000,115.800000,132.200000,116.700000C131.900000,118.200000,132.900000,119.700000,134.500000,120L134.500000,120C134.700000,120.100000,134.800000,120.100000,135,120.100000C136.300000,120.100000,137.500000,119.100000,137.700000,117.800000C137.900000,116.500000,138,115.200000,138.100000,113.900000C138.100000,112.800000,138.100000,111.800000,137.900000,110.900000L137.900000,110.900000ZM135.800000,117.300000C135.700000,117.700000,135.300000,117.900000,135,117.900000C134.600000,117.800000,134.400000,117.400000,134.400000,117.100000C134.600000,116,134.700000,114.900000,134.700000,113.800000C134.700000,113,134.600000,112.200000,134.500000,111.400000L134.500000,111.300000C134.400000,110.900000,134.700000,110.500000,135.100000,110.500000L135.200000,110.500000C135.500000,110.500000,135.800000,110.700000,135.900000,111.100000L135.900000,111.200000C136,112.100000,136.100000,112.900000,136.100000,113.700000C136,114.900000,135.900000,116.100000,135.800000,117.300000L135.800000,117.300000Z" transform="translate(0,0)" opacity="0" fill="rgb(231,26,72)" stroke="none" stroke-width="1"/></g><g id="euetl0kcdqhq9_to" transform="translate(-200,0)"><g id="euetl0kcdqhq9" transform="translate(0,0)" opacity="0"><path id="euetl0kcdqhq10" d="M708.900000,122L658,122C656.700000,122,655.700000,121,655.700000,119.700000L655.700000,108.700000C655.700000,107.400000,656.700000,106.400000,658,106.400000L708.900000,106.400000C710.200000,106.400000,711.200000,107.400000,711.200000,108.700000L711.200000,119.700000C711.200000,121,710.100000,122,708.900000,122Z" fill="none" stroke="rgb(204,205,201)" stroke-width="2" stroke-miterlimit="10"/><path id="euetl0kcdqhq11" d="M644.900000,122L594,122C592.700000,122,591.700000,121,591.700000,119.700000L591.700000,108.700000C591.700000,107.400000,592.700000,106.400000,594,106.400000L644.900000,106.400000C646.200000,106.400000,647.200000,107.400000,647.200000,108.700000L647.200000,119.700000C647.200000,121,646.100000,122,644.900000,122Z" fill="rgb(204,205,201)" stroke="none" stroke-width="1"/><path id="euetl0kcdqhq12" d="M580.900000,122L530,122C528.700000,122,527.700000,121,527.700000,119.700000L527.700000,108.700000C527.700000,107.400000,528.700000,106.400000,530,106.400000L580.900000,106.400000C582.200000,106.400000,583.200000,107.400000,583.200000,108.700000L583.200000,119.700000C583.200000,121,582.200000,122,580.900000,122Z" fill="rgb(204,205,201)" stroke="none" stroke-width="1"/><path id="euetl0kcdqhq13" d="M516.900000,122L466,122C464.700000,122,463.700000,121,463.700000,119.700000L463.700000,108.700000C463.700000,107.400000,464.700000,106.400000,466,106.400000L516.900000,106.400000C518.200000,106.400000,519.200000,107.400000,519.200000,108.700000L519.200000,119.700000C519.200000,121,518.200000,122,516.900000,122Z" fill="rgb(204,205,201)" stroke="none" stroke-width="1"/><path id="euetl0kcdqhq14" d="M452.900000,122L402,122C400.700000,122,399.700000,121,399.700000,119.700000L399.700000,108.700000C399.700000,107.400000,400.700000,106.400000,402,106.400000L452.900000,106.400000C454.200000,106.400000,455.200000,107.400000,455.200000,108.700000L455.200000,119.700000C455.200000,121,454.200000,122,452.900000,122Z" fill="rgb(204,205,201)" stroke="none" stroke-width="1"/></g></g><g id="euetl0kcdqhq15_to" transform="translate(0,30)"><g id="euetl0kcdqhq15" transform="translate(0,0)" opacity="0"><g id="euetl0kcdqhq16"><path id="euetl0kcdqhq17" d="M414.600000,482.200000C414.600000,479.900000,413.200000,477.800000,410.700000,476.400000L398.800000,469.500000C397.400000,468.700000,396,468.300000,394.700000,468.300000C391.700000,468.300000,388.700000,470.500000,388.700000,475.300000L388.700000,489.100000C388.700000,493.900000,391.700000,496.100000,394.700000,496.100000C396,496.100000,397.400000,495.700000,398.800000,494.900000L410.700000,488C413.200000,486.600000,414.600000,484.500000,414.600000,482.200000ZM408.400000,484.100000L396.500000,491C395.700000,491.500000,395.100000,491.600000,394.700000,491.600000C393.500000,491.600000,393.300000,490.100000,393.300000,489.200000L393.300000,475.400000C393.300000,474.500000,393.500000,473,394.700000,473C395.100000,473,395.700000,473.100000,396.500000,473.600000L408.400000,480.500000C409.400000,481.100000,410,481.800000,410,482.300000C410,482.800000,409.400000,483.500000,408.400000,484.100000Z" fill="rgb(204,205,201)" stroke="none" stroke-width="1"/><path id="euetl0kcdqhq18" d="M414.800000,510.500000C424.500000,510.500000,432.400000,502.600000,432.400000,492.900000L432.400000,471.500000C432.400000,461.800000,424.500000,453.900000,414.800000,453.900000L384.600000,453.900000C374.900000,453.900000,367,461.800000,367,471.500000L367,492.900000C367,502.600000,374.900000,510.500000,384.600000,510.500000L392.500000,510.500000L392.500000,505.900000L384.600000,505.900000C377.400000,505.900000,371.600000,500.100000,371.600000,492.900000L371.600000,471.500000C371.600000,464.300000,377.400000,458.500000,384.600000,458.500000L414.800000,458.500000C422,458.500000,427.800000,464.300000,427.800000,471.500000L427.800000,492.900000C427.800000,500.100000,422,505.900000,414.800000,505.900000L398.400000,505.900000L398.400000,510.500000L414.800000,510.500000Z" fill="rgb(204,205,201)" stroke="none" stroke-width="1"/></g></g></g><g id="euetl0kcdqhq19_to" transform="translate(0,560)"><g id="euetl0kcdqhq19_ts" transform="scale(1,0)"><path id="euetl0kcdqhq19" d="M170.100000,556L170.100000,353.300000C170.100000,352,171.100000,351,172.400000,351L627.200000,351C628.500000,351,629.500000,352,629.500000,353.300000L629.500000,556" transform="translate(0,0)" fill="none" stroke="rgb(203,204,200)" stroke-width="2" stroke-miterlimit="10"/></g></g><g id="euetl0kcdqhq20_to" transform="translate(0,30)"><rect id="euetl0kcdqhq20" width="222" height="45.300000" rx="0" ry="0" transform="translate(288.700000,241.500000)" opacity="0" fill="rgb(203,204,200)" stroke="none" stroke-width="1"/></g><g id="euetl0kcdqhq21_to" transform="translate(0,30)"><rect id="euetl0kcdqhq21" width="277.300000" height="45.300000" rx="0" ry="0" transform="translate(261.100000,186.200000)" opacity="0" fill="rgb(203,204,200)" stroke="none" stroke-width="1"/></g></svg>